<svg viewBox="0 0 1496 400" xmlns="http://www.w3.org/2000/svg"><g><g><g><g><g><line x1="49.98400115966797" y1="378.6199998855591" x2="44.98400115966797" y2="378.6199998855591" style="visibility: inherit;" fill="rgb(0, 0, 0)" stroke="rgb(204, 204, 204)" stroke-width="1px"></line><line x1="49.98400115966797" y1="349.4953845097468" x2="44.98400115966797" y2="349.4953845097468" style="visibility: inherit;" fill="rgb(0, 0, 0)" stroke="rgb(204, 204, 204)" stroke-width="1px"></line><line x1="49.98400115966797" y1="320.3707691339346" x2="44.98400115966797" y2="320.3707691339346" style="visibility: inherit;" fill="rgb(0, 0, 0)" stroke="rgb(204, 204, 204)" stroke-width="1px"></line><line x1="49.98400115966797" y1="291.2461537581224" x2="44.98400115966797" y2="291.2461537581224" style="visibility: inherit;" fill="rgb(0, 0, 0)" stroke="rgb(204, 204, 204)" stroke-width="1px"></line><line x1="49.98400115966797" y1="262.1215383823101" x2="44.98400115966797" y2="262.1215383823101" style="visibility: inherit;" fill="rgb(0, 0, 0)" stroke="rgb(204, 204, 204)" stroke-width="1px"></line><line x1="49.98400115966797" y1="232.99692300649784" x2="44.98400115966797" y2="232.99692300649784" style="visibility: inherit;" fill="rgb(0, 0, 0)" stroke="rgb(204, 204, 204)" stroke-width="1px"></line><line x1="49.98400115966797" y1="203.87230763068567" x2="44.98400115966797" y2="203.87230763068567" style="visibility: inherit;" fill="rgb(0, 0, 0)" stroke="rgb(204, 204, 204)" stroke-width="1px"></line><line x1="49.98400115966797" y1="174.74769225487339" x2="44.98400115966797" y2="174.74769225487339" style="visibility: inherit;" fill="rgb(0, 0, 0)" stroke="rgb(204, 204, 204)" stroke-width="1px"></line><line x1="49.98400115966797" y1="145.62307687906113" x2="44.98400115966797" y2="145.62307687906113" style="visibility: inherit;" fill="rgb(0, 0, 0)" stroke="rgb(204, 204, 204)" stroke-width="1px"></line><line x1="49.98400115966797" y1="116.49846150324896" x2="44.98400115966797" y2="116.49846150324896" style="visibility: inherit;" fill="rgb(0, 0, 0)" stroke="rgb(204, 204, 204)" stroke-width="1px"></line><line x1="49.98400115966797" y1="87.3738461274367" x2="44.98400115966797" y2="87.3738461274367" style="visibility: inherit;" fill="rgb(0, 0, 0)" stroke="rgb(204, 204, 204)" stroke-width="1px"></line><line x1="49.98400115966797" y1="58.24923075162445" x2="44.98400115966797" y2="58.24923075162445" style="visibility: inherit;" fill="rgb(0, 0, 0)" stroke="rgb(204, 204, 204)" stroke-width="1px"></line><line x1="49.98400115966797" y1="29.124615375812255" x2="44.98400115966797" y2="29.124615375812255" style="visibility: inherit;" fill="rgb(0, 0, 0)" stroke="rgb(204, 204, 204)" stroke-width="1px"></line><line x1="49.98400115966797" y1="0" x2="44.98400115966797" y2="0" style="visibility: inherit;" fill="rgb(0, 0, 0)" stroke="rgb(204, 204, 204)" stroke-width="1px"></line></g><g transform="translate(39.98400115966797, 0)"><text style="text-anchor: end; visibility: hidden; font-family: &quot;Helvetica Neue&quot;, sans-serif; font-size: 12px; font-weight: 200;" x="0" y="378.6199998855591" dx="0em" dy="0.3em" fill="rgb(50, 49, 63)" stroke="none" stroke-width="1px">0.24</text><text style="text-anchor: end; visibility: inherit; font-family: &quot;Helvetica Neue&quot;, sans-serif; font-size: 12px; font-weight: 200;" x="0" y="349.4953845097468" dx="0em" dy="0.3em" fill="rgb(50, 49, 63)" stroke="none" stroke-width="1px">0.26</text><text style="text-anchor: end; visibility: inherit; font-family: &quot;Helvetica Neue&quot;, sans-serif; font-size: 12px; font-weight: 200;" x="0" y="320.3707691339346" dx="0em" dy="0.3em" fill="rgb(50, 49, 63)" stroke="none" stroke-width="1px">0.28</text><text style="text-anchor: end; visibility: inherit; font-family: &quot;Helvetica Neue&quot;, sans-serif; font-size: 12px; font-weight: 200;" x="0" y="291.2461537581224" dx="0em" dy="0.3em" fill="rgb(50, 49, 63)" stroke="none" stroke-width="1px">0.3</text><text style="text-anchor: end; visibility: inherit; font-family: &quot;Helvetica Neue&quot;, sans-serif; font-size: 12px; font-weight: 200;" x="0" y="262.1215383823101" dx="0em" dy="0.3em" fill="rgb(50, 49, 63)" stroke="none" stroke-width="1px">0.32</text><text style="text-anchor: end; visibility: inherit; font-family: &quot;Helvetica Neue&quot;, sans-serif; font-size: 12px; font-weight: 200;" x="0" y="232.99692300649784" dx="0em" dy="0.3em" fill="rgb(50, 49, 63)" stroke="none" stroke-width="1px">0.34</text><text style="text-anchor: end; visibility: inherit; font-family: &quot;Helvetica Neue&quot;, sans-serif; font-size: 12px; font-weight: 200;" x="0" y="203.87230763068567" dx="0em" dy="0.3em" fill="rgb(50, 49, 63)" stroke="none" stroke-width="1px">0.36</text><text style="text-anchor: end; visibility: inherit; font-family: &quot;Helvetica Neue&quot;, sans-serif; font-size: 12px; font-weight: 200;" x="0" y="174.74769225487339" dx="0em" dy="0.3em" fill="rgb(50, 49, 63)" stroke="none" stroke-width="1px">0.38</text><text style="text-anchor: end; visibility: inherit; font-family: &quot;Helvetica Neue&quot;, sans-serif; font-size: 12px; font-weight: 200;" x="0" y="145.62307687906113" dx="0em" dy="0.3em" fill="rgb(50, 49, 63)" stroke="none" stroke-width="1px">0.4</text><text style="text-anchor: end; visibility: inherit; font-family: &quot;Helvetica Neue&quot;, sans-serif; font-size: 12px; font-weight: 200;" x="0" y="116.49846150324896" dx="0em" dy="0.3em" fill="rgb(50, 49, 63)" stroke="none" stroke-width="1px">0.42</text><text style="text-anchor: end; visibility: inherit; font-family: &quot;Helvetica Neue&quot;, sans-serif; font-size: 12px; font-weight: 200;" x="0" y="87.3738461274367" dx="0em" dy="0.3em" fill="rgb(50, 49, 63)" stroke="none" stroke-width="1px">0.44</text><text style="text-anchor: end; visibility: inherit; font-family: &quot;Helvetica Neue&quot;, sans-serif; font-size: 12px; font-weight: 200;" x="0" y="58.24923075162445" dx="0em" dy="0.3em" fill="rgb(50, 49, 63)" stroke="none" stroke-width="1px">0.46</text><text style="text-anchor: end; visibility: inherit; font-family: &quot;Helvetica Neue&quot;, sans-serif; font-size: 12px; font-weight: 200;" x="0" y="29.124615375812255" dx="0em" dy="0.3em" fill="rgb(50, 49, 63)" stroke="none" stroke-width="1px">0.48</text><text style="text-anchor: end; visibility: hidden; font-family: &quot;Helvetica Neue&quot;, sans-serif; font-size: 12px; font-weight: 200;" x="0" y="0" dx="0em" dy="0.3em" fill="rgb(50, 49, 63)" stroke="none" stroke-width="1px">0.5</text></g><line x1="49.98400115966797" y1="0" x2="49.98400115966797" y2="378.6199998855591" fill="rgb(0, 0, 0)" stroke="rgb(204, 204, 204)" stroke-width="1px"></line></g></g><g transform="translate(49, 0)" clip-path="url(#clip_0)"><clipPath id="clip_0"><rect width="1446" height="378"></rect></clipPath><g><g><g><line x1="0" y1="0" x2="0" y2="378.6199998855591" fill="rgb(0, 0, 0)" stroke="rgb(60, 60, 60)" stroke-width="1px" opacity="0.25"></line><line x1="120.50133323669434" y1="0" x2="120.50133323669434" y2="378.6199998855591" fill="rgb(0, 0, 0)" stroke="rgb(60, 60, 60)" stroke-width="1px" opacity="0.25"></line><line x1="241.00266647338867" y1="0" x2="241.00266647338867" y2="378.6199998855591" fill="rgb(0, 0, 0)" stroke="rgb(60, 60, 60)" stroke-width="1px" opacity="0.25"></line><line x1="361.503999710083" y1="0" x2="361.503999710083" y2="378.6199998855591" fill="rgb(0, 0, 0)" stroke="rgb(60, 60, 60)" stroke-width="1px" opacity="0.25"></line><line x1="482.00533294677734" y1="0" x2="482.00533294677734" y2="378.6199998855591" fill="rgb(0, 0, 0)" stroke="rgb(60, 60, 60)" stroke-width="1px" opacity="0.25"></line><line x1="602.5066661834717" y1="0" x2="602.5066661834717" y2="378.6199998855591" fill="rgb(0, 0, 0)" stroke="rgb(60, 60, 60)" stroke-width="1px" opacity="0.25"></line><line x1="723.007999420166" y1="0" x2="723.007999420166" y2="378.6199998855591" fill="rgb(0, 0, 0)" stroke="rgb(60, 60, 60)" stroke-width="1px" opacity="0.25"></line><line x1="843.5093326568604" y1="0" x2="843.5093326568604" y2="378.6199998855591" fill="rgb(0, 0, 0)" stroke="rgb(60, 60, 60)" stroke-width="1px" opacity="0.25"></line><line x1="964.0106658935547" y1="0" x2="964.0106658935547" y2="378.6199998855591" fill="rgb(0, 0, 0)" stroke="rgb(60, 60, 60)" stroke-width="1px" opacity="0.25"></line><line x1="1084.511999130249" y1="0" x2="1084.511999130249" y2="378.6199998855591" fill="rgb(0, 0, 0)" stroke="rgb(60, 60, 60)" stroke-width="1px" opacity="0.25"></line><line x1="1205.0133323669434" y1="0" x2="1205.0133323669434" y2="378.6199998855591" fill="rgb(0, 0, 0)" stroke="rgb(60, 60, 60)" stroke-width="1px" opacity="0.25"></line><line x1="1325.5146656036377" y1="0" x2="1325.5146656036377" y2="378.6199998855591" fill="rgb(0, 0, 0)" stroke="rgb(60, 60, 60)" stroke-width="1px" opacity="0.25"></line><line x1="1446.015998840332" y1="0" x2="1446.015998840332" y2="378.6199998855591" fill="rgb(0, 0, 0)" stroke="rgb(60, 60, 60)" stroke-width="1px" opacity="0.25"></line></g><g><line x1="0" y1="378.6199998855591" x2="1446.015998840332" y2="378.6199998855591" fill="rgb(0, 0, 0)" stroke="rgb(60, 60, 60)" stroke-width="1px" opacity="0.25"></line><line x1="0" y1="349.4953845097468" x2="1446.015998840332" y2="349.4953845097468" fill="rgb(0, 0, 0)" stroke="rgb(60, 60, 60)" stroke-width="1px" opacity="0.25"></line><line x1="0" y1="320.3707691339346" x2="1446.015998840332" y2="320.3707691339346" fill="rgb(0, 0, 0)" stroke="rgb(60, 60, 60)" stroke-width="1px" opacity="0.25"></line><line x1="0" y1="291.2461537581224" x2="1446.015998840332" y2="291.2461537581224" fill="rgb(0, 0, 0)" stroke="rgb(60, 60, 60)" stroke-width="1px" opacity="0.25"></line><line x1="0" y1="262.1215383823101" x2="1446.015998840332" y2="262.1215383823101" fill="rgb(0, 0, 0)" stroke="rgb(60, 60, 60)" stroke-width="1px" opacity="0.25"></line><line x1="0" y1="232.99692300649784" x2="1446.015998840332" y2="232.99692300649784" fill="rgb(0, 0, 0)" stroke="rgb(60, 60, 60)" stroke-width="1px" opacity="0.25"></line><line x1="0" y1="203.87230763068567" x2="1446.015998840332" y2="203.87230763068567" fill="rgb(0, 0, 0)" stroke="rgb(60, 60, 60)" stroke-width="1px" opacity="0.25"></line><line x1="0" y1="174.74769225487339" x2="1446.015998840332" y2="174.74769225487339" fill="rgb(0, 0, 0)" stroke="rgb(60, 60, 60)" stroke-width="1px" opacity="0.25"></line><line x1="0" y1="145.62307687906113" x2="1446.015998840332" y2="145.62307687906113" fill="rgb(0, 0, 0)" stroke="rgb(60, 60, 60)" stroke-width="1px" opacity="0.25"></line><line x1="0" y1="116.49846150324896" x2="1446.015998840332" y2="116.49846150324896" fill="rgb(0, 0, 0)" stroke="rgb(60, 60, 60)" stroke-width="1px" opacity="0.25"></line><line x1="0" y1="87.3738461274367" x2="1446.015998840332" y2="87.3738461274367" fill="rgb(0, 0, 0)" stroke="rgb(60, 60, 60)" stroke-width="1px" opacity="0.25"></line><line x1="0" y1="58.24923075162445" x2="1446.015998840332" y2="58.24923075162445" fill="rgb(0, 0, 0)" stroke="rgb(60, 60, 60)" stroke-width="1px" opacity="0.25"></line><line x1="0" y1="29.124615375812255" x2="1446.015998840332" y2="29.124615375812255" fill="rgb(0, 0, 0)" stroke="rgb(60, 60, 60)" stroke-width="1px" opacity="0.25"></line><line x1="0" y1="0" x2="1446.015998840332" y2="0" fill="rgb(0, 0, 0)" stroke="rgb(60, 60, 60)" stroke-width="1px" opacity="0.25"></line></g></g></g><g><g><line x1="0" y1="728.1153843953059" x2="1446.015998840332" y2="728.1153843953059" fill="rgb(0, 0, 0)" stroke="rgb(153, 153, 153)" stroke-width="1.5px"></line></g></g><g><g><line x1="120.50133323669434" y1="0" x2="120.50133323669434" y2="378.6199998855591" fill="rgb(0, 0, 0)" stroke="rgb(153, 153, 153)" stroke-width="1.5px"></line></g></g><g><g><g><g><g><path style="fill: none;" stroke="rgb(255, 112, 67)" stroke-width="2px" d="M123.26081376781462,-21.345252275518362L123.32106443443298,10.547745873449799L123.79101963405608,-2.519310366324987L126.21309643211366,-38.12097696181837L126.96020469818116,35.6017971441525L127.47836043109895,18.562529870315643L127.56271136436462,7.7075762089478985L128.14111776390075,-11.498303521254229L129.10512842979432,-7.058045777056179L130.23784096221925,20.968978793789574L132.72016842689513,61.07885688617603L136.56416095714567,51.09725034521921L136.61236149044038,37.81774009063639L137.1907678899765,80.84575697888675L137.27511882324217,77.98123480804503L137.80532468948363,103.71293107943143L140.87810868701933,92.35842472237988L141.39626441993713,79.50328156426133L141.43241481990813,48.15991989175967L143.11943348522186,61.94767301955903L143.60143881816865,114.61374476370412L145.0354046836853,90.31320654280313L146.9995764154434,68.56969262951361L148.3009908143997,93.79486419514444L149.28910174694062,121.85992695042347L149.85545801315305,97.09125367246446L150.4459145460129,51.915667366334446L150.45796467933656,15.676658996674632L150.60256627922058,9.792715263254422L152.85594121074678,12.356080904443672L153.5186985435486,0.6789475376950804L157.10963827400207,16.228044340694396L159.4232638721466,46.24406313335345L159.6160660053253,45.669832547396084L160.32702387142183,21.535145226013867L164.09871560173036,27.863695582362652L164.1228158683777,48.412393812863684L164.72532253456114,94.21933427822296L165.5808820005417,76.65062305474703L166.46054173316958,60.142980512817076L166.54489266643523,91.28315905574163L167.83425693206786,126.79252578502977L168.17166066513062,106.32049317323055L169.13567133102416,66.10756625318038L172.52175879497528,80.27902818116075L173.52191986083983,80.34578796436767L174.63053212661742,22.69590890523864L174.83538439311982,57.452539051950964L176.8477566581726,31.78022627491515L178.1973715904236,20.80710133349686L180.40254598865508,60.56519275081138L182.0293139873505,91.87991182559455L182.3667177204132,123.58272345620693L184.90929585170744,106.61468195247983L185.07799771823883,91.97548909499136L187.367523049736,90.76313015141216L189.4642462480545,106.87512248368546L190.48850758056642,99.8797179503523L191.1633150466919,77.59235873496573L191.2476659799576,75.47840553325943L191.68147077960967,37.990515793398L192.68163184547424,57.808375036470295L195.21215984344482,35.773959487108016L195.44111237659453,54.30760296977701L196.2846217092514,62.232090681707916L199.7189097064972,87.0192507221791L201.22517637195585,69.89835079506008L201.3697779718399,44.46660638326324L203.09294703712462,48.70036853260456L204.44256196937562,44.725802143520866L206.72003716754912,82.91876569673042L209.4554174320221,68.64759154972796L210.3953278312683,101.44148203704208L210.4314782312393,69.74635037770634L211.00988463077545,75.22706795970981L214.34777156143187,86.90856401580442L214.4682728946686,49.7142008871092L214.89002756099703,47.37104506280258L216.7939486261368,62.08975940788088L217.69770862541196,76.21843337384047L219.0714238243103,60.90798865546088L219.56547929058078,38.259750402492045L221.2765982225418,35.71229184364756L221.44530008907319,29.099096176250043L222.9033662212372,20.77261129627135L223.02386755447387,71.53664707127933L224.14452995357513,92.70952742373328L227.48241688423155,76.77284529486013L228.1692744836807,72.80941876594449L228.86818221645356,94.80151411433292L232.0855678138733,50.265190657914616L234.59199554519654,78.40293169306756L235.62830701103212,74.82396164738964L235.78495874423982,93.66551021131102L237.3635262096405,95.08687656588864L239.11079554157257,96.63619919418488L239.8820040742874,115.71180725433817L244.32850327072143,149.76098166128304L244.41285420398714,142.31119129945859L245.81066966953279,87.66500913228828L246.77468033542632,103.29816793075815L247.29283606834414,77.23846119764738L248.317097400856,123.4180171814296L250.12461739940642,98.17395149128822L250.40177046585083,97.89328681608373L251.8718867313385,106.94201484715262L251.9080371313095,98.29500996499775L252.64309526405333,100.46499594506554L252.7394963306427,91.94282938107443L253.29380246353148,111.95366123749795L254.28191339607238,106.97732744326993L258.10180565967556,80.11975333311767L258.74046272583007,66.04187461962852L259.46347072525026,91.6652660625212L259.873175258255,94.47895363357787L261.30714112377166,99.99371327321501L262.1988509897232,80.92745516662018L264.7293789876938,72.42239674045561L264.78962965431214,92.56292768950925L267.07915498580934,97.39000356044824L268.5974717845917,92.6354289996886L273.18857258090975,103.51202860689006L275.6709000455856,128.65108088527174L276.4180083116532,110.89262166580107L277.5627709774017,137.32089617977826L277.88812457714084,99.19986482199056L281.9972200405121,147.39686774228016L283.7324392391205,123.74040803538358L284.3469960386276,103.31435792298566L284.62414910507204,84.27559383547145L286.9136744365692,63.2255040716758L290.16721043395995,60.503663662595955L291.8662792325974,94.50578702697868L292.7459389652252,80.01052013652213L293.2761448314667,20.463915289903582L294.5896093637466,47.02422591035122L296.89118482856753,89.4470488499827L297.2526888282776,26.360812382176164L297.4816413614273,51.773545099887826L298.5902536272049,83.82004034835239L298.95175762691497,111.0049292610754L299.7229661596298,145.64804169469505L299.95191869277954,179.08612357730334L305.15757628860473,153.04486788646716L306.95304615383145,129.4913147369452L307.36275068683625,128.79047981438336L310.1704317512512,64.98336195124455L310.45963495101927,95.40099919487164L314.70128188095094,121.29884290154581L316.30394961299896,145.71343784187604L317.1715592123031,148.03054319187098L321.70240934200285,130.80835619387807L323.0520242742538,102.61546330026647L323.63043067379,137.2311277274697L324.1365362733841,95.6785925453346L326.1489085384369,77.94350337329689L326.52246267147063,97.64139521576925L328.8722386695862,93.61009964707426L329.1734920026779,87.44303239175872L329.4385949357986,44.30544232205199L331.89682213382724,64.17051323129795L332.06552400035855,97.38517883720073L332.414977866745,101.28910139829992L332.51137893333436,79.67192820436475L338.18699172878263,131.6697896999393L342.83834319171905,104.550795602731L350.85168185195926,140.43944335491983L351.4903389181137,104.88245471122502L352.719452517128,150.32373734337588L355.852487181282,121.2678123005573L357.165951713562,96.09410456882188L357.3346535800934,95.99385463163856L358.2625138460159,101.48729127352891L359.64827917823794,114.24379257834869L361.44374904346466,113.0006259041997L362.1426567762375,158.01170768786656L362.25110797615054,139.80999115254875L362.33545890941616,124.16266484643464L363.6127730417252,141.41832269636217L363.7091741083145,152.66761285781362L364.564733574295,146.1618818509509L365.97459917316434,126.14355679635159L367.16756237220767,112.66982252474492L367.17961250553134,127.53873659669142L367.6375175718307,146.06872346567985L370.0595943698883,151.48890523052748L370.0957447698593,190.5941572535261L370.68620130271916,179.1905913914754L370.9754045024872,137.75902006515105L373.6866845003128,142.95488029699857L374.4578930330277,134.01362074428118L375.24115169906617,133.696158196396L375.51830476551055,127.45267505392994L376.5666663646698,108.40833012839397L377.434275963974,103.37124508907112L379.02489356269837,93.14716328531404L382.94118689289087,137.28908302320255L387.7250898223877,152.7245740903129L388.2914460886002,158.45356725252725L388.74935115489956,155.81957369479525L389.08675488796234,116.14334483132728L390.46047008686065,128.45860946851167L394.89491914997103,143.77712349379567L398.48585888042453,126.44265770600987L398.6063602136612,160.65956113064684L399.13656607990265,194.38004857788746L399.44986954631804,158.7112458846343L399.9921255458832,191.45181782142177L400.2692786123276,174.4439024691277L401.17303861160275,168.89533412320893L401.968347410965,166.57560314546075L403.3300124765396,134.44700608014418L404.89652980861666,118.91178413283819L405.029081275177,143.42316846809058L405.2700839416504,163.6735170917909L408.12596553936004,137.67111020859295L409.8250343379974,170.83920221618595L410.64444340400695,137.5517506292637L412.27121140270236,116.77106768410044L412.2953116693497,128.41833446131216L412.75321673564906,167.16498005333884L413.0303698020935,178.65036425389297L416.35620659942623,159.8895568276485L417.5371196651459,185.09366328279685L417.63352073173525,200.86176627447213L419.73024393005375,161.91703643941779L420.12789832973476,129.32447868854277L421.0196081956864,119.94737738719158L421.4895633953094,176.7327476196532L423.97189085998536,184.31584026414305L424.92385139255526,189.3428945422443L425.6348092586517,164.58081303322808L429.1895985891342,172.59634370575287L430.70791538791656,162.77524914630138L431.129670054245,172.81985519308213L432.0213799201966,156.09492261738635L433.76864925212857,148.73023772404628L434.06990258522035,161.5476060420226L434.8411111179352,176.75991719212254L436.62453084983827,207.8130465576822L437.8295441822052,209.88840890375621L438.6369031148911,179.5854963882393L442.5772967117309,198.22476029369835L442.5893468450546,210.1758917512836L442.9629009780884,178.91500277780133L446.7345927083969,207.61327444265277L446.87919430828094,220.97496381090005L446.9273948415756,217.54061496758058L446.9394449748993,211.20853141333362L448.32521030712127,213.0598387420632L451.1087911048889,180.24174236541145L452.28970417060856,159.1428107550912L452.49455643711093,170.30314675190365L452.7114588369369,165.8235004708782L454.9648337684631,193.80714691756114L456.0613959009171,206.49563765550704L456.4711004339218,198.09628478628446L456.6880028337479,181.8450643611519L460.94169989700316,187.32851277565388L462.3515654958725,200.89139944669924L462.50821722908023,213.76636439707806L463.61682949485777,189.928857035479L463.9662833612442,220.37765669593313L464.4362385608673,180.37644367367312L468.7622364240646,156.1650047498256L469.07553989048006,144.83465567549365L469.5695953567505,164.04156156058949L469.87084868984226,177.42127525151173L471.5458172218323,198.62092614020963L472.29292548789977,184.29586405161115L474.799353219223,170.13144293683305L474.99215535240177,193.74840628455055L475.88386521835326,180.5554603334374L476.48637188453677,143.31572988603304L478.1251900165558,133.30678948139504L479.11330094909664,148.5135311501313L481.2341244140625,177.92979561166908L481.5474278804779,196.17757595981615L482.2824860132218,205.2327085121643L483.27059694576263,197.62049966538956L484.1020561450958,171.85457423291732L485.1142673442841,157.4438527082895L486.70488494300844,164.33023806680055L486.8374364095688,156.20009919658122L488.54855534152983,174.65418317004256L489.68126787395477,180.4456798375669L489.84996974048613,158.41831872338133L498.11636120052333,149.33953360565533L498.56221613349913,170.06892566450685L501.6108998643875,163.00267666358184L502.9605147966385,183.80621529103348L503.743773462677,184.90025183102875L503.82812439594267,167.73280180582557L504.5029318620682,164.88620694499994L504.6113830619812,181.06333201029628L505.32234092807767,134.17891820249469L505.4789926612854,196.6854509881454L507.3708635931015,165.79050964611002L507.7685179927826,129.46824597518764L510.5159483905792,136.14829853455413L511.8053126562118,145.07215882487387L513.1910779884338,177.14361264775226L513.7815345212937,147.20715753075422L514.4563419874191,176.541179515639L516.0469595861435,196.38211251836645L516.1433606527328,169.60214003778913L517.7339782514572,188.14120837642668L519.1558939836502,164.53328528847712L519.4812475833893,120.293417648527L519.5053478500366,114.76481428366111L520.5898598491668,113.23524213883559L521.4333691818237,145.2536174749986L521.8430737148285,185.98708657818568L522.1804774478912,155.88071374158278L526.0967707780839,140.00156394249933L526.2052219779969,153.4985073122026L526.3498235778809,189.06176772242424L526.5787761110305,208.51969409912897L526.783628377533,192.1003990163847L527.4343355770111,161.20777778555225L527.5789371768951,183.8642828703087L527.8801905099868,165.72665157533328L528.3260454429627,127.24838196207995L529.5792593086243,186.68240439335798L529.808211841774,199.02432993987915L531.0734758407593,189.99207437161712L533.7365553052902,192.70976680962946L533.9896081050873,174.21932870021524L534.6523654378891,178.59261192335538L535.7007270370483,193.04808535771951L536.5924369029999,187.07349267409342L538.809661434555,198.57723577277721L545.4372347625732,195.8123933537182L545.6902875623704,135.05127816047124L545.7866886289597,138.2130543537779L545.9674406288146,141.84653377366905L547.2447547611237,163.41994221953286L548.3292667602539,134.68045852146412L550.7151931583405,114.61737448436304L550.7995440916062,125.33868490398746L551.6551035575867,143.97964376774698L552.9083174232484,121.49493412248472L553.1131696897506,134.87322948808L553.9205286224366,153.63305435351054L556.4390064870834,179.9913877593285L556.7884603534699,178.6403587875516L561.0542075500489,165.94246143358117L561.4157115497588,198.29776285898464L562.7171259487152,244.90045407897733L563.343732881546,259.36732241979405L563.7172870145797,227.2667018807362L564.404144614029,197.66287562678548L567.5612795448303,226.59255098627148L567.9589339445114,224.694697222682L571.0076176753997,223.38507947080703L571.4173222084046,194.97117284702333L574.7311088724136,179.332378225083L576.0807238046646,144.05569529968412L579.8885659349442,160.28458875372198L582.8649488658905,143.57684719752925L583.0577509990692,100.82285411670392L583.1903024656295,154.4701560046751L585.3111259305954,177.47932371907083L586.0100336633682,125.67030807262134L586.2510363298416,163.05771169444486L587.6970523286819,197.22701270049546L589.3961211273194,187.47606416439783L589.6853243270874,188.1196434097951L592.4809552581787,177.27125019074225L593.1919131242752,198.05744473140115L598.0842672536851,199.69498568713783L598.4216709867477,212.07474541865946L599.0362277862549,206.90595499007776L600.2050907186508,218.41065134595502L600.5786448516845,186.42181920884815L600.6388955183029,199.41869552625954L601.9162096506119,221.16600793283553L603.9767824489594,206.0402471650147L606.435009646988,218.8703094184013L608.2063792455673,221.6834007860056L608.3991813787461,196.43743513689336L608.4473819120407,223.8506010095823L608.8450363117217,201.8574716903346L609.0860389781952,175.60314712596133L609.9656987108231,135.0175935581044L612.9420816417694,222.30056682135944L614.0024933742523,179.6437715380389L615.400308839798,198.76466475339743L615.725662439537,228.18347533737196L616.569171772194,191.54687898182453L617.3885808382034,176.5690605558205L618.9550981702804,152.23632341656457L619.1479003034591,164.7707448601845L624.6668613656998,169.09585558529804L626.1249274978637,179.50217974441767L627.4504421634674,165.18146908441636L629.9327696281433,200.65832187630943L630.1496720279694,218.56232753623507L632.6802000259399,256.46879208883587L636.3313904230117,206.99694937990105L639.9102800201416,220.35234321605685L642.8023120178223,207.44688596325275L643.2240666841508,204.80437243580937L643.8747738836288,237.4350815820164L644.2603781499863,247.63122077521857L645.1279877492905,191.41684979216086L645.4533413490295,219.40615029943845L645.5015418823242,224.01763214637262L646.2607002817155,204.9734388924951L648.3694736133576,220.07711480298576L648.5261253465652,134.7750801844355L649.4901360124588,196.84479711877668L649.5383365457535,161.5418715343667L649.9721413454056,187.7106766933221L651.0205029445648,198.3416303845166L651.1048538778305,217.55424171859588L651.635059744072,199.2770535088276L652.2737168102265,197.9170354596095L655.6598042741775,160.34788934333895L658.2746832054138,174.8421342718744L658.4433850719452,192.2850845133592L660.2268048038483,189.2419601738886L661.913823469162,204.26485010571253L664.3961509338379,212.34746593715536L664.504602133751,231.3877464944199L665.1432591999054,185.41480203001362L666.7700271986008,215.74275683026426L667.2038319982528,215.99202252238408L668.5895973304748,230.6834087417132L673.1083973268509,243.68125008002167L673.7952549263,177.9761146568225L674.74721545887,195.05871217342192L675.181020258522,182.1806518319247L676.5426853240966,178.4263918772224L676.7354874572754,158.34324578089175L677.6874479898453,175.99704540507716L678.7237594556808,148.41256188583037L687.1468026489258,177.83869583491048L687.6649583818436,179.2394149515573L688.3879663812637,202.78465428213624L688.6289690477371,194.95420029579373L690.0267845132828,218.31201331607988L690.6533914461136,178.11816926150684L691.3763994455338,166.41267432629465L691.8102042451858,155.74783177619744L692.4488613113404,190.4320203528301L692.6537135778427,182.21392725693096L692.8224154443741,166.19728524718818L693.2562202440262,173.62677740102578L693.7261754436493,192.39381941897872L693.8948773101806,190.49274188746926L695.3890938423157,224.11902932832308L696.1723525083542,200.2574990314965L696.4495055747986,160.91173603217672L697.7268197071076,175.53202674067094L698.9920837060928,170.6080657819364L699.5463898389817,184.88257741879056L703.1011791694641,185.51765140395304L706.9813220996857,246.59675836899035L708.644240498352,233.5418670397428L712.1387791622162,186.50475698902542L712.7894863616943,185.5226393452028L713.0907396947861,242.78278654892947L714.6090564935683,236.03866417566704L715.5851172927856,230.0735530795351L716.3201754255294,237.16331177632506L716.5491279586792,218.1614688404865L720.9835770217895,197.15276623057514L721.586083687973,182.21238018530823L722.7067460870743,140.97384822281242L722.899548220253,180.6675684596552L723.2610522199632,217.9655446349106L724.140711952591,228.65354394797436L725.5144271514893,215.9833954511007L728.4908100824356,247.690993398003L728.5149103490829,257.0349060218927L730.7803354139328,255.65374472825036L732.7083567457199,272.21893938587857L734.5761274108887,272.039374655496L735.6967898099899,217.99655274047566L736.3595471427917,242.16668688700983L737.082555142212,196.25286812196012L741.9990095382691,163.6797123127948L742.5774159378051,224.17231106554087L742.6738170043944,238.34464456433253L744.4572367362977,203.13239836678477L745.0235930025101,243.10083955705113L745.8189018018722,223.45104237574284L747.8674244668962,190.76175705420985L748.530181799698,191.99771867561634L749.2652399324418,261.98056711326376L751.1571108642578,271.5496168544766L751.3740132640838,233.04140102276153L753.229733795929,222.10336295094643L754.6757497947693,202.6040444903798L755.928963660431,236.63876353385677L756.326618060112,203.8605078422485L757.0978265928269,214.0992730079903L758.1702884586334,193.8083389627775L758.3510404584885,239.66491686485492L761.8937796556472,250.91254915950694L761.9901807222366,260.24380652800807L762.701138588333,250.35946063763097L765.5690703193665,248.28380054451432L765.6534212526321,239.69507541703132L765.7016217859268,248.8655608344805L765.7498223192215,259.4802612165822L767.4488911178588,237.85462269730783L767.9790969841004,227.08472767724228L769.9794191158294,229.0149881909186L770.1601711156845,225.04058084456565L770.4132239154817,226.46982836819865L770.5939759153366,239.65763972669865L772.0158916475295,256.3894840084056L776.6431428438186,247.9114794219048L776.9082457769393,236.36571625985775L777.4384516431809,287.42681353529844L777.7758553762436,269.1450596315981L778.8362671087266,199.59378771099233L780.4027844408035,225.74357929211186L780.9450404403686,203.74824604709792L783.4876185716629,211.47656198663705L784.7649327039719,201.15623951657L784.8010831039428,152.37337278139572L785.1143865703583,237.96868824222835L785.4879407033919,234.75065832401214L787.6449145683288,208.56575555031264L787.7051652349472,228.26112014034177L787.8015663015366,218.0118791104691L789.7536878999709,241.64209164486826L790.3923449661255,238.99745934605969L792.8023716308594,240.0838710356063L794.308638296318,261.20865119064985L796.8753166942597,298.1550158088533L797.2729710939407,278.0907417104207L798.4177337596893,237.5327114081976L799.3214937589646,218.15109725103864L799.490195625496,239.02186116332973L800.5385572246552,229.02326326525198L802.695531089592,216.51115568705896L803.0931854892731,229.6289987413837L805.2501593542099,248.25841805912208L808.8651993513107,235.28187210082694L808.9375001512527,242.31198394329675L811.0944740161895,254.24492814295309L814.4203108135224,235.2023913692957L820.8671321416855,212.4737406662154L821.4816889411927,186.7839719381441L822.6144014736175,200.4181944407886L824.0122169391632,202.95290965832305L824.674974271965,220.74968782650123L825.036478271675,211.67469045492277L825.9763886709213,265.922823358985L826.3017422706604,266.46323068130806L826.5065945371629,259.0756011953994L829.5311780014038,266.0190625615952L829.7239801345825,232.58652098982938L832.5437113323211,242.8436169165963L833.1100675985336,257.1536339257988L834.5681337306977,252.29072714627893L837.0745614620208,186.98730470248236L837.436065461731,209.84700075077498L838.2434243944169,252.22779258740076L842.4489209243775,237.8537062128885L843.5695833234787,212.89454302485117L843.6418841234207,192.33395079110878L843.9069870565414,185.84084473340135L844.9914990556716,221.29433488358535L847.1364227872849,241.6180206610015L848.5944889194488,200.97981497810414L849.498248918724,212.22385599739277L845.9434595882415,221.02210131291588L846.9436206541062,203.23871919489528L847.7991801200867,222.1589841451233L848.9680430524826,232.0367208497727L849.1126446523666,214.51818442774396L849.7513017185212,263.5294967232971L850.9081145175934,187.06778669859938L852.6674339828492,228.3320781258647L858.1984451784134,224.5260694774878L859.1624558443069,223.43932353321688L862.7413454414368,240.87574329780495L863.1148995744705,261.91036971399694L863.2113006410599,243.67403281506273L867.0552931713105,247.84607443492555L868.8628131698608,191.39502837681363L871.2246393013,188.90580884065898L872.8875576999665,261.57619967051943L873.7310670326232,270.01773186798766L873.743117165947,272.4809991262327L874.7553283651353,289.2180859297838L876.6592494302749,270.35252003060583L877.9847640958786,279.01928034994444L878.9969752950669,227.34563375204527L880.4791416938782,198.59604425979094L881.8046563594818,240.66608582766187L882.7084163587571,253.27695356929829L883.3350232915877,291.173236319124L886.7813614221573,268.029677197468L886.901862755394,296.57860331222315L888.9021848871231,242.8347613864346L891.3363118185043,213.34769895366574L892.5413251508713,222.25571679741677L892.6738766174316,211.80177715741712L893.3245838169098,219.18645488504325L895.6261592817307,229.7626029729468L896.1925155479431,215.72061179556337L897.1926766138076,244.11262674634787L898.0964366130829,260.83491114294145L898.4699907461167,260.88778285929214L899.0242968790054,262.77531908369673L899.916006744957,252.6309599302416L900.422112344551,281.77471090787037L901.2174211439133,264.77153847654995L903.6033475419997,239.70066610814666L905.3144664739609,266.86806731720264L908.3149496715546,261.08644195718637L911.1587811359406,274.8640791289028L912.5204462015153,271.18482745083827L914.207464866829,300.1955040814646L916.1475363319396,282.0700763677958L916.4849400650024,278.75186313657105L917.0271960645676,249.2475810560038L922.0762019271851,276.78136112632296L922.4859064601899,258.138131968677L922.955861659813,272.99958048709675L931.993461652565,260.9968707028508L932.0055117858886,258.9106224595603L932.210364052391,242.58780386675772L933.3792269847869,293.1972786801821L933.9937837842941,289.21442257515315L934.9939448501586,270.42811049089653L935.9338552494049,269.6007060221024L940.0188504461288,290.3663476085079L940.7298083122253,295.7240320887491L942.9349827104568,259.69801231429716L942.9470328437806,271.270164175476L943.1036845769881,302.96484125041604L944.8027533756256,277.7052332794433L946.357220574379,290.71349604810416L946.610273374176,267.40471364590445L948.8515981723785,255.51298008389392L949.5384557718277,252.45922215947206L950.4904163043976,258.3770324559027L951.900281903267,253.85637902987887L958.4435042980194,279.53150231892386L958.4917048313141,254.13812793279521L958.8652589643478,257.6187286099533L959.299063764,243.07509409984775L959.9136205635072,270.4830913033141L960.829430696106,271.41574666373873L963.9504152269363,245.76914803087007L964.9264760261535,218.93642304382502L968.2523128234862,191.4630751834109L968.7584184230805,231.44839418599503L970.1321336219788,240.8237026294796L971.6504504207612,185.18708870689156L971.9637538871765,232.88801597914423L973.3615693527222,235.75659504321672L975.2172898845672,189.96405358968204L975.8920973506927,239.7127445831967L976.5066541501998,255.6113664336698L976.7717570833207,252.06712943248274L977.1694114830017,233.65239965951952L977.4706648160934,207.86982435348332L979.3986861478805,222.2066833443135L980.3385965471267,223.0355065114354L980.6036994802474,254.46975006900445L980.6277997468948,308.28521752658685L981.8569133459091,268.87437473931203L981.8930637458802,294.1264219265855L982.3750690788269,291.62082994704537L983.7487842777252,287.0656355819016L985.7370562761307,275.98807776144986L987.544576274681,230.5746220136586L988.4483362739563,230.76999550283293L989.1833944067001,275.69101917532686L991.2319170717241,271.04970876877144L992.9068856037139,288.3887189175786L998.0884429328919,289.8560157564876L998.5824983991623,261.95214167886036L998.6427490657807,296.0178766021165L999.2091053319931,229.3274574655205L999.9321133314132,275.5824974565153L1000.2092663978576,265.1809958351049L1001.2576279970168,283.862455752707L1003.3784514619828,238.7023599681027L1003.4628023952483,220.30616463100117L1011.5484418554305,240.43329422382925L1011.9822466550827,263.6674352886547L1014.8622285194397,226.11488453219636L1015.2357826524734,217.7700724233068L1018.8267223829268,226.57698407013754L1019.0436247827531,242.26152455395328L1020.0076354486465,216.43549403307927L1020.7547437147141,253.08544200503889L1021.5741527807235,242.76293664072136L1024.3577335784912,233.3606806075607L1024.3818338451385,262.91200571466743L1025.9001506439208,257.1495361769157L1026.4183063768387,281.1930485441388L1027.8522722423554,295.9266816954297L1030.4189506402968,270.270112807174L1031.033507439804,300.37649122838303L1032.7687266384125,311.71802974152985L1033.3350829046249,304.86697027482785L1033.7206871709825,266.5837247064584L1034.7449485034942,250.60909806400443L1036.1427639690398,276.974904609535L1036.2271149023056,268.8062878659167L1036.3596663688659,265.6214985180912L1038.1551362340927,228.82410050309048L1039.6614028995514,215.01240122050416L1041.1797196983337,201.93978479202676L1042.8185378303526,252.90110640443436L1043.6620471630097,232.0603262600405L1045.0237122285841,251.2753970193693L1046.9396834270476,271.52594905917823L1048.1326466260912,279.656902487812L1050.4462722242356,309.0372291167636L1050.9523778238295,288.97046079202113L1051.8320375564576,246.1057669041638L1052.5188951559066,230.34123646151414L1058.6644631509782,241.13942818194622L1059.4838722169875,252.31299300542094L1060.41173248291,269.19060039634803L1060.5804343494417,279.88211641929087L1061.0503895490647,282.1923083284972L1061.435993815422,299.59418647410666L1065.0992343458176,251.76777167894113L1066.4126988780977,285.09978461758277L1068.5696727430345,254.13955709369296L1068.8468258094788,256.6468743208458L1071.1604514076232,308.1843036341629L1071.461704740715,333.5710289907605L1073.0402722061158,298.2989458035833L1073.1246231393814,267.61963633777907L1073.4017762058259,253.92933739860433L1073.7994306055068,295.6424769047847L1073.8476311388015,280.54015359736877L1074.63088980484,282.3329683871395L1075.4141484708787,253.17584865361187L1077.655473269081,264.6097923524598L1078.1254284687043,261.1942162171878L1078.318230601883,271.2399104814191L1080.0534498004913,255.0028460303817L1080.3667532669067,239.0066467439606L1080.8126081998826,252.43723161730995L1083.3792865978241,214.70525291634877L1083.8733420640945,242.21199430465816L1084.8253025966644,198.94501517982425L1085.4278092628479,193.9390911280486L1085.6567617959977,221.2365165460029L1085.2591073963165,248.34832287193143L1088.4403425937653,208.02522124959177L1089.8020076593398,242.09249625763405L1090.2237623256683,320.9342630020842L1095.3209687215806,293.09890431362385L1096.8633857870102,240.12949489731272L1098.911908452034,271.4437098225074L1102.2377452493668,283.4911844850021L1103.7078615148546,279.4329628474791L1104.7682732473372,247.7711420030475L1105.1779777803422,265.6861294962325L1105.9130359130859,262.92527272848747L1106.129938312912,282.87183802065874L1107.0336983121872,301.29826889627253L1108.8532684440613,292.29532545942266L1109.479875376892,297.3202874419356L1111.1668940422057,297.8281530809897L1114.0950764398576,270.38785414648913L1117.1317100374222,311.93343473860807L1119.071781502533,327.02845723897366L1119.650187902069,294.35802212605745L1121.987913766861,270.2545842714115L1122.3735180332185,280.6472146365251L1122.4699190998078,286.6267731276704L1124.7473942979811,297.63206704421447L1124.9281462978363,296.8421616414711L1125.7234550971984,291.2602880510653L1127.2417718959807,281.67057019114657L1128.266033228493,300.34836116787744L1128.9167404279708,284.9255642040911L1129.8566508272172,251.77994030965382L1132.2907777585983,252.71758699888355L1132.6763820249557,230.90948782604622L1133.1222369579314,221.53651510588548L1134.086247623825,230.15274386303275L1135.9058177556992,209.7164461731171L1138.171242820549,216.38590989379028L1138.5447969535828,238.92915899128278L1138.9424513532638,277.4438525406318L1139.7136598859786,301.60565135512206L1140.1836150856018,301.8591942509944L1140.3161665521623,347.46624432713116L1141.0753249515533,298.73857467162264L1143.9191564159394,279.77854017934567L1144.2686102823257,273.0007539260708L1149.5465686780929,282.54975570284313L1151.8360940095902,250.4680739449544L1151.9204449428557,304.38031294590365L1153.4990124082565,289.27708704567544L1153.655664141464,274.21476291074407L1154.209970274353,262.00060940139383L1154.5232737407684,286.31239210067906L1155.1739809402466,303.0567421371872L1156.2464428060532,284.1578117158376L1160.8857441356658,264.53753112418406L1161.572601735115,302.43782500573127L1162.849915867424,301.5983552459239L1163.6331745334626,287.09609864494763L1164.1754305330276,259.75979640426806L1165.9950006649017,203.7968565082775L1166.1396022647857,242.1667814237679L1169.3208374622345,261.7872049391142L1169.6943915952684,245.81753074337854L1169.851043328476,258.71676853913675L1172.7069249261856,292.604174730631L1173.5142838588715,289.4687683323699L1176.3219649232863,264.9843051497605L1177.430577189064,293.84968651784226L1178.021033721924,300.80554991997843L1179.3103979875566,258.75816759370235L1182.166279585266,286.62032766852525L1183.407443317604,282.7106065535894L1184.431704650116,254.16148109263497L1184.6245067832947,268.2720892195605L1189.2276577129364,285.7019047531619L1189.4325099794387,282.2247902696232L1190.770074778366,242.6212503839107L1190.9990273115159,264.556894564755L1191.9750881107332,308.725988556094L1192.7221963768004,329.745206399434L1195.1563233081818,306.8441205166488L1196.1444342407228,263.67470606294864L1197.7230017061233,305.1873152763855L1203.386564368248,307.5589300020006L1205.242284900093,316.7872195701716L1205.4832875665663,300.75541657436486L1207.9656150312424,316.3978506323705L1209.146528096962,303.9720898281476L1209.7128843631745,310.1445454089447L1210.062338229561,294.938458592598L1211.8698582281113,323.7413568626982L1212.1108608945847,292.1908654068429L1212.1470112945558,254.68780442474514L1212.8941195606233,277.00334264008177L1213.1712726270675,282.1163608903007L1213.2074230270384,279.5063424105779L1215.629499825096,265.5051642733901L1216.5091595577242,299.31926007538937L1217.533420890236,313.42736174458696L1217.8467243566513,287.2773070096591L1219.3650411554336,264.7839335468299L1220.1241995548248,272.0492033170204L1225.185255550766,270.7013715817382L1225.8962134168623,296.3387917465966L1225.92031368351,324.6821991725528L1226.2938678165435,329.2613397595761L1227.1494272825241,271.0900339245779L1229.9691584802626,318.51568167853725L1231.1380214126586,325.6028840441731L1234.1264544769288,299.82074791469773L1236.5605814083099,299.06216745883717L1239.3080118061066,338.97936690535016L1241.2360331378939,339.408429578289L1245.0800256681443,332.0102037637623L1245.6102315343858,299.32962584696816L1246.9598464666367,314.3782572011681L1247.417751532936,284.07915681185335L1249.9482795309066,284.4651195660929L1251.2376437965393,284.4961414879142L1252.9126123285293,266.150338734113L1253.2379659282685,310.29471089157494L1254.7683328603744,284.78120682756077L1256.419201125717,258.99901929152054L1257.0940085918426,276.2194228964712L1257.4796128582002,274.1294656488697L1258.3351723241806,263.5865477015449L1258.7810272571564,263.2490858703391L1262.914222987175,256.18863741447234L1263.9866848529816,232.95956878126768L1264.263837919426,283.2815343035139L1264.986845918846,292.2489630412425L1268.2283317829133,268.3611123602027L1269.1923424488068,285.5519680074354L1270.204553647995,287.5484094625621L1270.6865589809418,279.7079516218772L1271.0480629806518,305.1568048528217L1271.8313216466904,296.427964898424L1272.2169259130478,310.09272173324223L1276.868277375984,326.1313554196559L1278.5311957746505,336.415676893909L1279.3747051073074,316.402697518806L1280.2182144399644,297.0215660330358L1281.6642304388047,267.38800639775343L1282.194436305046,298.46137525314407L1282.9174443044662,317.1818830676823L1283.833254437065,342.2080925399964L1284.5201120365143,321.1043612746145L1285.5925739023207,321.09355575476275L1286.243281101799,335.2187955004719L1287.2072917676926,310.8097259992146L1288.5328064332962,288.86202809613576L1288.6533077665329,243.9894073713887L1290.3764768318176,274.2322209788758L1291.2561365644453,306.02120183315265L1293.56976216259,317.26232747718757L1294.4132714952468,312.61492351371936L1295.0037280281067,320.6029535156602L1295.2206304279327,290.3164337718943L1295.9918389606476,274.7728210079998L1297.7873088258743,257.03759962949323L1300.6311402902604,260.54367464420443L1301.4143989562988,276.21494174381826L1304.0051776208877,276.62809039347025L1306.8490090852738,282.818144000713L1307.102061885071,310.70477491494586L1308.1263232175827,332.2996614058331L1308.15042348423,273.67523590296906L1311.4039594816209,292.2215153620896L1312.5728224140166,225.50267258925606L1316.2240128110884,244.39251579387698L1316.6939680107116,295.85928475017477L1318.6942901424409,292.94413445129857L1319.6221504083633,306.1192341440549L1319.8993034748078,304.18812294818946L1321.8514250732421,316.04896556790146L1323.1407893388748,276.28216225724793L1323.5263936052322,269.5499181143421L1323.8517472049714,288.70073720365923L1323.9601984048843,291.8518217467098L1324.815757870865,262.60359567426235L1325.5749162702562,261.44304735010013L1325.7195178701402,289.0188269229884L1326.7196789360046,282.8513625023151L1327.6716394685745,277.11161415377836L1328.8887029342652,250.47733917524266L1329.1297056007386,274.5225109847999L1329.8406634668352,284.44656244429615L1330.0455157333374,328.68059502358483L1330.7323733327864,334.2204703916838L1330.864924799347,328.330966376165L1332.6242442646026,306.20210394390654L1333.1785503974916,349.5859727627144L1335.9741813285827,326.42967560138857L1336.2151839950561,331.75859035877744L1340.517081591606,346.20689350355633L1340.6014325248718,333.7114303253253L1342.6258549232482,316.01537359042743L1343.035559456253,303.28123688824013L1343.4211637226106,285.27232043814195L1344.0718709220887,295.2705003800364L1345.156382921219,288.1200143046384L1347.5061589193344,307.5937800289682L1347.8797130523683,294.12368456417005L1348.54247038517,315.48132677214846L1348.9642250514983,272.2915618945402L1349.0847263847352,296.7187711050402L1351.4345023828507,331.66258559422243L1352.7720671817779,281.1234999625567L1354.51933651371,328.8733149565732L1355.1820938465119,325.25726227638063L1357.7367221111297,368.65137380701975L1359.4478410430909,391.35056593797725L1360.3636511756897,319.37406538285666L1362.1832213075638,313.71203290231756L1364.328145039177,298.684108678966L1365.0270527719497,323.20791749994646L1369.4856021017074,338.3786740934389L1370.7388159673692,328.6078147786547L1370.9075178339006,328.89223772647745L1371.1364703670502,291.686875556302L1371.6305258333205,320.37072834825693L1371.799227699852,311.06751339920817L1371.979979699707,355.63631297457306L1372.1366314329148,344.4824459188621L1372.606586632538,296.524998566336L1373.0885919654845,334.0355445293987L1373.1970431653976,361.3792700827962L1373.8839007648469,353.92374808400007L1374.173103964615,300.4624973234922L1376.2216266296386,295.50109692018816L1376.245726896286,294.1482494600876L1378.2821994279861,265.025546859919L1380.4030228929519,313.7958494454841L1381.5116351587294,317.9333263344282L1382.0659412916184,296.9705819441058L1382.3792447580338,283.6244421355549L1382.5479466245652,298.67938267135906L1384.8736223560334,317.553830049163L1385.2712767557146,322.68201557357764L1387.6331028871537,303.85986595410304L1388.3199604866027,330.673657947299L1389.802126885414,344.2167866575934L1391.9229503503798,330.4411552427281L1392.392905550003,317.89485851034954" fill="none"></path></g></g></g></g><g opacity="0.2"><g><g><g><path style="fill: none;" stroke="rgb(255, 112, 67)" stroke-width="2px" d="M122.51370550174713,-44.114969717043095L123.26081376781462,5.331357383492048L123.32106443443298,48.05391169663625L123.79101963405608,-19.57965899297477L126.21309643211366,-87.37089846336016L126.96020469818116,141.02654368007651L127.47836043109895,-6.280885391904462L128.29776949710845,-28.647631943736883L129.10512842979432,9.867774206168292L130.23784096221925,62.91800255203344L132.72016842689513,121.1650945980382L136.56416095714567,36.13657353757776L136.61236149044038,17.907840448248578L137.1907678899765,145.3695742965511L137.27511882324217,73.68517885365122L137.80532468948363,142.3065555215736L140.87810868701933,75.32770303365874L141.39626441993713,60.221271833685705L141.43241481990813,1.14590874967422L143.11943348522186,82.62903049612407L143.60143881816865,193.61222850009287L145.0354046836853,53.86257192927684L146.9995764154434,35.95451448573397L148.3009908143997,131.6325569992905L149.28910174694062,163.95747799685978L149.85545801315305,59.93826657097458L150.4459145460129,-15.847687125000903L150.45796467933656,-38.68184154056564L150.60256627922058,0.9668008338316554L152.85594121074678,16.20112906021319L153.5186985435486,-16.836751676018707L157.10963827400207,39.551688876943444L159.4232638721466,91.26809054834695L159.6160660053253,44.80848667734432L160.32702387142183,-14.666885532017432L164.09871560173036,37.35652108163703L164.1228158683777,79.23544108994423L164.72532253456114,162.92974488441342L165.5808820005417,50.29755624066962L166.46054173316958,35.38151671183806L166.54489266643523,137.99342685664146L167.83425693206786,180.05657586973456L168.17166066513062,75.6124442587236L169.13567133102416,5.788175876866944L172.52175879497528,101.53622107233616L173.52191986083983,80.44592763917592L174.63053212661742,-63.778909682289736L174.83538439311982,109.58748427159787L176.8477566581726,-6.728242890451725L178.1973715904236,4.347413921417626L180.40254598865508,120.20232987667885L182.0293139873505,138.85199043772027L182.3667177204132,171.13694090209572L184.90929585170744,81.16261969689896L185.07799771823883,70.01669980876375L187.367523049736,88.94459173604366L189.4642462480545,131.04311098209325L190.48850758056642,89.3866111503533L191.1633150466919,44.16131991188678L191.2476659799576,72.30747573069988L191.68147077960967,-18.24131881639346L192.68163184547424,87.53516390107853L195.21215984344482,2.7223361630647673L195.44111237659453,82.10806819378018L196.2846217092514,74.11882224960425L199.7189097064972,124.19999078288575L201.22517637195585,44.21700090438151L201.3697779718399,6.318989765568119L203.09294703712462,55.05101175661656L204.44256196937562,38.763952559895415L206.72003716754912,140.20821102654463L209.4554174320221,47.24083032922431L210.3953278312683,150.63231776801337L210.4314782312393,22.20365288870272L211.00988463077545,83.44814433271517L214.34777156143187,104.43080809994638L214.4682728946686,-6.077343805933708L214.89002756099703,43.85631132634251L216.7939486261368,84.16783092549832L217.69770862541196,97.41144432277991L219.0714238243103,37.942321577891505L219.56547929058078,4.287393023038646L221.2765982225418,31.891104005380896L221.44530008907319,19.179302675153792L222.9033662212372,8.28288397630348L223.02386755447387,147.68270073379102L224.14452995357513,124.46884795241431L227.48241688423155,52.867822101550644L228.1692744836807,66.86427897257101L228.86818221645356,127.78965713691548L232.0855678138733,-16.53929452671298L234.59199554519654,120.60954324579689L235.62830701103212,69.45550657887293L235.78495874423982,121.92783305719303L237.3635262096405,97.21892609775512L239.11079554157257,98.96018313662904L239.8820040742874,144.32521934456804L244.32850327072143,200.83474327170043L244.41285420398714,131.13650575672207L245.81066966953279,5.695735881532698L246.77468033542632,126.74790612846303L247.29283606834414,38.14890109798125L248.317097400856,192.6873511571029L250.12461739940642,60.30785295607626L250.40177046585083,97.47228980327696L251.8718867313385,120.5151068937559L251.9080371313095,85.32450264176543L252.64309526405333,103.71997491516703L252.7394963306427,79.1595795350878L253.29380246353148,141.9699090221333L254.28191339607238,99.51282675192795L258.10180565967556,39.83339216788937L258.74046272583007,44.925056549394924L259.46347072525026,130.10035322686025L259.873175258255,98.69948499016289L261.30714112377166,108.26585273267085L262.1988509897232,52.32806800672802L264.7293789876938,59.66480910120873L264.78962965431214,122.7737241130898L267.07915498580934,104.63061736685665L268.5974717845917,85.50356715854906L273.18857258090975,119.8269280176923L275.6709000455856,166.3596593028443L276.4180083116532,84.254932836595L277.5627709774017,176.96330795074397L277.88812457714084,42.01831778530891L281.9972200405121,219.69237212271452L283.7324392391205,88.25571847503858L284.3469960386276,72.67528275438906L284.62414910507204,55.71744770420008L286.9136744365692,31.650369425982205L290.16721043395995,56.42090304897624L291.8662792325974,145.5089720735528L292.7459389652252,58.26761980083717L293.2761448314667,-68.85599198002433L294.5896093637466,86.86469184102265L296.89118482856753,153.08128325943L297.2526888282776,-68.26854231953382L297.4816413614273,89.8926441764554L298.5902536272049,131.88978322104924L298.95175762691497,151.78226263015986L299.7229661596298,197.61271034512453L299.95191869277954,229.24324640121577L305.15757628860473,113.98298435021286L306.95304615383145,94.16098501266225L307.36275068683625,127.73922743054061L310.1704317512512,-30.727314843463603L310.45963495101927,141.02745506031218L314.70128188095094,160.14560846155706L316.30394961299896,182.33533025237136L317.1715592123031,151.50620121686347L321.70240934200285,104.97507569688861L323.0520242742538,60.32612395984887L323.63043067379,189.1546243682744L324.1365362733841,33.34978977213211L326.1489085384369,51.340869615240365L326.52246267147063,127.18823297947779L328.8722386695862,87.5631562940319L329.1734920026779,78.19243150878532L329.4385949357986,-20.40094278250791L331.89682213382724,93.96811959516674L332.06552400035855,147.2071772460551L332.414977866745,107.14498523994877L332.51137893333436,47.246168413461874L338.18699172878263,209.66658194330114L342.83834319171905,63.87230445691853L350.85168185195926,194.27241498320313L351.4903389181137,51.54697174568281L352.719452517128,218.48566129160218L355.852487181282,77.68392473632917L357.165951713562,58.33354297121872L357.3346535800934,95.84347972586363L358.2625138460159,109.72744623636453L359.64827917823794,133.37854453557821L361.44374904346466,111.13587589297623L362.1426567762375,225.52833036336693L362.25110797615054,112.50741634957194L362.33545890941616,100.69167538726344L363.6127730417252,167.30180947125353L363.7091741083145,169.54154809999105L364.564733574295,136.40328534065668L365.97459917316434,96.11606921445258L367.16756237220767,92.45922111733489L367.17961250553134,149.8421077046113L367.6375175718307,173.86370376916244L370.0595943698883,159.61917787779905L370.0957447698593,249.25203528802396L370.68620130271916,162.08524259839956L370.9754045024872,75.61166307566441L373.6866845003128,150.74867064476976L374.4578930330277,120.60173141520528L375.24115169906617,133.21996437456818L375.51830476551055,118.08745034023087L376.5666663646698,79.84181274009L377.434275963974,95.8156175300868L379.02489356269837,77.81104057967849L382.94118689289087,203.5019626300354L387.7250898223877,175.87781069097838L388.2914460886002,167.04705699584875L388.74935115489956,151.86858335819736L389.08675488796234,56.62900153612543L390.46047008686065,146.9315064242883L394.89491914997103,166.75489453172185L398.48585888042453,100.44095902433105L398.6063602136612,211.9849162676022L399.13656607990265,244.96077974874837L399.44986954631804,105.20804184475452L399.9921255458832,240.56267572660278L400.2692786123276,148.93202944068662L401.17303861160275,160.5724816043307L401.968347410965,163.09600667883853L403.3300124765396,86.25411048216915L404.89652980861666,95.6089512118794L405.029081275177,180.19024497096908L405.2700839416504,194.04904002734142L408.12596553936004,98.6674998837961L409.8250343379974,220.59134022757559L410.64444340400695,87.6205732488803L412.27121140270236,85.60004326635567L412.2953116693497,145.88923462712972L412.75321673564906,225.28494844137887L413.0303698020935,195.8784405547242L416.35620659942623,131.74834568828192L417.5371196651459,222.8998229655194L417.63352073173525,224.51392076198516L419.73024393005375,103.49994168683617L420.12789832973476,80.43564206223022L421.0196081956864,105.88172543516475L421.4895633953094,261.91080296834565L423.97189085998536,195.69047923087786L424.92385139255526,196.88347595939604L425.6348092586517,127.43769076970378L429.1895985891342,184.61963971454L430.70791538791656,148.04360730712426L431.129670054245,187.88676426325316L432.0213799201966,131.00752375384255L433.76864925212857,137.68321038403613L434.06990258522035,180.7736585189872L434.8411111179352,199.5783839172724L436.62453084983827,254.39274060602145L437.8295441822052,213.00145242286723L438.6369031148911,134.13112761496393L442.5772967117309,226.18365615188688L442.5893468450546,228.1025889376615L442.9629009780884,132.02366931757797L446.7345927083969,250.66068193992993L446.87919430828094,241.01749786327093L446.9273948415756,212.3890917026013L446.9394449748993,201.71040608196313L448.32521030712127,215.83679973515757L451.1087911048889,131.01459780043382L452.28970417060856,127.49441333961079L452.49455643711093,187.04365074712223L452.7114588369369,159.10403104933997L454.9648337684631,235.78261658758547L456.0613959009171,225.5283737624258L456.4711004339218,185.4972554824506L456.6880028337479,157.468233723453L460.94169989700316,195.5536853974067L462.3515654958725,221.23572945326723L462.50821722908023,233.0788118226464L463.61682949485777,154.17259599308045L463.9662833612442,266.0508561866144L464.4362385608673,120.37462414028312L468.7622364240646,119.8478463640543L469.07553989048006,127.8391320639958L469.5695953567505,192.85192038823322L469.87084868984226,197.49084578789513L471.5458172218323,230.42040247325644L472.29292548789977,162.80827091871356L474.799353219223,148.8848112646661L474.99215535240177,229.1738513061268L475.88386521835326,160.76604140676773L476.48637188453677,87.45613421492658L478.1251900165558,118.29337887443796L479.11330094909664,171.32364365323562L481.2341244140625,222.05419230397567L481.5474278804779,223.54924648203678L482.2824860132218,218.81540734068656L483.27059694576263,186.20218639522736L484.1020561450958,133.20568608420905L485.1142673442841,135.8277704213479L486.70488494300844,174.659816104567L486.8374364095688,144.00489089125247L488.54855534152983,202.33530913023455L489.68126787395477,189.1329248388532L489.84996974048613,125.37727705210298L498.11636120052333,135.72135592906636L498.56221613349913,201.1630137527842L501.6108998643875,152.40330316219433L502.9605147966385,215.0115232322109L503.743773462677,186.5413066410217L503.82812439594267,141.98162676802076L504.5029318620682,160.61631465376152L504.6113830619812,205.3290196082407L505.32234092807767,63.85229749079218L505.4789926612854,290.4452501666216L507.3708635931015,119.4480976330571L507.7685179927826,74.98485046880393L510.5159483905792,146.16837737360393L511.8053126562118,158.45794926035347L513.1910779884338,225.25079338206993L513.7815345212937,102.30247485525723L514.4563419874191,220.542212492966L516.0469595861435,226.14351202245768L516.1433606527328,129.432181316923L517.7339782514572,215.9498108843831L519.1558939836502,129.1214006565527L519.4812475833893,53.93361618860183L519.5053478500366,106.47190923636231L520.5898598491668,110.94088392159745L521.4333691818237,193.2811804792432L521.8430737148285,247.0872902329661L522.1804774478912,110.72115448667847L526.0967707780839,116.18283924387424L526.2052219779969,173.74392236675743L526.3498235778809,242.40665833775665L526.5787761110305,237.7065836641858L526.783628377533,167.4714563922684L527.4343355770111,114.86884593930353L527.5789371768951,217.8490404974433L527.8801905099868,138.52020463287025L528.3260454429627,69.53097754219982L529.5792593086243,275.8334380402751L529.808211841774,217.53721825966082L531.0734758407593,176.44369101922416L533.7365553052902,196.78630546664795L533.9896081050873,146.48367153609382L534.6523654378891,185.1525367580656L535.7007270370483,214.73129550926564L536.5924369029999,178.11160364865447L538.809661434555,215.8328504208029L545.4372347625732,191.6651297251295L545.6902875623704,43.90960537060096L545.7866886289597,142.95571864373792L545.9674406288146,147.2967529035058L547.2447547611237,195.78005488832855L548.3292667602539,91.57123297436095L550.7151931583405,84.52274842871134L550.7995440916062,141.42065053342418L551.6551035575867,171.94108206338615L552.9083174232484,87.76786965459138L553.1131696897506,154.94067253647285L553.9205286224366,181.77279165165643L556.4390064870834,219.5288878680553L556.7884603534699,176.6138153298863L561.0542075500489,146.89561540262568L561.4157115497588,246.83071499708993L562.7171259487152,314.8044909089664L563.343732881546,281.0676249310191L563.7172870145797,179.11577107214944L564.404144614029,153.25713624585927L567.5612795448303,269.98706402550056L567.9589339445114,221.8479165772978L571.0076176753997,221.4206528429946L571.4173222084046,152.35031291134777L574.7311088724136,155.87418629217245L576.0807238046646,91.14067091158574L579.8885659349442,184.6279289347789L582.8649488658905,118.51523486324021L583.0577509990692,36.69186449546601L583.1903024656295,234.9411088366317L585.3111259305954,211.99307529066456L586.0100336633682,47.95678460294704L586.2510363298416,219.13881712717998L587.6970523286819,248.4809642095714L589.3961211273194,172.84964136025138L589.6853243270874,189.08501227789125L592.4809552581787,160.99866036216287L593.1919131242752,229.2367365423894L598.0842672536851,202.15129712074287L598.4216709867477,230.64438501594196L599.0362277862549,199.1527693472052L600.2050907186508,235.66769587977083L600.5786448516845,138.43857100318775L600.6388955183029,218.91401000237647L601.9162096506119,253.78697654269953L603.9767824489594,183.35160601328334L606.435009646988,238.11540279848103L608.2063792455673,225.90303783741206L608.3991813787461,158.568486663225L608.4473819120407,264.9703498186157L608.8450363117217,168.86777771146308L609.0860389781952,136.22166027940136L609.9656987108231,74.13926320631901L612.9420816417694,353.22502671624204L614.0024933742523,115.6585786130583L615.400308839798,227.44600457643514L615.725662439537,272.31169121333375L616.569171772194,136.59198444850335L617.3885808382034,154.10233291681462L618.9550981702804,115.73721770768066L619.1479003034591,183.57237702561451L624.6668613656998,175.58352167296823L626.1249274978637,195.11166598309705L627.4504421634674,143.70040309441433L629.9327696281433,253.87360106414891L630.1496720279694,245.41833602612357L632.6802000259399,313.32848891773705L636.3313904230117,132.7891853164987L639.9102800201416,240.3854339702905L642.8023120178223,188.0887000840467L643.2240666841508,200.84060214464418L643.8747738836288,286.38114530132697L644.2603781499863,262.92542956502166L645.1279877492905,107.0952933175742L645.4533413490295,261.3901010603548L645.5015418823242,230.93485491677401L646.2607002817155,176.4071490116789L648.3694736133576,242.73262866872176L648.5261253465652,6.8220282566101105L649.4901360124588,289.94937252028853L649.5383365457535,108.5874831577517L649.9721413454056,226.96388443175516L651.0205029445648,214.2880609213084L651.1048538778305,246.37315871971472L651.635059744072,171.86127119417503L652.2737168102265,195.87700838578243L655.6598042741775,103.99417016893318L658.2746832054138,196.5835016646775L658.4433850719452,218.44950987558647L660.2268048038483,184.67727366468267L661.913823469162,226.79918500344834L664.3961509338379,224.47138968431963L664.504602133751,259.9481673303167L665.1432591999054,116.45538533340437L666.7700271986008,261.2346890306402L667.2038319982528,216.36592106056383L668.5895973304748,252.7204880707069L673.1083973268509,263.17801208748426L673.7952549263,79.41841152202369L674.74721545887,220.6826084483211L675.181020258522,162.86356131967875L676.5426853240966,172.79500194516882L676.7354874572754,128.21852663639586L677.6874479898453,202.47774484135522L678.7237594556808,107.03583660696017L687.1468026489258,221.97789675853073L687.6649583818436,181.34049362652752L688.3879663812637,238.10251327800486L688.6289690477371,183.20851931628005L690.0267845132828,253.3487328465092L690.6533914461136,117.82740317964732L691.3763994455338,148.85443192347643L691.8102042451858,139.75056795105172L692.4488613113404,242.45830321777908L692.6537135778427,169.88678761308213L692.8224154443741,142.17232223257417L693.2562202440262,184.7710156317822L693.7261754436493,220.54438244590813L693.8948773101806,187.64112559020526L695.3890938423157,274.5584604896037L696.1723525083542,164.46520358625676L696.4495055747986,101.8930915331971L697.7268197071076,197.46246280341222L698.9920837060928,163.22212434383448L699.5463898389817,206.29434487407175L703.1011791694641,186.47026238169673L706.9813220996857,338.21541881654633L708.644240498352,213.9595300458716L712.1387791622162,115.94909191294914L712.7894863616943,184.0494628794688L713.0907396947861,328.67300735451937L714.6090564935683,225.92248061577342L715.5851172927856,221.12588643533715L716.3201754255294,247.79794982151003L716.5491279586792,189.65870443672864L720.9835770217895,165.6397123157081L721.586083687973,159.80180111740773L722.7067460870743,79.11605027906887L722.899548220253,240.2081488149194L723.2610522199632,273.9125088977937L724.140711952591,244.68554291757L725.5144271514893,196.97817270579012L728.4908100824356,295.25239031835656L728.5149103490829,271.05077495772724L730.7803354139328,253.58200278778696L732.7083567457199,297.06673137232104L734.5761274108887,271.770027559922L735.6967898099899,136.9323198679453L736.3595471427917,278.42188810681114L737.082555142212,127.38213997438555L741.9990095382691,114.81997859904698L742.5774159378051,314.91120919465976L742.6738170043944,259.6031448125198L744.4572367362977,150.31402907046336L745.0235930025101,303.0535013424507L745.8189018018722,193.97634660378043L747.8674244668962,141.72782907191052L748.530181799698,193.85166110772627L749.2652399324418,366.9548397697348L751.1571108642578,285.9031914662958L751.3740132640838,175.2790772751889L753.229733795929,205.69630584322377L754.6757497947693,173.35506679952974L755.928963660431,287.69084209907226L756.326618060112,154.69312430483592L757.0978265928269,229.45742075660291L758.1702884586334,163.3719378949584L758.3510404584885,308.449783717971L761.8937796556472,267.7839976014848L761.9901807222366,274.2406925807598L762.701138588333,235.53294180206524L765.5690703193665,245.17031040483934L765.6534212526321,226.81198772580686L765.7016217859268,262.6212889606542L765.7498223192215,275.40231178973494L767.4488911178588,205.41616491839622L767.9790969841004,210.92988514714395L769.9794191158294,231.91037896143303L770.1601711156845,219.07896982503632L770.4132239154817,228.6136996536482L770.5939759153366,259.4393567644487L772.0158916475295,281.48725043096607L776.6431428438186,235.19447254215353L776.9082457769393,219.0470715167872L777.4384516431809,364.01845944845945L777.7758553762436,241.7224287760477L778.8362671087266,95.26687983008378L780.4027844408035,264.96826666379127L780.9450404403686,170.755246179577L783.4876185716629,223.06903589594583L784.7649327039719,185.6757558114693L784.8010831039428,79.19907267863437L785.1143865703583,366.3616614334772L785.4879407033919,229.92361344668774L787.6449145683288,169.28840138976344L787.7051652349472,257.80416702538554L787.8015663015366,202.63801756566014L789.7536878999709,277.08741044646683L790.3923449661255,235.03051089784705L792.8023716308594,241.71348856992617L794.308638296318,292.89582142321535L796.8753166942597,353.57456273615855L797.2729710939407,247.9943305627718L798.4177337596893,176.69566595486302L799.3214937589646,189.07867601530023L799.490195625496,270.3280070317663L800.5385572246552,214.0253664181355L802.695531089592,197.74299431976934L803.0931854892731,249.30576332287083L805.2501593542099,276.20254703572954L808.8651993513107,215.8170531633843L808.9375001512527,252.85715170700155L811.0944740161895,272.1443444424375L814.4203108135224,206.6385862088095L820.8671321416855,178.38076461159494L821.4816889411927,148.24931884603714L822.6144014736175,220.86952819475522L824.0122169391632,206.75498248462478L824.674974271965,247.44485507876846L825.036478271675,198.06219439755506L825.9763886709213,347.2950227150782L826.3017422706604,267.27384166479266L826.5065945371629,247.99415696653642L829.5311780014038,276.434254610889L829.7239801345825,182.43770863218052L832.5437113323211,258.22926080674665L833.1100675985336,278.6186594396025L834.5681337306977,244.9963669769991L837.0745614620208,89.03217103678753L837.436065461731,244.13654482321388L838.2434243944169,315.7989803423395L842.4489209243775,216.2925766511202L843.5695833234787,175.45579824279508L843.6418841234207,161.49306244049527L843.9069870565414,176.1011856468401L844.9914990556716,274.47457010886137L847.1364227872849,272.1035493271257L848.5944889194488,140.02250645375807L849.498248918724,229.08991752632562L845.9434595882415,234.21946928620065L846.9436206541062,176.5636460178645L847.7991801200867,250.53938157046545L848.9680430524826,246.85332590674682L849.1126446523666,188.24037979470083L849.7513017185212,337.0464651666269L850.9081145175934,72.37522166155287L852.6674339828492,290.2285152667627L858.1984451784134,218.8170565049226L859.1624558443069,221.8092046168104L862.7413454414368,267.0303729446869L863.1148995744705,293.4623093382849L863.2113006410599,216.31952746666133L867.0552931713105,254.10413686471964L868.8628131698608,106.71845928964586L871.2246393013,185.17197953642696L872.8875576999665,370.58178591531015L873.7310670326232,282.68003016419L873.743117165947,276.1759000136003L874.7553283651353,314.3237161351105L876.6592494302749,242.05417118183885L877.9847640958786,292.0194208289523L878.9969752950669,149.83516385519653L880.4791416938782,155.47166002140935L881.8046563594818,303.7711481794683L882.7084163587571,272.1932551817529L883.3350232915877,348.01766044386267L886.7813614221573,233.314338514984L886.901862755394,339.40199248435584L888.9021848871231,162.21899849775173L891.3363118185043,169.11710530451253L892.5413251508713,235.61774356304326L892.6738766174316,196.12086769741774L893.3245838169098,230.2634714764824L895.6261592817307,245.62682510480232L896.1925155479431,194.6576250294881L897.1926766138076,286.70064917252455L898.0964366130829,285.91833773783185L898.4699907461167,260.9670904338181L899.0242968790054,265.60662342030383L899.916006744957,237.4144212000589L900.422112344551,325.4903373743135L901.2174211439133,239.26677982956934L903.6033475419997,202.09435755554168L905.3144664739609,307.6191691307867L908.3149496715546,252.414003917162L911.1587811359406,295.5305348864773L912.5204462015153,265.66594993374133L914.207464866829,343.7115190274041L916.1475363319396,254.88193479729279L916.4849400650024,273.7745432897338L917.0271960645676,204.99115793515278L922.0762019271851,318.0820312318017L922.4859064601899,230.17328823220794L922.955861659813,295.2917532647266L931.993461652565,242.99280602648182L932.0055117858886,255.78125009462457L932.210364052391,218.10357597755387L933.3792269847869,369.1114909003186L933.9937837842941,283.2401384176097L934.9939448501586,242.24864236451154L935.9338552494049,268.3595993189113L940.0188504461288,321.5148099881162L940.7298083122253,303.76055880911076L942.9349827104568,205.65898265261933L942.9470328437806,288.62839196724417L943.1036845769881,350.50685686282617L944.8027533756256,239.81582132298428L946.357220574379,310.22589020109535L946.610273374176,232.4415400426049L948.8515981723785,237.67537974087816L949.5384557718277,247.8785852728392L950.4904163043976,267.25374790054866L951.900281903267,247.07539889084327L958.4435042980194,318.04418725249116L958.4917048313141,216.04806635360225L958.8652589643478,262.83962962569024L959.299063764,221.25964233468937L959.9136205635072,311.59508710851355L960.829430696106,272.81472970437574L963.9504152269363,207.29925008156704L964.9264760261535,178.68733556325748L968.2523128234862,150.25305339278978L968.7584184230805,291.42637268987124L970.1321336219788,254.88666529470657L971.6504504207612,101.73216782300955L971.9637538871765,304.43940688752326L973.3615693527222,240.0594636393254L975.2172898845672,121.27524140938016L975.8920973506927,314.3357810734687L976.5066541501998,279.45929920937937L976.7717570833207,246.75077393070228L977.1694114830017,206.03030500007472L977.4706648160934,169.19596139442916L979.3986861478805,243.71197183055887L980.3385965471267,224.27874126211833L980.6036994802474,301.621115405358L980.6277997468948,389.0084187129606L981.8569133459091,209.75811055839972L981.8930637458802,332.0044927074958L982.3750690788269,287.86244197773505L983.7487842777252,280.232844034186L985.7370562761307,259.3717410307723L987.544576274681,162.45443839197165L988.4483362739563,231.0630557365944L989.1833944067001,343.07255468406777L991.2319170717241,264.0877431589382L992.9068856037139,314.39723414078946L998.0884429328919,292.05696101485097L998.5824983991623,220.09633056241938L998.6427490657807,347.1164789870006L999.2091053319931,129.29182876062677L999.9321133314132,344.96505744300737L1000.2092663978576,249.5787434029894L1001.2576279970168,311.88464562910997L1003.3784514619828,170.96221629119628L1003.4628023952483,192.71187162534886L1011.5484418554305,270.6239886130713L1011.9822466550827,298.51864688589285L1014.8622285194397,169.78605839750898L1015.2357826524734,205.25285425997234L1018.8267223829268,239.7873515403837L1019.0436247827531,265.78833527967686L1020.0076354486465,177.6964482517683L1020.7547437147141,308.06036396297833L1021.5741527807235,227.27917859424505L1024.3577335784912,219.25729655781967L1024.3818338451385,307.2389933753275L1025.9001506439208,248.5058318702881L1026.4183063768387,317.25831709497334L1027.8522722423554,318.0271314223661L1030.4189506402968,231.78525947479045L1031.033507439804,345.5360588601966L1032.7687266384125,328.7303375112502L1033.3350829046249,294.5903810747749L1033.7206871709825,209.15885635390413L1034.7449485034942,226.64715810032348L1036.1427639690398,316.5236144278307L1036.2271149023056,256.5533627504893L1036.3596663688659,260.84431449635304L1038.1551362340927,173.62800348058943L1039.6614028995514,194.29485229662464L1041.1797196983337,182.33086014931058L1042.8185378303526,329.3430888230457L1043.6620471630097,200.7991560434497L1045.0237122285841,280.09800315836264L1046.9396834270476,301.9017771188917L1048.1326466260912,291.85333263076257L1050.4462722242356,353.1077190601911L1050.9523778238295,258.87030830490744L1051.8320375564576,181.8087260723779L1052.5188951559066,206.69444079753964L1058.6644631509782,257.3367157625943L1059.4838722169875,269.07334024063306L1060.41173248291,294.5070114827387L1060.5804343494417,295.91939045370503L1061.0503895490647,285.6575961923068L1061.435993815422,325.6970036925209L1065.0992343458176,180.02814948619277L1066.4126988780977,335.0978040255452L1068.5696727430345,207.6992158078584L1068.8468258094788,260.4078501615752L1071.1604514076232,385.49044760413847L1071.461704740715,371.65111702565696L1073.0402722061158,245.39082102281748L1073.1246231393814,221.6006721390728L1073.4017762058259,233.39388898984208L1073.7994306055068,358.2121861640552L1073.8476311388015,257.88666863624485L1074.63088980484,285.02219057179553L1075.4141484708787,209.44016905332046L1077.655473269081,281.7607079007319L1078.1254284687043,256.07085201427975L1078.318230601883,286.30845187776595L1080.0534498004913,230.64724935382557L1080.3667532669067,215.01234781432888L1080.8126081998826,272.58310892733397L1083.3792865978241,158.10728486490706L1083.8733420640945,283.47210638712227L1084.8253025966644,134.0445464925734L1085.4278092628479,186.4302050503852L1085.6567617959977,262.1826546729343L1085.2591073963165,289.01603236082434L1088.4403425937653,147.54056881608227L1089.8020076593398,293.19340876969756L1090.2237623256683,439.19691311875926L1095.3209687215806,251.3458662809334L1096.8633857870102,160.67538077284598L1098.911908452034,318.4150322102993L1102.2377452493668,301.56239647874423L1103.7078615148546,273.34563039119456L1104.7682732473372,200.2784107364L1105.1779777803422,292.55861073601005L1105.9130359130859,258.7839875768699L1106.129938312912,312.79168595891565L1107.0336983121872,328.93791520969324L1108.8532684440613,278.79091030414787L1109.479875376892,304.85773041570496L1111.1668940422057,298.58995153957085L1114.0950764398576,229.2274057447383L1117.1317100374222,374.2518056267865L1119.071781502533,349.6709909895219L1119.650187902069,245.35236945668314L1121.987913766861,234.09942748944263L1122.3735180332185,296.23616018419557L1122.4699190998078,295.59611086438815L1124.7473942979811,314.1400079190307L1124.9281462978363,295.6573035373559L1125.7234550971984,282.8874776654566L1127.2417718959807,267.2859934012685L1128.266033228493,328.36504763297387L1128.9167404279708,261.7913687584114L1129.8566508272172,202.061504467998L1132.2907777585983,254.12405703272827L1132.6763820249557,198.19733906679022L1133.1222369579314,207.47705602564426L1134.086247623825,243.0770869987537L1135.9058177556992,179.06199963824375L1138.171242820549,226.39010547480007L1138.5447969535828,272.7440326375215L1138.9424513532638,335.2158928646553L1139.7136598859786,337.8483495768575L1140.1836150856018,302.23950859480306L1140.3161665521623,415.87681944133635L1141.0753249515533,225.6470701883597L1143.9191564159394,251.33848844093018L1144.2686102823257,262.83407454615843L1149.5465686780929,296.8732583680017L1151.8360940095902,202.34555130812134L1151.9204449428557,385.2486714473276L1153.4990124082565,266.6222481953332L1153.655664141464,251.62127670834712L1154.209970274353,243.67937913736824L1154.5232737407684,322.7800661496069L1155.1739809402466,328.1732671919494L1156.2464428060532,255.80941608381323L1160.8857441356658,235.10711023670382L1161.572601735115,359.288265828052L1162.849915867424,300.33915060621297L1163.6331745334626,265.34271374348333L1164.1754305330276,218.75534304324873L1165.9950006649017,119.85244666429156L1166.1396022647857,299.7216687970036L1169.3208374622345,291.2178402121336L1169.6943915952684,221.86301944977498L1169.851043328476,278.06562523277404L1172.7069249261856,343.43528401787233L1173.5142838588715,284.7656587349782L1176.3219649232863,228.2576103758465L1177.430577189064,337.147758569965L1178.021033721924,311.2393450231826L1179.3103979875566,195.68709410428815L1182.166279585266,328.41356778075965L1183.407443317604,276.8460248811855L1184.431704650116,211.33779290120347L1184.6245067832947,289.43800140994875L1189.2276577129364,311.846628053564L1189.4325099794387,277.0091185443152L1190.770074778366,183.2159405553421L1190.9990273115159,297.46036083602144L1191.9750881107332,374.97962954310265L1192.7221963768004,361.2740331644439L1195.1563233081818,272.49249169247105L1196.1444342407228,198.92058438239846L1197.7230017061233,367.4562290965408L1203.386564368248,311.1163520904233L1205.242284900093,330.629653922428L1205.4832875665663,276.70771208065486L1207.9656150312424,339.86150171937896L1209.146528096962,285.3334486218131L1209.7128843631745,319.40322878014024L1210.062338229561,272.12932836807806L1211.8698582281113,366.9457042678485L1212.1108608945847,244.86512822305974L1212.1470112945558,198.43321295159856L1212.8941195606233,310.47664996308663L1213.1712726270675,289.7858882656293L1213.2074230270384,275.5913146909935L1215.629499825096,244.50339706760852L1216.5091595577242,350.0404037783883L1217.533420890236,334.58951424838324L1217.8467243566513,248.05222490726754L1219.3650411554336,231.04387335258608L1220.1241995548248,282.947107972306L1225.185255550766,268.679623978815L1225.8962134168623,334.79492199388426L1225.92031368351,367.1973103114872L1226.2938678165435,336.1300506401112L1227.1494272825241,183.83307517208073L1229.9691584802626,389.6541533094763L1231.1380214126586,336.2336875926268L1234.1264544769288,261.14754372048475L1236.5605814083099,297.92429677504646L1239.3080118061066,398.8551660751197L1241.2360331378939,340.052023587697L1245.0800256681443,320.9128650419724L1245.6102315343858,250.30875897177705L1246.9598464666367,336.95120423246783L1247.417751532936,238.63050622788123L1249.9482795309066,285.0440636974521L1251.2376437965393,284.54267437064607L1252.9126123285293,238.63163460341113L1253.2379659282685,376.5112691277679L1254.7683328603744,246.51095073153928L1256.419201125717,220.3257379874602L1257.0940085918426,302.05002830389725L1257.4796128582002,270.9945297774675L1258.3351723241806,247.77217078055767L1258.7810272571564,262.7428931235306L1262.914222987175,245.59796473067215L1263.9866848529816,198.11596583146076L1264.263837919426,358.76448258688333L1264.986845918846,305.7001061478355L1268.2283317829133,232.52933633864302L1269.1923424488068,311.3382514782844L1270.204553647995,290.54307164525227L1270.6865589809418,267.9472648608498L1271.0480629806518,343.33008469923845L1271.8313216466904,283.3347049668273L1272.2169259130478,330.58985698546957L1276.868277375984,350.18930594927645L1278.5311957746505,351.8421591052885L1279.3747051073074,286.3832284561514L1280.2182144399644,267.9498688043804L1281.6642304388047,222.93766694482997L1282.194436305046,345.07142853623003L1282.9174443044662,345.26264478948957L1283.833254437065,379.74740674846754L1284.5201120365143,289.4487643765417L1285.5925739023207,321.077347474985L1286.243281101799,356.4066551190357L1287.2072917676926,274.1961217473287L1288.5328064332962,255.94048124151723L1288.6533077665329,176.6804762842682L1290.3764768318176,319.5964413901065L1291.2561365644453,353.70467311456804L1293.56976216259,334.1240159432399L1294.4132714952468,305.64381756851697L1295.0037280281067,332.58499851857147L1295.2206304279327,244.88665415624556L1295.9918389606476,251.4574018621583L1297.7873088258743,230.43476756173328L1300.6311402902604,265.8027871662714L1301.4143989562988,299.72184239323894L1304.0051776208877,277.24781336794825L1306.8490090852738,292.10322441157695L1307.102061885071,352.53472128629517L1308.1263232175827,364.6919911421638L1308.15042348423,185.73859764867305L1311.4039594816209,320.04093455077015L1312.5728224140166,125.42440843000583L1316.2240128110884,272.72728060080834L1316.6939680107116,373.05943818462157L1318.6942901424409,288.5714090029841L1319.6221504083633,325.88188368318947L1319.8993034748078,301.2914561543913L1321.8514250732421,333.8402294974696L1323.1407893388748,216.63195729126764L1323.5263936052322,259.45155189998343L1323.8517472049714,317.42696583763484L1323.9601984048843,296.5784485612854L1324.815757870865,218.7312565655912L1325.5749162702562,259.70222486385694L1325.7195178701402,330.3824962823207L1326.7196789360046,273.60016587130514L1327.6716394685745,268.5019916309731L1328.8887029342652,210.52592670743908L1329.1297056007386,310.590268699136L1329.8406634668352,299.3326396335405L1330.0455157333374,395.0316438925178L1330.7323733327864,342.5302834438322L1330.864924799347,319.49671035288674L1332.6242442646026,273.00881029551886L1333.1785503974916,414.6617759909263L1335.9741813285827,291.6952298593998L1336.2151839950561,339.7519624948608L1340.517081591606,367.8793482207246L1340.6014325248718,314.9682355579787L1342.6258549232482,289.47128848808086L1343.035559456253,284.18003183495915L1343.4211637226106,258.2589457629948L1344.0718709220887,310.26777029287825L1345.156382921219,277.39428519154126L1347.5061589193344,336.80442861546294L1347.8797130523683,273.9185413669728L1348.54247038517,347.51779008411614L1348.9642250514983,207.5069145781278L1349.0847263847352,333.3595849207902L1351.4345023828507,384.0783073279957L1352.7720671817779,205.3148715150581L1354.51933651371,400.498037447598L1355.1820938465119,319.8331832560917L1357.7367221111297,433.74254110297846L1359.4478410430909,425.3993541344135L1360.3636511756897,211.4093145501757L1362.1832213075638,305.2189841815089L1364.328145039177,276.1422223439386L1365.0270527719497,359.99363073141717L1369.4856021017074,361.13480898367754L1370.7388159673692,313.95152580647823L1370.9075178339006,329.31887214821165L1371.1364703670502,235.878832301039L1371.6305258333205,363.3965075361893L1371.799227699852,297.11269097563513L1371.979979699707,422.4895123376203L1372.1366314329148,327.7516453352957L1372.606586632538,224.5888275375471L1373.0885919654845,390.3013634739927L1373.1970431653976,402.3948584128924L1373.8839007648469,342.74046508580585L1374.173103964615,220.2706211827304L1376.2216266296386,288.0589963152322L1376.245726896286,292.11897826993675L1378.2821994279861,221.34149295966608L1380.4030228929519,386.9513033238318L1381.5116351587294,324.13954166784447L1382.0659412916184,265.5264653586219L1382.3792447580338,263.60523242272865L1382.5479466245652,321.26179347506513L1384.8736223560334,345.86550111586905L1385.2712767557146,330.3742938601995L1387.6331028871537,275.62664152489117L1388.3199604866027,370.89434593709296L1389.802126885414,364.5314797230352L1391.9229503503798,309.77770812043013L1392.392905550003,299.0754134117817" fill="none"></path></g></g></g></g></g></g><g transform="translate(49, 378)" clip-path="url(#clip_1)"><clipPath id="clip_1"><rect width="1446" height="21"></rect></clipPath><g><g><line x1="0" y1="0" x2="0" y2="5" style="visibility: inherit;" fill="rgb(0, 0, 0)" stroke="rgb(204, 204, 204)" stroke-width="1px"></line><line x1="120.50133323669434" y1="0" x2="120.50133323669434" y2="5" style="visibility: inherit;" fill="rgb(0, 0, 0)" stroke="rgb(204, 204, 204)" stroke-width="1px"></line><line x1="241.00266647338867" y1="0" x2="241.00266647338867" y2="5" style="visibility: inherit;" fill="rgb(0, 0, 0)" stroke="rgb(204, 204, 204)" stroke-width="1px"></line><line x1="361.503999710083" y1="0" x2="361.503999710083" y2="5" style="visibility: inherit;" fill="rgb(0, 0, 0)" stroke="rgb(204, 204, 204)" stroke-width="1px"></line><line x1="482.00533294677734" y1="0" x2="482.00533294677734" y2="5" style="visibility: inherit;" fill="rgb(0, 0, 0)" stroke="rgb(204, 204, 204)" stroke-width="1px"></line><line x1="602.5066661834717" y1="0" x2="602.5066661834717" y2="5" style="visibility: inherit;" fill="rgb(0, 0, 0)" stroke="rgb(204, 204, 204)" stroke-width="1px"></line><line x1="723.007999420166" y1="0" x2="723.007999420166" y2="5" style="visibility: inherit;" fill="rgb(0, 0, 0)" stroke="rgb(204, 204, 204)" stroke-width="1px"></line><line x1="843.5093326568604" y1="0" x2="843.5093326568604" y2="5" style="visibility: inherit;" fill="rgb(0, 0, 0)" stroke="rgb(204, 204, 204)" stroke-width="1px"></line><line x1="964.0106658935547" y1="0" x2="964.0106658935547" y2="5" style="visibility: inherit;" fill="rgb(0, 0, 0)" stroke="rgb(204, 204, 204)" stroke-width="1px"></line><line x1="1084.511999130249" y1="0" x2="1084.511999130249" y2="5" style="visibility: inherit;" fill="rgb(0, 0, 0)" stroke="rgb(204, 204, 204)" stroke-width="1px"></line><line x1="1205.0133323669434" y1="0" x2="1205.0133323669434" y2="5" style="visibility: inherit;" fill="rgb(0, 0, 0)" stroke="rgb(204, 204, 204)" stroke-width="1px"></line><line x1="1325.5146656036377" y1="0" x2="1325.5146656036377" y2="5" style="visibility: inherit;" fill="rgb(0, 0, 0)" stroke="rgb(204, 204, 204)" stroke-width="1px"></line><line x1="1446.015998840332" y1="0" x2="1446.015998840332" y2="5" style="visibility: inherit;" fill="rgb(0, 0, 0)" stroke="rgb(204, 204, 204)" stroke-width="1px"></line></g><g transform="translate(0, 8)"><text style="text-anchor: middle; visibility: hidden; font-family: &quot;Helvetica Neue&quot;, sans-serif; font-size: 12px; font-weight: 200;" x="0" y="0" dx="0em" dy="0.95em" fill="rgb(50, 49, 63)" stroke="none" stroke-width="1px">-10k</text><text style="text-anchor: middle; visibility: hidden; font-family: &quot;Helvetica Neue&quot;, sans-serif; font-size: 12px; font-weight: 200;" x="120.50133323669434" y="0" dx="0em" dy="0.95em" fill="rgb(50, 49, 63)" stroke="none" stroke-width="1px">0</text><text style="text-anchor: middle; visibility: hidden; font-family: &quot;Helvetica Neue&quot;, sans-serif; font-size: 12px; font-weight: 200;" x="241.00266647338867" y="0" dx="0em" dy="0.95em" fill="rgb(50, 49, 63)" stroke="none" stroke-width="1px">10k</text><text style="text-anchor: middle; visibility: hidden; font-family: &quot;Helvetica Neue&quot;, sans-serif; font-size: 12px; font-weight: 200;" x="361.503999710083" y="0" dx="0em" dy="0.95em" fill="rgb(50, 49, 63)" stroke="none" stroke-width="1px">20k</text><text style="text-anchor: middle; visibility: hidden; font-family: &quot;Helvetica Neue&quot;, sans-serif; font-size: 12px; font-weight: 200;" x="482.00533294677734" y="0" dx="0em" dy="0.95em" fill="rgb(50, 49, 63)" stroke="none" stroke-width="1px">30k</text><text style="text-anchor: middle; visibility: hidden; font-family: &quot;Helvetica Neue&quot;, sans-serif; font-size: 12px; font-weight: 200;" x="602.5066661834717" y="0" dx="0em" dy="0.95em" fill="rgb(50, 49, 63)" stroke="none" stroke-width="1px">40k</text><text style="text-anchor: middle; visibility: hidden; font-family: &quot;Helvetica Neue&quot;, sans-serif; font-size: 12px; font-weight: 200;" x="723.007999420166" y="0" dx="0em" dy="0.95em" fill="rgb(50, 49, 63)" stroke="none" stroke-width="1px">50k</text><text style="text-anchor: middle; visibility: hidden; font-family: &quot;Helvetica Neue&quot;, sans-serif; font-size: 12px; font-weight: 200;" x="843.5093326568604" y="0" dx="0em" dy="0.95em" fill="rgb(50, 49, 63)" stroke="none" stroke-width="1px">60k</text><text style="text-anchor: middle; visibility: hidden; font-family: &quot;Helvetica Neue&quot;, sans-serif; font-size: 12px; font-weight: 200;" x="964.0106658935547" y="0" dx="0em" dy="0.95em" fill="rgb(50, 49, 63)" stroke="none" stroke-width="1px">70k</text><text style="text-anchor: middle; visibility: hidden; font-family: &quot;Helvetica Neue&quot;, sans-serif; font-size: 12px; font-weight: 200;" x="1084.511999130249" y="0" dx="0em" dy="0.95em" fill="rgb(50, 49, 63)" stroke="none" stroke-width="1px">80k</text><text style="text-anchor: middle; visibility: hidden; font-family: &quot;Helvetica Neue&quot;, sans-serif; font-size: 12px; font-weight: 200;" x="1205.0133323669434" y="0" dx="0em" dy="0.95em" fill="rgb(50, 49, 63)" stroke="none" stroke-width="1px">90k</text><text style="text-anchor: middle; visibility: hidden; font-family: &quot;Helvetica Neue&quot;, sans-serif; font-size: 12px; font-weight: 200;" x="1325.5146656036377" y="0" dx="0em" dy="0.95em" fill="rgb(50, 49, 63)" stroke="none" stroke-width="1px">100k</text><text style="text-anchor: middle; visibility: hidden; font-family: &quot;Helvetica Neue&quot;, sans-serif; font-size: 12px; font-weight: 200;" x="1446.015998840332" y="0" dx="0em" dy="0.95em" fill="rgb(50, 49, 63)" stroke="none" stroke-width="1px">110k</text></g><line x1="0" y1="0" x2="1446.015998840332" y2="0" fill="rgb(0, 0, 0)" stroke="rgb(204, 204, 204)" stroke-width="1px"></line></g></g></g></g></svg>