<svg viewBox="0 0 1496 400" xmlns="http://www.w3.org/2000/svg"><g><g><g><g><g><line x1="49.98400115966797" y1="378.6199998855591" x2="44.98400115966797" y2="378.6199998855591" style="visibility: inherit;" fill="rgb(0, 0, 0)" stroke="rgb(204, 204, 204)" stroke-width="1px"></line><line x1="49.98400115966797" y1="344.19999989596283" x2="44.98400115966797" y2="344.19999989596283" style="visibility: inherit;" fill="rgb(0, 0, 0)" stroke="rgb(204, 204, 204)" stroke-width="1px"></line><line x1="49.98400115966797" y1="309.7799999063665" x2="44.98400115966797" y2="309.7799999063665" style="visibility: inherit;" fill="rgb(0, 0, 0)" stroke="rgb(204, 204, 204)" stroke-width="1px"></line><line x1="49.98400115966797" y1="275.3599999167702" x2="44.98400115966797" y2="275.3599999167702" style="visibility: inherit;" fill="rgb(0, 0, 0)" stroke="rgb(204, 204, 204)" stroke-width="1px"></line><line x1="49.98400115966797" y1="240.93999992717397" x2="44.98400115966797" y2="240.93999992717397" style="visibility: inherit;" fill="rgb(0, 0, 0)" stroke="rgb(204, 204, 204)" stroke-width="1px"></line><line x1="49.98400115966797" y1="206.5199999375777" x2="44.98400115966797" y2="206.5199999375777" style="visibility: inherit;" fill="rgb(0, 0, 0)" stroke="rgb(204, 204, 204)" stroke-width="1px"></line><line x1="49.98400115966797" y1="172.09999994798142" x2="44.98400115966797" y2="172.09999994798142" style="visibility: inherit;" fill="rgb(0, 0, 0)" stroke="rgb(204, 204, 204)" stroke-width="1px"></line><line x1="49.98400115966797" y1="137.67999995838517" x2="44.98400115966797" y2="137.67999995838517" style="visibility: inherit;" fill="rgb(0, 0, 0)" stroke="rgb(204, 204, 204)" stroke-width="1px"></line><line x1="49.98400115966797" y1="103.25999996878886" x2="44.98400115966797" y2="103.25999996878886" style="visibility: inherit;" fill="rgb(0, 0, 0)" stroke="rgb(204, 204, 204)" stroke-width="1px"></line><line x1="49.98400115966797" y1="68.83999997919256" x2="44.98400115966797" y2="68.83999997919256" style="visibility: inherit;" fill="rgb(0, 0, 0)" stroke="rgb(204, 204, 204)" stroke-width="1px"></line><line x1="49.98400115966797" y1="34.419999989596306" x2="44.98400115966797" y2="34.419999989596306" style="visibility: inherit;" fill="rgb(0, 0, 0)" stroke="rgb(204, 204, 204)" stroke-width="1px"></line><line x1="49.98400115966797" y1="0" x2="44.98400115966797" y2="0" style="visibility: inherit;" fill="rgb(0, 0, 0)" stroke="rgb(204, 204, 204)" stroke-width="1px"></line></g><g transform="translate(39.98400115966797, 0)"><text style="text-anchor: end; visibility: hidden; font-family: &quot;Helvetica Neue&quot;, sans-serif; font-size: 12px; font-weight: 200;" x="0" y="378.6199998855591" dx="0em" dy="0.3em" fill="rgb(50, 49, 63)" stroke="none" stroke-width="1px">-0.2</text><text style="text-anchor: end; visibility: inherit; font-family: &quot;Helvetica Neue&quot;, sans-serif; font-size: 12px; font-weight: 200;" x="0" y="344.19999989596283" dx="0em" dy="0.3em" fill="rgb(50, 49, 63)" stroke="none" stroke-width="1px">0</text><text style="text-anchor: end; visibility: inherit; font-family: &quot;Helvetica Neue&quot;, sans-serif; font-size: 12px; font-weight: 200;" x="0" y="309.7799999063665" dx="0em" dy="0.3em" fill="rgb(50, 49, 63)" stroke="none" stroke-width="1px">0.2</text><text style="text-anchor: end; visibility: inherit; font-family: &quot;Helvetica Neue&quot;, sans-serif; font-size: 12px; font-weight: 200;" x="0" y="275.3599999167702" dx="0em" dy="0.3em" fill="rgb(50, 49, 63)" stroke="none" stroke-width="1px">0.4</text><text style="text-anchor: end; visibility: inherit; font-family: &quot;Helvetica Neue&quot;, sans-serif; font-size: 12px; font-weight: 200;" x="0" y="240.93999992717397" dx="0em" dy="0.3em" fill="rgb(50, 49, 63)" stroke="none" stroke-width="1px">0.6</text><text style="text-anchor: end; visibility: inherit; font-family: &quot;Helvetica Neue&quot;, sans-serif; font-size: 12px; font-weight: 200;" x="0" y="206.5199999375777" dx="0em" dy="0.3em" fill="rgb(50, 49, 63)" stroke="none" stroke-width="1px">0.8</text><text style="text-anchor: end; visibility: inherit; font-family: &quot;Helvetica Neue&quot;, sans-serif; font-size: 12px; font-weight: 200;" x="0" y="172.09999994798142" dx="0em" dy="0.3em" fill="rgb(50, 49, 63)" stroke="none" stroke-width="1px">1</text><text style="text-anchor: end; visibility: inherit; font-family: &quot;Helvetica Neue&quot;, sans-serif; font-size: 12px; font-weight: 200;" x="0" y="137.67999995838517" dx="0em" dy="0.3em" fill="rgb(50, 49, 63)" stroke="none" stroke-width="1px">1.2</text><text style="text-anchor: end; visibility: inherit; font-family: &quot;Helvetica Neue&quot;, sans-serif; font-size: 12px; font-weight: 200;" x="0" y="103.25999996878886" dx="0em" dy="0.3em" fill="rgb(50, 49, 63)" stroke="none" stroke-width="1px">1.4</text><text style="text-anchor: end; visibility: inherit; font-family: &quot;Helvetica Neue&quot;, sans-serif; font-size: 12px; font-weight: 200;" x="0" y="68.83999997919256" dx="0em" dy="0.3em" fill="rgb(50, 49, 63)" stroke="none" stroke-width="1px">1.6</text><text style="text-anchor: end; visibility: inherit; font-family: &quot;Helvetica Neue&quot;, sans-serif; font-size: 12px; font-weight: 200;" x="0" y="34.419999989596306" dx="0em" dy="0.3em" fill="rgb(50, 49, 63)" stroke="none" stroke-width="1px">1.8</text><text style="text-anchor: end; visibility: hidden; font-family: &quot;Helvetica Neue&quot;, sans-serif; font-size: 12px; font-weight: 200;" x="0" y="0" dx="0em" dy="0.3em" fill="rgb(50, 49, 63)" stroke="none" stroke-width="1px">2</text></g><line x1="49.98400115966797" y1="0" x2="49.98400115966797" y2="378.6199998855591" fill="rgb(0, 0, 0)" stroke="rgb(204, 204, 204)" stroke-width="1px"></line></g></g><g transform="translate(49, 0)" clip-path="url(#clip_0)"><clipPath id="clip_0"><rect width="1446" height="378"></rect></clipPath><g><g><g><line x1="0" y1="0" x2="0" y2="378.6199998855591" fill="rgb(0, 0, 0)" stroke="rgb(60, 60, 60)" stroke-width="1px" opacity="0.25"></line><line x1="120.50133323669434" y1="0" x2="120.50133323669434" y2="378.6199998855591" fill="rgb(0, 0, 0)" stroke="rgb(60, 60, 60)" stroke-width="1px" opacity="0.25"></line><line x1="241.00266647338867" y1="0" x2="241.00266647338867" y2="378.6199998855591" fill="rgb(0, 0, 0)" stroke="rgb(60, 60, 60)" stroke-width="1px" opacity="0.25"></line><line x1="361.503999710083" y1="0" x2="361.503999710083" y2="378.6199998855591" fill="rgb(0, 0, 0)" stroke="rgb(60, 60, 60)" stroke-width="1px" opacity="0.25"></line><line x1="482.00533294677734" y1="0" x2="482.00533294677734" y2="378.6199998855591" fill="rgb(0, 0, 0)" stroke="rgb(60, 60, 60)" stroke-width="1px" opacity="0.25"></line><line x1="602.5066661834717" y1="0" x2="602.5066661834717" y2="378.6199998855591" fill="rgb(0, 0, 0)" stroke="rgb(60, 60, 60)" stroke-width="1px" opacity="0.25"></line><line x1="723.007999420166" y1="0" x2="723.007999420166" y2="378.6199998855591" fill="rgb(0, 0, 0)" stroke="rgb(60, 60, 60)" stroke-width="1px" opacity="0.25"></line><line x1="843.5093326568604" y1="0" x2="843.5093326568604" y2="378.6199998855591" fill="rgb(0, 0, 0)" stroke="rgb(60, 60, 60)" stroke-width="1px" opacity="0.25"></line><line x1="964.0106658935547" y1="0" x2="964.0106658935547" y2="378.6199998855591" fill="rgb(0, 0, 0)" stroke="rgb(60, 60, 60)" stroke-width="1px" opacity="0.25"></line><line x1="1084.511999130249" y1="0" x2="1084.511999130249" y2="378.6199998855591" fill="rgb(0, 0, 0)" stroke="rgb(60, 60, 60)" stroke-width="1px" opacity="0.25"></line><line x1="1205.0133323669434" y1="0" x2="1205.0133323669434" y2="378.6199998855591" fill="rgb(0, 0, 0)" stroke="rgb(60, 60, 60)" stroke-width="1px" opacity="0.25"></line><line x1="1325.5146656036377" y1="0" x2="1325.5146656036377" y2="378.6199998855591" fill="rgb(0, 0, 0)" stroke="rgb(60, 60, 60)" stroke-width="1px" opacity="0.25"></line><line x1="1446.015998840332" y1="0" x2="1446.015998840332" y2="378.6199998855591" fill="rgb(0, 0, 0)" stroke="rgb(60, 60, 60)" stroke-width="1px" opacity="0.25"></line></g><g><line x1="0" y1="378.6199998855591" x2="1446.015998840332" y2="378.6199998855591" fill="rgb(0, 0, 0)" stroke="rgb(60, 60, 60)" stroke-width="1px" opacity="0.25"></line><line x1="0" y1="344.19999989596283" x2="1446.015998840332" y2="344.19999989596283" fill="rgb(0, 0, 0)" stroke="rgb(60, 60, 60)" stroke-width="1px" opacity="0.25"></line><line x1="0" y1="309.7799999063665" x2="1446.015998840332" y2="309.7799999063665" fill="rgb(0, 0, 0)" stroke="rgb(60, 60, 60)" stroke-width="1px" opacity="0.25"></line><line x1="0" y1="275.3599999167702" x2="1446.015998840332" y2="275.3599999167702" fill="rgb(0, 0, 0)" stroke="rgb(60, 60, 60)" stroke-width="1px" opacity="0.25"></line><line x1="0" y1="240.93999992717397" x2="1446.015998840332" y2="240.93999992717397" fill="rgb(0, 0, 0)" stroke="rgb(60, 60, 60)" stroke-width="1px" opacity="0.25"></line><line x1="0" y1="206.5199999375777" x2="1446.015998840332" y2="206.5199999375777" fill="rgb(0, 0, 0)" stroke="rgb(60, 60, 60)" stroke-width="1px" opacity="0.25"></line><line x1="0" y1="172.09999994798142" x2="1446.015998840332" y2="172.09999994798142" fill="rgb(0, 0, 0)" stroke="rgb(60, 60, 60)" stroke-width="1px" opacity="0.25"></line><line x1="0" y1="137.67999995838517" x2="1446.015998840332" y2="137.67999995838517" fill="rgb(0, 0, 0)" stroke="rgb(60, 60, 60)" stroke-width="1px" opacity="0.25"></line><line x1="0" y1="103.25999996878886" x2="1446.015998840332" y2="103.25999996878886" fill="rgb(0, 0, 0)" stroke="rgb(60, 60, 60)" stroke-width="1px" opacity="0.25"></line><line x1="0" y1="68.83999997919256" x2="1446.015998840332" y2="68.83999997919256" fill="rgb(0, 0, 0)" stroke="rgb(60, 60, 60)" stroke-width="1px" opacity="0.25"></line><line x1="0" y1="34.419999989596306" x2="1446.015998840332" y2="34.419999989596306" fill="rgb(0, 0, 0)" stroke="rgb(60, 60, 60)" stroke-width="1px" opacity="0.25"></line><line x1="0" y1="0" x2="1446.015998840332" y2="0" fill="rgb(0, 0, 0)" stroke="rgb(60, 60, 60)" stroke-width="1px" opacity="0.25"></line></g></g></g><g><g><line x1="0" y1="344.19999989596283" x2="1446.015998840332" y2="344.19999989596283" fill="rgb(0, 0, 0)" stroke="rgb(153, 153, 153)" stroke-width="1.5px"></line></g></g><g><g><line x1="120.50133323669434" y1="0" x2="120.50133323669434" y2="378.6199998855591" fill="rgb(0, 0, 0)" stroke="rgb(153, 153, 153)" stroke-width="1.5px"></line></g></g><g><g><g><g><g><path style="fill: none;" stroke="rgb(255, 112, 67)" stroke-width="2px" d="M140.87810868701933,-22.728850078651874L141.39626441993713,19.648531234418556L141.43241481990813,16.405469610120974L143.11943348522186,15.912830366812443L143.60143881816865,20.128852518083704L145.0354046836853,12.064289696961396L146.9995764154434,2.9359433590415165L148.3009908143997,17.578336749556343L149.28910174694062,27.680032520866916L149.85545801315305,46.03493582299848L150.4459145460129,24.452724425595306L150.45796467933656,38.64478299781638L150.60256627922058,22.157839241484282L152.85594121074678,28.540115880037206L153.5186985435486,5.4655287646123725L157.10963827400207,28.411309885577396L159.4232638721466,52.1359826090046L159.6160660053253,42.38077539282773L160.32702387142183,39.957313660569355L164.09871560173036,43.56000028569798L164.1228158683777,45.6323762154305L164.72532253456114,51.7904147252321L165.5808820005417,55.48927536075911L166.46054173316958,41.41087720258224L166.54489266643523,45.60482011158723L167.83425693206786,57.17733911400654L168.17166066513062,52.9044530793297L169.13567133102416,36.87495048810115L172.52175879497528,48.65764174144249L173.52191986083983,50.34572585232269L174.63053212661742,37.52188574444591L174.83538439311982,42.759126332693825L176.8477566581726,39.65763136159052L178.1973715904236,41.07214183530169L180.40254598865508,52.37408620307866L182.0293139873505,54.1283849730425L182.3667177204132,63.16284654252411L184.90929585170744,30.414091632908253L185.07799771823883,47.11526353330078L187.367523049736,60.09758725617411L189.4642462480545,49.47300070150936L190.48850758056642,57.64023559693459L191.1633150466919,60.02967427321448L191.2476659799576,62.40619165903331L191.68147077960967,58.59412543614775L192.68163184547424,62.8380299522658L195.21215984344482,73.54219128205995L195.44111237659453,82.21382363070927L196.2846217092514,71.73061059888516L199.7189097064972,57.8927942170086L201.22517637195585,70.84246253194112L201.3697779718399,74.46080992222562L203.09294703712462,76.21790559292589L204.44256196937562,84.39345175051784L206.72003716754912,71.3293950282021L209.4554174320221,88.72767468271081L210.3953278312683,82.02546107839066L210.4314782312393,80.94031375921804L211.00988463077545,86.2168733523348L214.34777156143187,73.6723094066852L214.4682728946686,73.10465273465604L214.89002756099703,63.73728427051333L216.7939486261368,65.03295172810715L217.69770862541196,83.56662546218138L219.0714238243103,57.872474283150325L219.56547929058078,65.29973691622388L221.2765982225418,81.93198041768068L221.44530008907319,80.63712343129475L222.9033662212372,81.37651617336161L223.02386755447387,95.37912250427695L224.14452995357513,96.496533978444L227.48241688423155,81.50790226011816L228.1692744836807,73.609559335092L228.86818221645356,73.76648063109434L232.0855678138733,74.82218990025694L234.59199554519654,75.86711555318283L235.62830701103212,87.70523271713876L235.78495874423982,97.97405394228969L237.3635262096405,102.542786176763L239.11079554157257,104.62157470816845L239.8820040742874,75.86003296715512L244.32850327072143,91.11110635060282L244.41285420398714,79.2675891769569L245.81066966953279,59.60296286055882L246.77468033542632,64.54958357006069L247.29283606834414,81.99017439959056L248.317097400856,97.06548983722939L250.12461739940642,95.27837248916478L250.40177046585083,110.00816843030123L251.8718867313385,93.19441836678072L251.9080371313095,108.5413694270519L252.64309526405333,99.96647301384115L252.7394963306427,95.1151918201839L253.29380246353148,88.92204844162865L254.28191339607238,91.60822050372411L258.10180565967556,88.80997777273268L258.74046272583007,108.1982710403525L259.46347072525026,112.83075597520826L259.873175258255,105.63054908223518L261.30714112377166,106.77849993888572L262.1988509897232,90.87610442414604L264.7293789876938,84.63385662465049L264.78962965431214,77.87893755706892L267.07915498580934,86.48527632151013L268.5974717845917,98.95547936682289L273.18857258090975,119.09547990379241L275.6709000455856,131.91308844776017L276.4180083116532,140.92235117887523L277.5627709774017,128.10475889877415L277.88812457714084,126.67338876193776L281.9972200405121,100.1919895925488L283.7324392391205,108.79987920948764L284.3469960386276,109.03135516292008L284.62414910507204,114.26058483820776L286.9136744365692,117.17028926275003L290.16721043395995,133.1055449919524L291.8662792325974,120.28305149505451L292.7459389652252,126.25780207209044L293.2761448314667,119.87244112524405L294.5896093637466,112.0750050854499L296.89118482856753,117.75649155948571L297.2526888282776,101.38797214159649L297.4816413614273,110.17479877488091L298.5902536272049,116.60992577466453L298.95175762691497,127.92415623100999L299.7229661596298,128.70176009653883L299.95191869277954,134.95024172658563L305.15757628860473,124.84002338153229L306.95304615383145,119.43539945151747L307.36275068683625,135.0539842119912L310.1704317512512,127.23112107734826L310.45963495101927,141.98688805396495L314.70128188095094,131.2137535593591L316.30394961299896,140.6499068276688L317.1715592123031,138.62224886307658L321.70240934200285,142.23991849001794L323.0520242742538,141.82766457505366L323.63043067379,131.32019458868103L324.1365362733841,121.26285867991618L326.1489085384369,115.72721553160892L326.52246267147063,119.56979971511282L328.8722386695862,127.95134471495572L329.1734920026779,125.77076450917016L329.4385949357986,133.92363594155486L331.89682213382724,122.92716662420088L332.06552400035855,127.71436435220849L332.414977866745,137.0601775072438L332.51137893333436,137.60496854911113L338.18699172878263,145.51627469144745L342.83834319171905,134.61351557304673L350.85168185195926,142.29841878300894L351.4903389181137,120.0258178122582L352.719452517128,130.8594211095179L355.852487181282,136.68689893833493L357.165951713562,138.9459392754111L357.3346535800934,123.39092051535329L358.2625138460159,128.08666986470504L359.64827917823794,126.42963042575704L361.44374904346466,135.79447677897912L362.1426567762375,159.90802166217696L362.25110797615054,151.44256424987208L362.33545890941616,158.51575475128482L363.6127730417252,150.48570883264443L363.7091741083145,156.49902774711182L364.564733574295,150.66264721239352L365.97459917316434,148.94569561431254L367.16756237220767,145.90666333843657L367.17961250553134,142.7762814736875L367.6375175718307,155.9983511888893L370.0595943698883,138.0249771391526L370.0957447698593,152.74640031341013L370.68620130271916,159.40911316065248L370.9754045024872,153.6301998486985L373.6866845003128,157.61297796839753L374.4578930330277,128.64050971118473L375.24115169906617,140.4088198342426L375.51830476551055,147.54268665775774L376.5666663646698,153.2138383268401L377.434275963974,147.15005769723967L379.02489356269837,150.6778520156777L382.94118689289087,164.46206288780556L387.7250898223877,167.00906661141306L388.2914460886002,157.544724703316L388.74935115489956,149.19191058442783L389.08675488796234,156.65724068976039L390.46047008686065,164.60959914991653L394.89491914997103,162.0225983790256L398.48585888042453,168.13144818377904L398.6063602136612,171.2507679215897L399.13656607990265,180.22458512776814L399.44986954631804,159.9984519944411L399.9921255458832,165.04294196341618L400.2692786123276,165.42983626965764L401.17303861160275,154.9638075257493L401.968347410965,158.92714840237636L403.3300124765396,149.6113008267465L404.89652980861666,137.85873643892444L405.029081275177,138.68395654618286L405.2700839416504,158.74029495495193L408.12596553936004,158.15747269980474L409.8250343379974,162.26548637375802L410.64444340400695,145.6404619823528L412.27121140270236,143.5481885293617L412.2953116693497,161.91576320142602L412.75321673564906,147.9997545172716L413.0303698020935,158.06112246148098L416.35620659942623,159.67879381861763L417.5371196651459,165.72556013310484L417.63352073173525,168.8175964100726L419.73024393005375,143.19244258469828L420.12789832973476,155.14077089641117L421.0196081956864,132.27532453791042L421.4895633953094,147.35429286961545L423.97189085998536,152.64193480937297L424.92385139255526,151.89288569611537L425.6348092586517,159.0405747895166L429.1895985891342,169.3524650305409L430.70791538791656,157.51422271289903L431.129670054245,156.5660365272255L432.0213799201966,164.7585422807673L433.76864925212857,136.19083131458805L434.06990258522035,141.91458888324306L434.8411111179352,163.39208514871865L436.62453084983827,166.78706544337413L437.8295441822052,160.06848319205827L438.6369031148911,164.55513297771697L442.5772967117309,136.73990246610606L442.5893468450546,163.00936642677175L442.9629009780884,162.42898305960597L446.7345927083969,172.32898785657483L446.87919430828094,168.7109770743532L446.9273948415756,180.15266321946652L446.9394449748993,192.0880406081079L448.32521030712127,192.08504667459601L451.1087911048889,194.10920959818208L452.28970417060856,178.56542275284966L452.49455643711093,165.425512164709L452.7114588369369,154.5355405746962L454.9648337684631,171.5253069841532L456.0613959009171,179.0982992444837L456.4711004339218,179.8462475244596L456.6880028337479,160.9464207169672L460.94169989700316,169.3212474935248L462.3515654958725,174.88073095687318L462.50821722908023,171.9625453234241L463.61682949485777,163.5110446175678L463.9662833612442,177.8935845205867L464.4362385608673,154.17246713096694L468.7622364240646,160.8221297311206L469.07553989048006,157.51162483560992L469.5695953567505,156.8619668287391L469.87084868984226,155.27049722029227L471.5458172218323,165.1805916148506L472.29292548789977,166.58493264054692L474.799353219223,175.93438909818104L474.99215535240177,170.25683638029452L475.88386521835326,174.8692470126494L476.48637188453677,177.2017025736933L479.11330094909664,179.55988068917796L481.2341244140625,185.57062416310535L481.5474278804779,189.14896754199157L482.2824860132218,174.8685450879414L483.27059694576263,171.99995850488662L484.1020561450958,156.19083700822551L485.1142673442841,142.19012224071352L486.70488494300844,154.60498859810448L486.8374364095688,156.59962011748812L488.54855534152983,161.0560912917362L489.68126787395477,163.34969913315686L489.84996974048613,168.39921446670556L498.11636120052333,178.63869347628577L498.56221613349913,169.57914958055318L501.6108998643875,156.34338583282783L502.9605147966385,162.8267931355958L503.743773462677,170.36057957204815L503.82812439594267,169.25443458076182L504.5029318620682,183.73641942589455L504.6113830619812,172.31709672153653L505.32234092807767,167.68499725031998L505.4789926612854,175.67339031196653L507.3708635931015,171.50016954508575L507.7685179927826,169.23037295582003L510.5159483905792,179.4729387300611L511.8053126562118,174.24160524367582L513.1910779884338,181.4057107893327L513.7815345212937,167.24777461478286L514.4563419874191,171.73196574788864L516.0469595861435,180.481939087L516.1433606527328,177.62052789123553L517.7339782514572,180.43332111505373L519.1558939836502,155.67470992841297L519.4812475833893,171.66535011571256L519.5053478500366,169.80222551020378L520.5898598491668,163.42803286118112L521.4333691818237,163.294183335868L521.8430737148285,179.19407558976513L522.1804774478912,187.84192545453044L526.0967707780839,176.62591391085314L526.2052219779969,153.43805949015547L526.3498235778809,166.51852680413396L526.5787761110305,185.75213270196573L526.783628377533,190.68219852919233L527.4343355770111,184.07797346676543L527.5789371768951,171.68895154392442L527.8801905099868,178.0395522915787L528.3260454429627,160.27237728431382L529.5792593086243,157.7838171057091L529.808211841774,161.66048474028565L531.0734758407593,173.10692726048975L533.7365553052902,182.31401782569242L533.9896081050873,164.88058982445548L534.6523654378891,166.95725292386993L535.7007270370483,168.087811812034L536.5924369029999,179.02713465728056L538.809661434555,174.86654064546383L545.4372347625732,167.0071507498138L545.6902875623704,172.38878729334243L545.7866886289597,182.23894552704394L545.9674406288146,179.14851407275705L547.2447547611237,184.63256544681863L548.3292667602539,175.2259239503406L550.7151931583405,172.72641391550934L550.7995440916062,182.82220257866297L551.6551035575867,186.6248409035604L552.9083174232484,190.3680518058101L553.1131696897506,185.0100895326247L553.9205286224366,193.78837663537962L556.4390064870834,194.08902762568366L556.7884603534699,182.79081093116028L561.0542075500489,176.57179316193478L561.4157115497588,187.99990668862745L562.7171259487152,189.79412719169426L563.343732881546,193.02469145146324L563.7172870145797,180.91265382996897L564.404144614029,185.1301358768235L567.5612795448303,191.42738060840574L567.9589339445114,199.18335376985283L571.0076176753997,189.99603722592013L571.4173222084046,194.79035248519648L574.7311088724136,185.71932403725683L576.0807238046646,179.6093487514554L579.8885659349442,178.79387404998008L582.8649488658905,166.89089020405288L583.0577509990692,154.79596625770432L583.1903024656295,169.54795608471227L585.3111259305954,162.22942195464597L586.0100336633682,163.03967773197678L586.2510363298416,176.4317309528133L587.6970523286819,184.52072690192722L589.3961211273194,172.56277749971986L589.6853243270874,183.3351284002654L592.4809552581787,190.19672830395203L593.1919131242752,195.942020302671L598.0842672536851,198.27649413390682L598.4216709867477,199.77055868831923L599.0362277862549,204.6394865574155L600.2050907186508,210.82909478278347L600.5786448516845,199.79870492347627L600.6388955183029,201.69408900010393L601.9162096506119,201.03813787943048L603.9767824489594,195.44188613922486L606.435009646988,199.7351120462954L608.2063792455673,202.45707990002575L608.3991813787461,195.17796497782703L608.4473819120407,193.61578530645863L608.8450363117217,192.76757403547867L609.0860389781952,184.93141562236872L609.9656987108231,179.89591426728785L612.9420816417694,193.20094769450944L615.400308839798,189.7886181635084L615.725662439537,183.0577726609459L616.569171772194,186.73840439897583L617.3885808382034,185.12709686801242L618.9550981702804,193.30491383478375L619.1479003034591,192.22724182450142L624.6668613656998,191.28921409602026L626.1249274978637,202.17367693974353L627.4504421634674,188.65019590961117L629.9327696281433,198.66695198877224L630.1496720279694,210.25719191817058L632.6802000259399,214.4865100271001L636.3313904230117,199.43574222134055L639.9102800201416,207.09308575017928L642.8023120178223,198.8119228472883L643.2240666841508,191.8465830697192L643.8747738836288,194.19233585193948L644.2603781499863,190.9768042529775L645.1279877492905,184.20783751083005L645.4533413490295,193.37748529357364L645.5015418823242,190.42792178433967L646.2607002817155,193.34873817700765L648.3694736133576,206.76796627602704L648.5261253465652,188.91972316070016L649.4901360124588,193.51282556711803L649.5383365457535,178.9069061462557L649.9721413454056,188.20880264844936L651.0205029445648,183.25479881548884L651.1048538778305,184.26583704957696L651.635059744072,187.8231414848045L652.2737168102265,181.99985882890357L655.6598042741775,175.0863451404035L658.2746832054138,188.81030613529185L658.4433850719452,190.70121400369254L660.2268048038483,194.73861761295848L661.913823469162,193.91227788147833L664.3961509338379,207.94526503188928L664.504602133751,195.35068383529307L665.1432591999054,197.2878037062511L666.7700271986008,198.62197851182688L667.2038319982528,195.50443530065343L668.5895973304748,186.89096698554562L673.1083973268509,195.6886011836239L673.7952549263,191.6485518849407L674.74721545887,190.6348357971258L675.181020258522,189.78894563873703L676.5426853240966,191.86354097131002L676.7354874572754,191.24093104209237L677.6874479898453,200.3203905824789L678.7237594556808,181.35104973875457L687.1468026489258,200.28538339569715L687.6649583818436,200.24482389434564L688.3879663812637,199.53544935773942L688.6289690477371,204.459153490627L690.0267845132828,203.0863061073944L690.6533914461136,198.9506185443731L691.3763994455338,198.89676850248873L691.8102042451858,190.64085761543336L692.4488613113404,190.07906353472302L692.6537135778427,192.9090253567667L692.8224154443741,174.39501064768768L693.2562202440262,187.7707669921851L693.7261754436493,202.85336858575187L693.8948773101806,201.60890729721206L695.3890938423157,200.75394340187134L696.1723525083542,196.53089094145204L696.4495055747986,200.05719925295006L697.7268197071076,195.57157707154846L698.9920837060928,172.96874144744444L699.5463898389817,181.5456448741442L703.1011791694641,196.70293979064064L706.9813220996857,200.47611110707604L708.644240498352,193.5301758932246L712.1387791622162,191.16423247734375L712.7894863616943,197.65229341908125L713.0907396947861,205.89278962312179L714.6090564935683,205.8322864170357L715.5851172927856,200.4040563848911L716.3201754255294,199.99037030356484L716.5491279586792,205.72327522677182L720.9835770217895,214.71494993932902L721.586083687973,214.4263272227477L722.7067460870743,187.4868919970569L722.899548220253,189.58645657605103L723.2610522199632,191.08121337881542L724.140711952591,185.14650040635993L725.5144271514893,196.7083543242674L728.4908100824356,206.4844841273474L728.5149103490829,213.68477176049336L730.7803354139328,210.02688209694657L732.7083567457199,218.5036716544148L734.5761274108887,216.13547506644187L735.6967898099899,201.65912093081369L736.3595471427917,201.80672447955797L737.082555142212,191.37299604601745L741.9990095382691,192.86596676009611L742.5774159378051,210.559091994097L742.6738170043944,201.2695364993398L744.4572367362977,209.86877430377712L745.0235930025101,214.56436179401385L745.8189018018722,218.30269029247802L747.8674244668962,206.25403580362166L748.530181799698,205.31282448505522L749.2652399324418,219.42650717529563L751.1571108642578,220.94092820111047L751.3740132640838,217.24090124684068L753.229733795929,208.38096542334696L754.6757497947693,195.93011722314768L755.928963660431,210.53014949222657L756.326618060112,201.8769135488786L757.0978265928269,203.07401477325897L758.1702884586334,211.75118819278316L758.3510404584885,219.69880468549496L761.9901807222366,221.7912124916294L762.701138588333,219.91260439896698L765.5690703193665,219.59227318227062L765.6534212526321,219.00719050547593L765.7016217859268,208.317566285615L765.7498223192215,217.03240665877462L767.4488911178588,209.2570537106786L767.9790969841004,210.98841407438238L769.9794191158294,198.0149932081597L770.1601711156845,205.01652122604455L770.4132239154817,214.0770724275681L770.5939759153366,207.4705670629881L772.0158916475295,214.03199486618232L776.6431428438186,205.39498142231412L776.9082457769393,198.37001712333486L777.4384516431809,215.88728043972995L777.7758553762436,211.04988068703267L778.8362671087266,205.08649448385765L780.4027844408035,213.7531467654194L780.9450404403686,214.1457536853739L783.4876185716629,211.89482131328737L784.7649327039719,204.32337577588794L784.8010831039428,196.87128552723408L785.1143865703583,210.2670085350025L785.4879407033919,207.86717384725858L787.6449145683288,205.21413393490414L787.7051652349472,201.01290669753163L787.8015663015366,200.57002260362557L789.7536878999709,208.1255512238974L790.3923449661255,217.71500835958958L792.8023716308594,196.526414978517L794.308638296318,209.19161454065238L796.8753166942597,211.94538717294134L797.2729710939407,205.27986130752132L798.4177337596893,208.06621462901077L799.3214937589646,209.05189633923294L799.490195625496,216.67261715370788L800.5385572246552,216.97844429509541L802.695531089592,209.38022798824773L803.0931854892731,209.58351070327194L805.2501593542099,219.6769718186829L808.8651993513107,204.85023127832193L808.9375001512527,218.0272187758371L811.0944740161895,216.3181458911479L814.4203108135224,200.6071121074002L820.8671321416855,191.85736123411036L821.4816889411927,203.22516689312482L822.6144014736175,184.8354215957065L824.0122169391632,195.01096812431902L824.674974271965,195.74275019617167L825.036478271675,196.2159702375937L825.9763886709213,202.31812654295302L826.3017422706604,207.60200382224878L826.5065945371629,208.53031776603484L829.5311780014038,217.7270477864754L829.7239801345825,216.98855943058223L832.5437113323211,218.94024037166764L833.1100675985336,212.7129624528831L834.5681337306977,213.52372751519462L837.0745614620208,213.03583633410312L837.436065461731,222.98365117956197L838.2434243944169,212.71813873437955L842.4489209243775,211.5604809506643L843.5695833234787,204.65004708229415L843.6418841234207,208.15963829475507L843.9069870565414,207.8552116126475L844.9914990556716,206.35348460892772L847.1364227872849,214.98903524158183L848.5944889194488,211.68981518676406L849.498248918724,223.36777128126846L845.9434595882415,223.61790612222617L846.9436206541062,222.1406397343926L847.7991801200867,206.7841357176621L848.9680430524826,203.0274799981549L849.1126446523666,206.599433038765L849.7513017185212,222.6887601733612L850.9081145175934,204.50129459863484L852.6674339828492,200.62338732370193L858.1984451784134,210.1760574420366L859.1624558443069,214.2585243149427L862.7413454414368,217.6886735601322L863.1148995744705,226.63597578979494L863.2113006410599,207.32892615055385L867.0552931713105,211.5941011478517L868.8628131698608,193.70226954171315L871.2246393013,202.76904506182896L872.8875576999665,222.50669106234503L873.7310670326232,228.24896049967307L873.743117165947,229.34619730344662L874.7553283651353,220.30238088034247L876.6592494302749,203.2882323673773L877.9847640958786,205.67627116602327L878.9969752950669,204.14352659980904L880.4791416938782,211.26663700162382L881.8046563594818,221.0171620955419L882.7084163587571,214.39152950618472L883.3350232915877,218.47932453642937L886.7813614221573,211.55899634605595L886.901862755394,225.23027463472704L888.9021848871231,217.3941435953711L891.3363118185043,215.13232470937004L892.5413251508713,219.53216019630747L892.6738766174316,198.0922322511346L893.3245838169098,205.75322121375848L895.6261592817307,200.31108833608914L896.1925155479431,211.13762694266867L897.1926766138076,216.35153496456314L898.0964366130829,211.90701103227755L898.4699907461167,209.03539188304353L899.0242968790054,211.7272901822459L899.916006744957,207.53407714135193L900.422112344551,221.33839443240797L901.2174211439133,217.11821054600819L903.6033475419997,220.3927863419832L905.3144664739609,221.90972675836326L908.3149496715546,225.2747191601058L911.1587811359406,229.53100836363586L912.5204462015153,214.75650351631953L914.207464866829,226.87219152699566L916.1475363319396,228.94436408724582L916.4849400650024,228.8906840670405L917.0271960645676,220.47362007181022L922.0762019271851,226.76509854727388L922.4859064601899,224.2265193835639L922.955861659813,221.51130263416093L931.993461652565,217.9289955740965L932.0055117858886,215.0717998324772L932.210364052391,223.64228477831026L933.3792269847869,231.74676667098973L933.9937837842941,228.59564662637575L934.9939448501586,226.73611776423266L935.9338552494049,227.94816120464318L940.0188504461288,218.37550567782168L940.7298083122253,217.94250305884262L942.9349827104568,210.87753842074073L942.9470328437806,220.91992454416553L943.1036845769881,232.05347941661614L944.8027533756256,234.26795334294692L946.357220574379,232.08983529826267L946.610273374176,229.6595045556769L948.8515981723785,227.49561595054107L949.5384557718277,229.9648507213107L950.4904163043976,230.56931143915543L951.900281903267,218.72362935209082L958.4435042980194,228.76443845700027L958.4917048313141,224.52305361894122L958.8652589643478,225.00629025631295L959.299063764,226.23465908352605L959.9136205635072,224.45366319826485L960.829430696106,228.26104714194125L963.9504152269363,226.44914197671997L964.9264760261535,223.02518649654914L968.2523128234862,214.43792920868938L968.7584184230805,216.84271607810078L970.1321336219788,219.49885449815184L971.6504504207612,209.97552743219714L971.9637538871765,213.3782105125883L973.3615693527222,212.2272520810911L975.2172898845672,196.13724788675646L975.8920973506927,181.34913670910217L976.5066541501998,188.48207994134776L976.7717570833207,205.50711009469626L977.1694114830017,209.7760240815996L977.4706648160934,189.54840484261396L979.3986861478805,206.50425130781656L980.3385965471267,219.35146757255117L980.6036994802474,228.64057348829326L980.6277997468948,230.31138408863129L981.8569133459091,234.9744560728993L981.8930637458802,241.0784600819913L982.3750690788269,237.35615754220694L983.7487842777252,222.43206363222626L985.7370562761307,226.38988338821568L987.544576274681,226.5676239819067L988.4483362739563,234.0897184391629L989.1833944067001,241.32467843939605L991.2319170717241,237.00394844277966L992.9068856037139,232.06214232151174L998.0884429328919,229.14543518510567L998.5824983991623,218.12802574752436L998.6427490657807,231.28476625339349L999.2091053319931,216.7559946304649L999.9321133314132,227.50346804809072L1000.2092663978576,228.39064866835943L1001.2576279970168,225.49535429268585L1003.3784514619828,217.446652224205L1003.4628023952483,223.24229703634725L1011.5484418554305,227.5320732733245L1011.9822466550827,227.53573754305162L1014.8622285194397,224.52810311324393L1015.2357826524734,223.83142309837314L1018.8267223829268,221.52451445239495L1019.0436247827531,227.41114521018122L1020.0076354486465,224.11223363605674L1020.7547437147141,230.9693308713071L1021.5741527807235,220.7668302431862L1024.3577335784912,222.37212954993322L1024.3818338451385,222.75035105291278L1025.9001506439208,225.437249292664L1026.4183063768387,218.95589522796325L1027.8522722423554,207.4688276458897L1030.4189506402968,217.58366003614609L1031.033507439804,225.8770759186022L1032.7687266384125,236.86322280687023L1033.3350829046249,230.4800694921079L1033.7206871709825,227.37395449678326L1034.7449485034942,220.95344145008153L1036.1427639690398,230.85308114245146L1036.2271149023056,222.02576105665912L1036.3596663688659,230.54434142789933L1038.1551362340927,211.84264637323415L1039.6614028995514,205.3757052262013L1041.1797196983337,214.39530192953697L1042.8185378303526,228.91971404824838L1043.6620471630097,219.19814127518964L1045.0237122285841,218.2774881591479L1046.9396834270476,220.20290227040996L1048.1326466260912,224.86354164244156L1050.4462722242356,242.10260273770123L1050.9523778238295,238.09483009486203L1051.8320375564576,224.03916395540247L1052.5188951559066,217.77156005745286L1058.6644631509782,218.41336920973833L1059.4838722169875,222.384604468855L1060.41173248291,190.46850444435395L1060.5804343494417,208.6536722944596L1061.0503895490647,211.86158714335645L1061.435993815422,208.29424922898377L1065.0992343458176,215.4843673243837L1066.4126988780977,226.23114295024433L1068.5696727430345,221.29364893484248L1068.8468258094788,226.2608054072111L1071.1604514076232,238.8622363297698L1071.461704740715,234.5144657317455L1073.0402722061158,224.45159870141694L1073.1246231393814,222.30592880552967L1073.4017762058259,212.28387857380443L1073.7994306055068,225.18746208156696L1073.8476311388015,220.2170216243855L1074.63088980484,226.94846221450354L1075.4141484708787,231.00713673969565L1077.655473269081,234.34495160869008L1078.1254284687043,224.0526966289262L1078.318230601883,228.0160029364234L1080.0534498004913,228.50364586637144L1080.3667532669067,229.972224601604L1080.8126081998826,223.80530440150307L1083.3792865978241,215.36861340300277L1083.8733420640945,226.1122267173686L1084.8253025966644,197.9155302912769L1085.4278092628479,206.62681464106717L1085.6567617959977,211.5021926981949L1085.2591073963165,220.25413740333L1088.4403425937653,216.67178151351254L1089.8020076593398,228.4056461021423L1090.2237623256683,232.06767827291773L1095.3209687215806,231.33465403884264L1096.8633857870102,227.34584816264777L1098.911908452034,231.09918312529211L1102.2377452493668,227.3842522370828L1103.7078615148546,225.89623841847944L1104.7682732473372,228.07745742865345L1105.1779777803422,234.92764106210586L1105.9130359130859,234.07280453738304L1106.129938312912,234.02182673902115L1107.0336983121872,238.00687827671635L1108.8532684440613,224.77537355094117L1109.479875376892,226.15656536960324L1111.1668940422057,212.49102596908395L1114.0950764398576,214.80567163492444L1117.1317100374222,224.14190332075714L1119.071781502533,233.1110800968372L1119.650187902069,232.71436792349388L1121.987913766861,236.40055990235933L1122.3735180332185,232.69782294398254L1122.4699190998078,236.8713249935745L1124.7473942979811,242.06204732818853L1124.9281462978363,241.82188182631495L1125.7234550971984,246.49712365160656L1127.2417718959807,238.49421605525083L1128.266033228493,244.01818263018063L1128.9167404279708,239.66854160281892L1129.8566508272172,235.5907240092646L1132.2907777585983,231.1771436026332L1132.6763820249557,226.16288214249258L1133.1222369579314,228.85237550138788L1134.086247623825,229.65505263040404L1135.9058177556992,225.2945656275314L1138.171242820549,220.86414920932273L1138.5447969535828,218.52692014506277L1138.9424513532638,229.37210611312514L1139.7136598859786,231.79906922240988L1140.1836150856018,226.33899442455152L1140.3161665521623,226.32602283186034L1141.0753249515533,218.62468829051267L1143.9191564159394,226.91409566307445L1144.2686102823257,231.12033804350085L1149.5465686780929,235.8946100018191L1151.8360940095902,235.81716991565625L1151.9204449428557,245.1386764660236L1153.4990124082565,242.80747091587392L1153.655664141464,221.2160612629996L1154.209970274353,221.2395487283652L1154.5232737407684,214.57063402414542L1155.1739809402466,230.5637467176724L1156.2464428060532,234.00805971538202L1160.8857441356658,234.71550482709787L1161.572601735115,240.20142137742266L1162.849915867424,245.31626203658914L1163.6331745334626,243.60814143963646L1164.1754305330276,238.78230123192853L1165.9950006649017,234.93608943356472L1166.1396022647857,230.28102120401843L1169.3208374622345,232.35081514040445L1169.6943915952684,230.90135173607038L1169.851043328476,219.17422277283194L1172.7069249261856,224.58099781651242L1173.5142838588715,236.5629485488885L1176.3219649232863,237.79333604543598L1177.430577189064,236.8283738994281L1178.021033721924,235.70505594664752L1179.3103979875566,237.48392379869608L1182.166279585266,225.08462007761716L1183.407443317604,219.6495169617574L1184.431704650116,209.67218750136468L1184.6245067832947,229.28762531858467L1189.2276577129364,222.15314300234712L1189.4325099794387,227.69996438138557L1190.770074778366,226.09099984392975L1190.9990273115159,226.94541593787702L1191.9750881107332,233.64435366305423L1192.7221963768004,236.49172392504832L1195.1563233081818,229.3305071460219L1196.1444342407228,231.5087815684549L1197.7230017061233,233.11151191262888L1203.386564368248,225.8401119345948L1205.242284900093,227.3381652360457L1205.4832875665663,234.13524589000303L1207.9656150312424,240.61566217410737L1209.146528096962,237.62014829003445L1209.7128843631745,230.55401556981818L1210.062338229561,234.93028322931937L1211.8698582281113,237.27286670203597L1212.1108608945847,232.6187365544958L1212.1470112945558,238.6149333805363L1212.8941195606233,244.83671954482548L1213.1712726270675,245.93375008456593L1213.2074230270384,239.60580980351577L1215.629499825096,220.51705015944717L1216.5091595577242,227.4431442905846L1217.533420890236,234.88459338368753L1217.8467243566513,230.60339948817756L1219.3650411554336,227.6360383341166L1220.1241995548248,235.85368124282593L1225.185255550766,241.41896386247822L1225.8962134168623,243.85706197429494L1225.92031368351,249.2353387951232L1226.2938678165435,252.04368166921032L1227.1494272825241,239.97524631438844L1229.9691584802626,252.3856060953209L1231.1380214126586,255.85978212605164L1234.1264544769288,243.51668536952891L1236.5605814083099,246.53060803889858L1239.3080118061066,252.71874920824263L1241.2360331378939,250.022645543275L1245.0800256681443,255.01410654962746L1245.6102315343858,247.9168888388147L1246.9598464666367,247.50227713330347L1247.417751532936,223.75158558087222L1249.9482795309066,232.65041832927938L1251.2376437965393,233.52121137166495L1252.9126123285293,224.24585065315992L1253.2379659282685,225.75781785515255L1254.7683328603744,230.41180400044914L1256.419201125717,229.03044538848118L1257.0940085918426,224.9676444048455L1257.4796128582002,235.07101667685552L1258.3351723241806,228.87965318387143L1258.7810272571564,233.53521503893535L1262.914222987175,240.68760222904817L1263.9866848529816,223.67440183814486L1264.263837919426,235.78050571623538L1264.986845918846,242.09737480664342L1268.2283317829133,238.06070609258438L1269.1923424488068,238.5310390860683L1270.204553647995,245.71286544505276L1270.6865589809418,232.57681190839747L1271.0480629806518,240.054570054856L1271.8313216466904,237.4210317376193L1272.2169259130478,227.8899808579492L1276.868277375984,235.37004507026793L1278.5311957746505,245.6775778135343L1279.3747051073074,247.69470094037757L1280.2182144399644,241.63494154736824L1281.6642304388047,234.96405526854008L1282.194436305046,232.49027949462416L1283.833254437065,237.21234615167822L1284.5201120365143,237.41636037527826L1285.5925739023207,234.50213802475506L1286.243281101799,235.6240196287942L1287.2072917676926,235.20133592751688L1288.5328064332962,231.0141511649402L1288.6533077665329,234.3608625438778L1290.3764768318176,235.1506048791159L1291.2561365644453,246.72069008212642L1293.56976216259,240.9020531222337L1294.4132714952468,244.92482207632446L1295.0037280281067,240.21554111055787L1295.2206304279327,244.3926956887713L1295.9918389606476,232.14103463423663L1297.7873088258743,234.60644555508253L1300.6311402902604,237.52839613146892L1301.4143989562988,239.30637432622362L1304.0051776208877,228.7680281804068L1306.8490090852738,235.8774900237306L1307.102061885071,243.69206819543228L1308.1263232175827,244.50113587513485L1308.15042348423,237.3248286744316L1311.4039594816209,235.05263966265247L1312.5728224140166,235.52288315028684L1316.2240128110884,234.94579794754156L1316.6939680107116,236.32826737590898L1318.6942901424409,228.41800868770883L1319.6221504083633,237.81268433780502L1319.8993034748078,231.61872669423397L1321.8514250732421,231.142829161231L1323.1407893388748,239.02207236436794L1323.5263936052322,237.90414065930915L1323.8517472049714,238.54985531541843L1323.9601984048843,230.2510656926345L1324.815757870865,225.67968120869682L1325.5749162702562,230.71305663742848L1325.7195178701402,237.35159347261043L1326.7196789360046,228.07892092860214L1327.6716394685745,231.13416564473596L1328.8887029342652,232.18558211366775L1329.1297056007386,232.66329297129226L1329.8406634668352,235.73134465115635L1330.0455157333374,244.24564294030657L1330.7323733327864,232.93219732540715L1330.864924799347,236.85509721740544L1332.6242442646026,243.51501360393954L1333.1785503974916,249.55667749769395L1335.9741813285827,245.89775944262982L1336.2151839950561,236.52607154129532L1340.517081591606,247.1313002785626L1340.6014325248718,245.44541686939277L1342.6258549232482,243.37057547863503L1343.035559456253,239.9802964039536L1343.4211637226106,240.6928083644806L1344.0718709220887,248.2273806095162L1345.156382921219,246.9942355455627L1347.5061589193344,242.2226381197488L1347.8797130523683,242.43447836414055L1348.54247038517,252.01019093139112L1348.9642250514983,251.3891862753797L1349.0847263847352,241.59715074917688L1351.4345023828507,248.38917571172703L1352.7720671817779,243.72632033982083L1354.51933651371,251.81275745394436L1355.1820938465119,254.9229987627093L1357.7367221111297,255.00108685781584L1359.4478410430909,255.07763855882678L1360.3636511756897,243.5049821772635L1362.1832213075638,250.03769219108835L1364.328145039177,247.67805198691048L1365.0270527719497,249.3463602754665L1369.4856021017074,240.56430068206475L1370.7388159673692,247.70029625147683L1370.9075178339006,232.90223894462656L1371.1364703670502,239.0745964915063L1371.6305258333205,248.3741381703856L1371.799227699852,244.8404664047453L1371.979979699707,251.00983929872328L1372.1366314329148,250.3530038164949L1372.606586632538,243.49048364721986L1373.0885919654845,245.34061326223866L1373.1970431653976,251.72856294118037L1373.8839007648469,241.24184105890006L1374.173103964615,237.73320262301885L1376.2216266296386,238.4935681999215L1376.245726896286,243.80362003504015L1378.2821994279861,242.02467981221454L1380.4030228929519,240.9957296847408L1381.5116351587294,242.68216597924905L1382.0659412916184,239.2859159108394L1382.3792447580338,243.8894067458914L1382.5479466245652,245.89759457514958L1384.8736223560334,245.2650687661798L1385.2712767557146,252.61734243585153L1387.6331028871537,251.03417675798912L1388.3199604866027,256.8110285766173L1389.802126885414,261.9638189971565L1391.9229503503798,257.0524672361405L1393.127963682747,250.5033480741973L1394.369127415085,247.3488161686818L1398.3938719451903,245.88060010608902L1399.9965396772384,251.35668380660826L1405.081695939827,254.03887058716077" fill="none"></path></g></g></g></g><g opacity="0.2"><g><g><g><path style="fill: none;" stroke="rgb(255, 112, 67)" stroke-width="2px" d="M126.21309643211366,-119.92793656538959L126.96020469818116,4.909869669383852L127.47836043109895,-8.011876580677722L130.23784096221925,-55.942068607587544L132.72016842689513,7.856509528169568L136.56416095714567,-47.10409804350928L136.61236149044038,-63.18693705079414L137.1907678899765,60.21709368792989L137.27511882324217,-59.351157790364425L137.80532468948363,9.9278787463698L140.87810868701933,-40.08904892186558L141.39626441993713,83.21227912771866L141.43241481990813,11.540983887998777L143.11943348522186,15.173881228152084L143.60143881816865,26.452835802188872L145.0354046836853,-0.03249721526117355L146.9995764154434,-10.756537219611005L148.3009908143997,39.5418893694569L149.28910174694062,42.8325606693503L149.85545801315305,73.56727386873587L150.4459145460129,-7.920580742349273L150.45796467933656,59.932866149907L150.60256627922058,-2.5725731126639175L152.85594121074678,38.113530075950905L153.5186985435486,-29.14635025573955L157.10963827400207,62.82998058088941L159.4232638721466,87.7229910823794L159.6160660053253,27.747964719491506L160.32702387142183,36.32212108467871L164.09871560173036,48.964030203324626L164.1228158683777,48.740940103103696L164.72532253456114,61.027472477586684L165.5808820005417,61.03756630959964L166.46054173316958,20.29327997547938L166.54489266643523,51.895734473278196L167.83425693206786,74.53611761462832L168.17166066513062,46.49512402798064L169.13567133102416,12.830696602757882L172.52175879497528,66.33167862079318L173.52191986083983,52.877852018586054L174.63053212661742,18.28612558288995L174.83538439311982,50.614987215002145L176.8477566581726,35.005388904958124L178.1973715904236,43.19390754586232L180.40254598865508,69.3270027547145L182.0293139873505,56.75983312798553L182.3667177204132,76.71453889673813L184.90929585170744,-18.70904073149711L185.07799771823883,72.16702138388382L187.367523049736,79.57107284048152L189.4642462480545,33.53612086951358L190.48850758056642,69.89108794007177L191.1633150466919,63.613832287634125L191.2476659799576,65.97096773776167L191.68147077960967,52.87602610181949L192.68163184547424,69.20388672644282L195.21215984344482,89.59843327675122L195.44111237659453,95.22127215368323L196.2846217092514,56.00579105114895L199.7189097064972,37.13606964419375L201.22517637195585,90.26696500433997L201.3697779718399,79.88833100765243L203.09294703712462,78.85354909897626L204.44256196937562,96.65677098690566L206.72003716754912,51.733309944728546L209.4554174320221,114.8250941644738L210.3953278312683,71.97214067191044L210.4314782312393,79.31259278045906L211.00988463077545,94.13171274201L214.34777156143187,54.85546348821077L214.4682728946686,72.25316772661216L214.89002756099703,49.686231574299256L216.7939486261368,66.97645291449783L217.69770862541196,111.36713606329278L219.0714238243103,19.331247514603774L219.56547929058078,76.44063086583412L221.2765982225418,106.8803456698659L221.44530008907319,78.6948379517159L222.9033662212372,82.48560528646186L223.02386755447387,116.38303200064996L224.14452995357513,98.17265118969453L227.48241688423155,59.02495468262924L228.1692744836807,61.762044947552795L228.86818221645356,74.0018625750979L232.0855678138733,76.40575380400082L234.59199554519654,77.43450403257168L235.62830701103212,105.4624084630725L235.78495874423982,113.37728578001611L237.3635262096405,109.39588452847295L239.11079554157257,107.7397575052766L239.8820040742874,32.717720355635095L244.32850327072143,113.9877164257743L244.41285420398714,61.50231341648811L245.81066966953279,30.10602338596169L246.77468033542632,71.96951463431355L247.29283606834414,108.15106064388522L248.317097400856,119.67846299368767L250.12461739940642,92.5976964670678L250.40177046585083,132.102862342006L251.8718867313385,67.97379327150003L251.9080371313095,131.56179601745868L252.64309526405333,87.10412839402505L252.7394963306427,87.83827002969792L253.29380246353148,79.6323333737958L254.28191339607238,95.6374785968672L258.10180565967556,84.61261367624553L258.74046272583007,137.2807109417822L259.46347072525026,119.779483377492L259.873175258255,94.8302387427754L261.30714112377166,108.50042622386155L262.1988509897232,67.02251115203654L264.7293789876938,75.27048492540717L264.78962965431214,67.74655895569646L267.07915498580934,99.39478446817185L268.5974717845917,117.66078393479211L273.18857258090975,149.30548070924672L275.6709000455856,151.13950126371174L276.4180083116532,154.43624527554792L277.5627709774017,108.87837047862251L277.88812457714084,124.52633355668314L281.9972200405121,60.469890838465346L283.7324392391205,121.71171363489594L284.3469960386276,109.37856909306862L284.62414910507204,122.10442935113923L286.9136744365692,121.53484589956355L290.16721043395995,157.008428585756L291.8662792325974,101.04931124970761L292.7459389652252,135.21992793764434L293.2761448314667,110.29439970497441L294.5896093637466,100.37885102575865L296.89118482856753,126.27872127053948L297.2526888282776,76.83519301476275L297.4816413614273,123.35503872480754L298.5902536272049,126.26261627433996L298.95175762691497,144.89550191552806L299.7229661596298,129.8681658948322L299.95191869277954,144.32296417165585L305.15757628860473,109.67469586395231L306.95304615383145,111.32846355649525L307.36275068683625,158.48186135270186L310.1704317512512,115.49682637538376L310.45963495101927,164.12053851888996L314.70128188095094,115.05405181745027L316.30394961299896,154.8041367301334L317.1715592123031,135.5807619161882L321.70240934200285,147.66642293042997L323.0520242742538,141.20928370260722L323.63043067379,115.55898960912197L324.1365362733841,106.17685481676892L326.1489085384369,107.42375080914792L326.52246267147063,125.33367599036859L328.8722386695862,140.52366221472013L329.1734920026779,122.49989420049178L329.4385949357986,146.152943090132L331.89682213382724,106.43246264816975L332.06552400035855,134.89516094421984L332.414977866745,151.07889723979665L332.51137893333436,138.42215511191222L338.18699172878263,157.38323390495194L342.83834319171905,118.25937689544566L350.85168185195926,153.82577359795226L351.4903389181137,86.61691635613215L352.719452517128,147.10982605540747L355.852487181282,145.42811568156048L357.165951713562,142.33449978102536L357.3346535800934,100.05839237526652L358.2625138460159,135.1302938887327L359.64827917823794,123.94407126733506L361.44374904346466,149.84174630881225L362.1426567762375,196.07833898697362L362.25110797615054,138.74437813141472L362.33545890941616,169.12554050340395L363.6127730417252,138.44063995468386L363.7091741083145,165.51900611881288L364.564733574295,141.9080764103161L365.97459917316434,146.3702682171911L367.16756237220767,141.3481149246226L367.17961250553134,138.08070867656392L367.6375175718307,175.83145576169196L370.0595943698883,111.06491606454762L370.0957447698593,174.82853507479646L370.68620130271916,169.40318243151597L370.9754045024872,144.9618298807676L373.6866845003128,163.58714514794602L374.4578930330277,85.18180732536553L375.24115169906617,158.06128501882935L375.51830476551055,158.24348689303042L376.5666663646698,161.7205658304636L377.434275963974,138.05438675283906L379.02489356269837,155.96954349333473L382.94118689289087,185.1383791959974L387.7250898223877,170.82957219682427L388.2914460886002,143.34821184117047L388.74935115489956,136.66268940609558L389.08675488796234,167.85523584775913L390.46047008686065,176.53813684015077L394.89491914997103,158.14209722268907L398.48585888042453,177.29472289090936L398.6063602136612,175.92974752830577L399.13656607990265,193.68531093703587L399.44986954631804,129.65925229445054L399.9921255458832,172.6096769168787L400.2692786123276,166.01017772901983L401.17303861160275,139.2647644098867L401.968347410965,164.87215971731698L403.3300124765396,135.63752946330166L404.89652980861666,120.22988985719138L405.029081275177,139.92178670707048L405.2700839416504,188.82480256810553L408.12596553936004,157.28323931708394L409.8250343379974,168.42750688468792L410.64444340400695,120.70292539524496L412.27121140270236,140.40977834987495L412.2953116693497,189.46712520952246L412.75321673564906,127.12574149103997L413.0303698020935,173.153174377795L416.35620659942623,162.1053008543227L417.5371196651459,174.7957096048357L417.63352073173525,173.45565082552426L419.73024393005375,104.75471184663678L420.12789832973476,173.06326336398055L421.0196081956864,97.97715500015937L421.4895633953094,169.97274536717296L423.97189085998536,160.57339771900922L424.92385139255526,150.76931202622902L425.6348092586517,169.76210842961837L429.1895985891342,184.82030039207743L430.70791538791656,139.7568592364363L431.129670054245,155.1437572487151L432.0213799201966,177.04730091107996L433.76864925212857,93.33926486531931L434.06990258522035,150.5002252362255L434.8411111179352,195.60832954693205L436.62453084983827,171.87953588535734L437.8295441822052,149.99060981508438L438.6369031148911,171.28510765620504L442.5772967117309,95.01705669868971L442.5893468450546,202.41356236777017L442.9629009780884,161.55840800885736L446.7345927083969,187.1789950520281L446.87919430828094,163.28396090102072L446.9273948415756,197.31519243713652L446.9394449748993,209.99110669106994L448.32521030712127,192.08055577432816L451.1087911048889,197.1454539835612L452.28970417060856,155.24974248485097L452.49455643711093,145.7156462824982L452.7114588369369,138.2005831896769L454.9648337684631,197.0099565983387L456.0613959009171,190.45778763497947L456.4711004339218,180.96816994442355L456.6880028337479,132.5966805057285L460.94169989700316,181.88348765836125L462.3515654958725,183.2199561518957L462.50821722908023,167.58526687325045L463.61682949485777,150.83379355878324L463.9662833612442,199.46739437511513L464.4362385608673,118.59079104653722L468.7622364240646,170.79662363135114L469.07553989048006,152.54586749234397L469.5695953567505,155.88747981843278L469.87084868984226,152.88329280762207L471.5458172218323,180.04573320668817L472.29292548789977,168.69144417909132L474.799353219223,189.95857378463216L474.99215535240177,161.7405073034648L475.88386521835326,181.78786296118173L476.48637188453677,180.70038591525915L479.11330094909664,183.09714786240494L481.2341244140625,194.58673937399635L481.5474278804779,194.51648261032094L482.2824860132218,153.4479114068662L483.27059694576263,167.69707863030436L484.1020561450958,132.4771547632338L485.1142673442841,121.1890500894454L486.70488494300844,173.22728813419081L486.8374364095688,159.59156739656353L488.54855534152983,167.7407980531084L489.68126787395477,166.790110895288L489.84996974048613,175.97348746702852L498.11636120052333,193.99791199065612L498.56221613349913,155.98983373695427L501.6108998643875,136.4897402112397L502.9605147966385,172.55190408974772L503.743773462677,181.66125922672674L503.82812439594267,167.5952170938323L504.5029318620682,205.45939669359362L504.6113830619812,155.1881126649996L505.32234092807767,160.73684804349517L505.4789926612854,187.65597990443635L507.3708635931015,165.24033839476456L507.7685179927826,165.8256780719215L510.5159483905792,194.8367873914226L511.8053126562118,166.394605014098L513.1910779884338,192.15186910781796L513.7815345212937,146.01087035295797L514.4563419874191,178.45825244754732L516.0469595861435,193.60689909566705L516.1433606527328,173.32841109758877L517.7339782514572,184.65251095078102L519.1558939836502,118.53679314845175L519.4812475833893,195.65131039666196L519.5053478500366,167.0075386019407L520.5898598491668,153.8667438876471L521.4333691818237,163.09340904789843L521.8430737148285,203.0439139706108L522.1804774478912,200.81370025167848L526.0967707780839,159.80189659533724L526.2052219779969,118.65627785910897L526.3498235778809,186.13922777510163L526.5787761110305,214.60254154871348L526.783628377533,198.07729727003223L527.4343355770111,174.17163587312507L527.5789371768951,153.10541865966292L527.8801905099868,187.56545341306014L528.3260454429627,133.62161477341644L529.5792593086243,154.05097683780198L529.808211841774,167.47548619215038L531.0734758407593,190.27659104079595L533.7365553052902,196.12465367349643L533.9896081050873,138.7304478226001L534.6523654378891,170.0722475729916L535.7007270370483,169.78365014428016L536.5924369029999,195.4361189251503L538.809661434555,168.62564962773868L545.4372347625732,155.2180659063388L545.6902875623704,180.46124210863547L545.7866886289597,197.01418287759614L545.9674406288146,174.51286689132675L547.2447547611237,192.85864250791104L548.3292667602539,161.1159617056235L550.7151931583405,168.97714886326247L550.7995440916062,197.96588557339345L551.6551035575867,192.32879839090657L552.9083174232484,195.98286815918456L553.1131696897506,176.97314612284666L553.9205286224366,206.95580728951202L556.4390064870834,194.5400041111397L556.7884603534699,165.8434858893752L561.0542075500489,167.24326650809658L561.4157115497588,205.1420769786665L562.7171259487152,192.4854579462944L563.343732881546,197.87053784111674L563.7172870145797,162.74459739772763L564.404144614029,191.45635894710517L567.5612795448303,200.87324770577922L567.9589339445114,210.81731351202342L571.0076176753997,176.21506241002112L571.4173222084046,201.98182537411097L574.7311088724136,172.1127813653474L576.0807238046646,170.44438582275325L579.8885659349442,177.57066199776713L582.8649488658905,149.0364144351619L583.0577509990692,136.65358033818146L583.1903024656295,191.67594082522407L585.3111259305954,151.25162075954654L586.0100336633682,164.255061397973L586.2510363298416,196.51981078406806L587.6970523286819,196.6542208255981L589.3961211273194,154.6258533964089L589.6853243270874,199.49365475108377L592.4809552581787,200.4891281594819L593.1919131242752,204.55995830074949L598.0842672536851,201.7782048807605L598.4216709867477,202.01165551993785L599.0362277862549,211.9428783610599L600.2050907186508,220.11350712083544L600.5786448516845,183.25312013451546L600.6388955183029,204.53716511504547L601.9162096506119,200.0542111984203L603.9767824489594,187.04750852891644L606.435009646988,206.1749509069012L608.2063792455673,206.54003168062127L608.3991813787461,184.25929259452894L608.4473819120407,191.27251579940608L608.8450363117217,191.4952571290087L609.0860389781952,173.1771780027038L609.9656987108231,172.3426622346665L612.9420816417694,213.15849783534188L615.400308839798,184.67012386700688L615.725662439537,172.9615044071021L616.569171772194,192.25935200602078L617.3885808382034,182.71013557156735L618.9550981702804,205.57163928494074L619.1479003034591,190.610733809078L624.6668613656998,189.88217250329845L626.1249274978637,218.50037120532838L627.4504421634674,168.36497436441263L629.9327696281433,213.69208610751377L630.1496720279694,227.64255181226812L632.6802000259399,220.83048719049444L636.3313904230117,176.85959051270106L639.9102800201416,218.57910104343742L642.8023120178223,186.3901784929518L643.2240666841508,181.3985734033656L643.8747738836288,197.7109650252699L644.2603781499863,186.15350685453456L645.1279877492905,174.05438739760888L645.4533413490295,207.13195696768904L645.5015418823242,186.00357652048868L646.2607002817155,197.7299627660097L648.3694736133576,226.89680842455599L648.5261253465652,162.14735848770997L649.4901360124588,200.4024791767448L649.5383365457535,156.9980270149622L649.9721413454056,202.1616474017399L651.0205029445648,175.82379306604798L651.1048538778305,185.78239440070922L651.635059744072,193.1590981376458L652.2737168102265,173.2649348450521L655.6598042741775,164.71607460765347L658.2746832054138,209.3962476276244L658.4433850719452,193.5375758062936L660.2268048038483,200.7947230268574L661.913823469162,192.6727682842581L664.3961509338379,228.9947457575057L664.504602133751,176.45881204039867L665.1432591999054,200.19348351268826L666.7700271986008,200.62324072019044L667.2038319982528,190.82812048389326L668.5895973304748,173.9707645128838L673.1083973268509,208.8850524807414L673.7952549263,185.58847793691587L674.74721545887,189.11426166540343L675.181020258522,188.5201104011539L676.5426853240966,194.97543397016946L676.7354874572754,190.30701614826586L677.6874479898453,213.9395798930587L678.7237594556808,152.89703847316812L687.1468026489258,228.68688388111104L687.6649583818436,200.18398464231836L688.3879663812637,198.47138755283012L688.6289690477371,211.84470968995845L690.0267845132828,201.02703503254548L690.6533914461136,192.7470871998412L691.3763994455338,198.81599343966215L691.8102042451858,178.25699128485027L692.4488613113404,189.2363724136575L692.6537135778427,197.15396808983226L692.8224154443741,146.6239885840692L693.2562202440262,207.83440150893105L693.7261754436493,225.47727097610203L693.8948773101806,199.74221536440243L695.3890938423157,199.47149755886022L696.1723525083542,190.19631225082313L696.4495055747986,205.34666172019706L697.7268197071076,188.8431437994461L698.9920837060928,139.06448801128852L699.5463898389817,194.41100001419383L703.1011791694641,219.43888216538522L706.9813220996857,206.13586808172914L708.644240498352,183.11127307244746L712.1387791622162,187.6153173535224L712.7894863616943,207.38438483168747L713.0907396947861,218.25353392918265L714.6090564935683,205.74153160790655L715.5851172927856,192.2617113366742L716.3201754255294,199.36984118157545L716.5491279586792,214.3226326115823L720.9835770217895,228.20246200816482L721.586083687973,213.99339314787565L722.7067460870743,147.0777391585208L722.899548220253,192.73580344454217L723.2610522199632,193.32334858296207L724.140711952591,176.2444309476767L725.5144271514893,214.05113520112855L728.4908100824356,221.1486788319674L728.5149103490829,224.48520321021232L730.7803354139328,204.54004760162638L732.7083567457199,231.2188559906172L734.5761274108887,212.5831801844824L735.6967898099899,179.9445897273715L736.3595471427917,202.0281298026744L737.082555142212,175.72240339570664L741.9990095382691,195.10542283121416L742.5774159378051,237.09877984509833L742.6738170043944,187.33520325720394L744.4572367362977,222.76763101043312L745.0235930025101,221.60774302936892L745.8189018018722,223.91018304017433L747.8674244668962,188.18105407033713L748.530181799698,203.90100750720552L749.2652399324418,240.59703121065624L751.1571108642578,223.2125597398328L751.3740132640838,211.690860815436L753.229733795929,195.09106168810632L754.6757497947693,177.25384492284877L755.928963660431,232.4301978958449L756.326618060112,188.89705963385668L757.0978265928269,204.86966660982947L758.1702884586334,224.76694832206942L758.3510404584885,231.62022942456264L761.9901807222366,224.92982420083106L762.701138588333,217.09469225997344L765.5690703193665,219.111776357226L765.6534212526321,218.1295664902839L765.7016217859268,192.28312995582363L765.7498223192215,230.10466721851398L767.4488911178588,197.59402428853463L767.9790969841004,213.58545461993805L769.9794191158294,178.55486190882561L770.1601711156845,215.5188132528719L770.4132239154817,227.6678992298535L770.5939759153366,197.56080901611807L772.0158916475295,223.87413657097363L776.6431428438186,192.43946125651183L776.9082457769393,187.832570674866L777.4384516431809,242.16317541432258L777.7758553762436,203.79378105798676L778.8362671087266,196.14141517909513L780.4027844408035,226.75312518776207L780.9450404403686,214.73466406530562L783.4876185716629,208.51842275515756L784.7649327039719,192.96620746978877L784.8010831039428,185.69315015425335L785.1143865703583,230.3605930466551L785.4879407033919,204.26742181564276L787.6449145683288,201.23457406637255L787.7051652349472,194.71106584147282L787.8015663015366,199.90569646276646L789.7536878999709,219.4588441543051L790.3923449661255,232.0991940631279L792.8023716308594,164.74352490690816L794.308638296318,228.1894138838554L796.8753166942597,216.07604612137487L797.2729710939407,195.2815725093912L798.4177337596893,212.24574461124493L799.3214937589646,210.5304189045662L799.490195625496,228.1036983754203L800.5385572246552,217.43718500717674L802.695531089592,197.98290352797625L803.0931854892731,209.8884347758082L805.2501593542099,234.8171634917993L808.8651993513107,182.61012046778058L808.9375001512527,237.7927000221099L811.0944740161895,213.75453656411415L814.4203108135224,177.04056143177863L820.8671321416855,178.73273492417562L821.4816889411927,220.2768753816465L822.6144014736175,157.25080364957893L824.0122169391632,210.27428791723784L824.674974271965,196.84042330395062L825.036478271675,196.92580029972675L825.9763886709213,211.471361000992L826.3017422706604,215.5278197411924L826.5065945371629,209.92278868171405L829.5311780014038,231.52214281713609L829.7239801345825,215.8808268967425L832.5437113323211,221.86776178329578L833.1100675985336,203.37204557470625L834.5681337306977,214.73987510866192L837.0745614620208,212.30399956246595L837.436065461731,237.90537344775026L838.2434243944169,197.31987006660592L842.4489209243775,209.82399427509148L843.5695833234787,194.28439627973884L843.6418841234207,213.42402511344653L843.9069870565414,207.39857158948615L844.9914990556716,204.10089410334797L847.1364227872849,227.94236119056305L848.5944889194488,206.74098510453743L849.498248918724,240.88470542302505L845.9434595882415,223.99310838366273L846.9436206541062,219.92474015264222L847.7991801200867,183.7493796925663L848.9680430524826,197.39249641889415L849.1126446523666,211.9573625996801L849.7513017185212,246.8227508752555L850.9081145175934,177.22009623654537L852.6674339828492,194.8065264113025L858.1984451784134,224.5050626195386L859.1624558443069,220.3822246243019L862.7413454414368,222.83389742791647L863.1148995744705,240.05692913428905L863.2113006410599,178.36835169169223L867.0552931713105,217.9918636437984L868.8628131698608,166.8645221325053L871.2246393013,216.36920834200274L872.8875576999665,252.11316006311907L873.7310670326232,236.86236465566515L873.743117165947,230.9920525091069L874.7553283651353,206.73665624568633L876.6592494302749,177.76700959792944L877.9847640958786,209.2583293639923L878.9969752950669,201.84440975048767L880.4791416938782,221.95130260434595L881.8046563594818,235.64294973641896L882.7084163587571,204.45308062214903L883.3350232915877,224.61101708179638L886.7813614221573,201.17850406049575L886.901862755394,245.73719206773373L888.9021848871231,205.63994703633728L891.3363118185043,211.7395963803684L892.5413251508713,226.13191342671362L892.6738766174316,165.9323403333753L893.3245838169098,217.24470465769423L895.6261592817307,192.1478890195852L896.1925155479431,227.37743485253802L897.1926766138076,224.17239699740477L898.0964366130829,205.24022513384924L898.4699907461167,204.7279631591925L899.0242968790054,215.76513763104947L899.916006744957,201.24425758001095L900.422112344551,242.04487036899206L901.2174211439133,210.78793471640853L903.6033475419997,225.30465003594574L905.3144664739609,224.1851373829333L908.3149496715546,230.32220776271973L911.1587811359406,235.91544216893087L912.5204462015153,192.59474624534508L914.207464866829,245.04572354300987L916.1475363319396,232.05262292762103L916.4849400650024,228.8101640367325L917.0271960645676,207.84802407896476L922.0762019271851,236.2023162604694L922.4859064601899,220.418650637999L922.955861659813,217.43847751005646L931.993461652565,212.5555349839998L932.0055117858886,210.78600622004834L932.210364052391,236.49801219705984L933.3792269847869,243.90348951000894L933.9937837842941,223.8689665594548L934.9939448501586,223.94682447101803L935.9338552494049,229.766226365259L940.0188504461288,204.0165223875894L940.7298083122253,217.29299913037403L942.9349827104568,200.2800914635879L942.9470328437806,235.98350372930267L943.1036845769881,248.75381172529208L944.8027533756256,237.58966423244308L946.357220574379,228.82265823123632L946.610273374176,226.01400844179824L948.8515981723785,224.24978304283732L949.5384557718277,233.6687028774652L950.4904163043976,231.47600251592246L951.900281903267,200.95510622149393L958.4435042980194,243.82565211436443L958.4917048313141,218.16097636185262L958.8652589643478,225.73114521237056L959.299063764,228.0772123243457L959.9136205635072,221.78216937037303L960.829430696106,233.9721230574558L963.9504152269363,223.73128422888806L964.9264760261535,217.8892532762929L968.2523128234862,201.55704327689975L968.7584184230805,220.4498963822179L970.1321336219788,223.48306212822837L971.6504504207612,195.69053683326507L971.9637538871765,218.48223513317504L973.3615693527222,210.50081443384533L975.2172898845672,172.00224159525445L975.8920973506927,159.1669699426208L976.5066541501998,199.1814947897161L976.7717570833207,231.04465532471906L977.1694114830017,216.17939506195452L977.4706648160934,159.20697598413554L979.3986861478805,231.93802100562044L980.3385965471267,238.62229196965308L980.6036994802474,242.57423236190644L980.6277997468948,232.8175999891383L981.8569133459091,241.96906404930135L981.8930637458802,250.2344660956293L982.3750690788269,231.7727037325305L983.7487842777252,200.04592276725518L985.7370562761307,232.32661302219992L987.544576274681,226.83423487244326L988.4483362739563,245.37286012504714L989.1833944067001,252.17711843974578L991.2319170717241,230.522853447855L992.9068856037139,224.64943313960984L998.0884429328919,224.7703744804966L998.5824983991623,201.6019115911524L998.6427490657807,251.01987701219716L999.2091053319931,194.96283719607203L999.9321133314132,243.62467817452955L1000.2092663978576,229.7214195987625L1001.2576279970168,221.15241272917544L1003.3784514619828,205.37359912148364L1003.4628023952483,231.93576425456064L1011.5484418554305,233.96673762879036L1011.9822466550827,227.54123394764233L1014.8622285194397,220.0166514685324L1015.2357826524734,222.78640307606696L1018.8267223829268,218.06415148342768L1019.0436247827531,236.24109134686054L1020.0076354486465,219.16386627487003L1020.7547437147141,241.25497672418265L1021.5741527807235,205.46307930100485L1024.3577335784912,224.78007851005376L1024.3818338451385,223.3176833073822L1025.9001506439208,229.46759665229078L1026.4183063768387,209.23386413091214L1027.8522722423554,190.2382262727793L1030.4189506402968,232.75590862153078L1031.033507439804,238.31719974228636L1032.7687266384125,253.34244313927226L1033.3350829046249,220.9053395199644L1033.7206871709825,222.7147820037963L1034.7449485034942,211.32267188002902L1036.1427639690398,245.70254068100635L1036.2271149023056,208.7847809279706L1036.3596663688659,243.32221198475966L1038.1551362340927,183.79010379123642L1039.6614028995514,195.67529350565206L1041.1797196983337,227.92469698454042L1042.8185378303526,250.70633222631554L1043.6620471630097,204.61578211560155L1045.0237122285841,216.89650848508523L1046.9396834270476,223.091023437303L1048.1326466260912,231.85450070048898L1050.4462722242356,267.96119438059065L1050.9523778238295,232.0831711306033L1051.8320375564576,202.9556647462131L1052.5188951559066,208.37015421052845L1058.6644631509782,219.3760829381665L1059.4838722169875,228.34145735753L1060.41173248291,142.59435440760242L1060.5804343494417,235.93142406961803L1061.0503895490647,216.67345941670175L1061.435993815422,202.94324235742482L1065.0992343458176,226.26954446748354L1066.4126988780977,242.3513063890353L1068.5696727430345,213.88740791173979L1068.8468258094788,233.71154011576402L1071.1604514076232,257.7643827136078L1071.461704740715,227.99280983470905L1073.0402722061158,209.35729815592407L1073.1246231393814,219.08742396169887L1073.4017762058259,197.25080322621656L1073.7994306055068,244.5428373432107L1073.8476311388015,212.76136093861325L1074.63088980484,237.04562309968057L1075.4141484708787,237.0951485274839L1077.655473269081,239.35167391218164L1078.1254284687043,208.6143141592805L1078.318230601883,233.96096239766916L1080.0534498004913,229.23511026129353L1080.3667532669067,232.17509270445282L1080.8126081998826,214.55492410135162L1083.3792865978241,202.71357690525232L1083.8733420640945,242.22764668891742L1084.8253025966644,155.62048565213925L1085.4278092628479,219.69374116575258L1085.6567617959977,218.81525978388655L1085.2591073963165,233.38205446103268L1088.4403425937653,211.29824767878634L1089.8020076593398,246.00644298508703L1090.2237623256683,237.56072652908077L1095.3209687215806,230.23511768773002L1096.8633857870102,221.36263934835551L1098.911908452034,236.72918556925865L1102.2377452493668,221.81185590476883L1103.7078615148546,223.66421769057445L1104.7682732473372,231.34928594391448L1105.1779777803422,245.20291651228456L1105.9130359130859,232.79054975029877L1106.129938312912,233.9453600414784L1107.0336983121872,243.98445558325906L1108.8532684440613,204.92811646227838L1109.479875376892,228.22835309759637L1111.1668940422057,191.99271686830497L1114.0950764398576,218.2776401336851L1117.1317100374222,238.14625084950623L1119.071781502533,246.56484526095736L1119.650187902069,232.11929966347887L1121.987913766861,241.9298478706576L1122.3735180332185,227.14371750641726L1122.4699190998078,243.13157806796244L1124.7473942979811,249.84813083010962L1124.9281462978363,241.46163357350449L1125.7234550971984,253.50998638954394L1127.2417718959807,226.4898546607172L1128.266033228493,252.3041324925753L1128.9167404279708,233.14408006177638L1129.8566508272172,229.4739976189331L1132.2907777585983,224.55677299268618L1132.6763820249557,218.64148995228166L1133.1222369579314,232.88661553973085L1134.086247623825,230.85906832392828L1135.9058177556992,218.75383512322242L1138.171242820549,214.2185245820098L1138.5447969535828,215.0210765486728L1138.9424513532638,245.63988506521872L1139.7136598859786,235.43951388633698L1140.1836150856018,218.14888222776395L1140.3161665521623,226.3065654428237L1141.0753249515533,207.0726864784911L1143.9191564159394,239.34820672191702L1144.2686102823257,237.42970161414047L1149.5465686780929,243.05601793929645L1151.8360940095902,235.70100978641207L1151.9204449428557,259.1209362915746L1153.4990124082565,239.3106625906494L1153.655664141464,188.82894678368802L1154.209970274353,221.27477992641363L1154.5232737407684,204.56726196781577L1155.1739809402466,254.55341575796294L1156.2464428060532,239.1745292119464L1160.8857441356658,235.77667249467166L1161.572601735115,248.43029620290986L1162.849915867424,252.98852302533885L1163.6331745334626,241.04596054420736L1164.1754305330276,231.54354092036675L1165.9950006649017,229.16677173601894L1166.1396022647857,223.29841885969896L1169.3208374622345,235.4555060449835L1169.6943915952684,228.72715662956918L1169.851043328476,201.58352932797436L1172.7069249261856,232.69116038203313L1173.5142838588715,254.53587464745263L1176.3219649232863,239.6389172902572L1177.430577189064,235.38093068041636L1178.021033721924,234.02007901747663L1179.3103979875566,240.15222557676893L1182.166279585266,206.48566449599872L1183.407443317604,211.4968622879678L1184.431704650116,194.70619331077552L1184.6245067832947,258.7107820444146L1189.2276577129364,211.45141952799082L1189.4325099794387,236.02019644994323L1190.770074778366,223.67755303774598L1190.9990273115159,228.22704007879796L1191.9750881107332,243.69276025082007L1192.7221963768004,240.76277931803946L1195.1563233081818,218.58868197748225L1196.1444342407228,234.7761932021045L1197.7230017061233,235.51560742888984L1203.386564368248,214.93301196754365L1205.242284900093,229.58524518822207L1205.4832875665663,244.33086687093893L1207.9656150312424,250.3362866002639L1209.146528096962,233.12687746392504L1209.7128843631745,219.95481648949377L1210.062338229561,241.49468471857125L1211.8698582281113,240.78674191111082L1212.1108608945847,225.6375413331855L1212.1470112945558,247.6092286195971L1212.8941195606233,254.16939879125923L1213.1712726270675,247.5792958941766L1213.2074230270384,230.11389938194046L1215.629499825096,191.88391069334435L1216.5091595577242,237.8322854872907L1217.533420890236,246.046767023342L1217.8467243566513,224.18160864491253L1219.3650411554336,223.18499660302513L1220.1241995548248,248.18014560588998L1225.185255550766,249.7668877919567L1225.8962134168623,247.51420914201998L1225.92031368351,257.3027540263656L1226.2938678165435,256.256195980341L1227.1494272825241,221.87259328215563L1229.9691584802626,271.0011457667196L1231.1380214126586,261.0710461721478L1234.1264544769288,225.00204023474478L1236.5605814083099,251.05149204295316L1239.3080118061066,262.00096096225866L1241.2360331378939,245.97849004582355L1245.0800256681443,262.50129805915617L1245.6102315343858,237.2710622725956L1246.9598464666367,246.88035957503666L1247.417751532936,188.12554825222534L1249.9482795309066,245.99866745189007L1251.2376437965393,234.82740093524333L1252.9126123285293,210.3328095754023L1253.2379659282685,228.02576865814154L1254.7683328603744,237.39278321839393L1256.419201125717,226.9584074705293L1257.0940085918426,218.873442929392L1257.4796128582002,250.2260750848706L1258.3351723241806,219.59260794439527L1258.7810272571564,240.51855782153123L1262.914222987175,251.41618301421744L1263.9866848529816,198.15460125178987L1264.263837919426,253.9396615333712L1264.986845918846,251.57267844225544L1268.2283317829133,232.00570302149583L1269.1923424488068,239.2365385762942L1270.204553647995,256.4856049835294L1270.6865589809418,212.87273160341456L1271.0480629806518,251.27120727454377L1271.8313216466904,233.47072426176422L1272.2169259130478,213.59340453844416L1276.868277375984,246.5901413887459L1278.5311957746505,261.13887692843394L1279.3747051073074,250.72038563064248L1280.2182144399644,232.5453024578543L1281.6642304388047,224.95772585029775L1282.194436305046,228.77961583375023L1283.833254437065,244.2954461372594L1284.5201120365143,237.72238171067826L1285.5925739023207,230.1308044989703L1286.243281101799,237.30684203485285L1287.2072917676926,234.56731037560095L1288.5328064332962,224.73337402107515L1288.6533077665329,239.38092961228418L1290.3764768318176,236.33521838197308L1291.2561365644453,264.0758178866422L1293.56976216259,232.17409768239466L1294.4132714952468,250.95897550746056L1295.0037280281067,233.15161966190797L1295.2206304279327,250.6584275560915L1295.9918389606476,213.76354305243464L1297.7873088258743,238.30456193635146L1300.6311402902604,241.91132199604849L1301.4143989562988,241.97334161835562L1304.0051776208877,212.96050896168157L1306.8490090852738,246.5416827887163L1307.102061885071,255.41393545298482L1308.1263232175827,245.71473739468868L1308.15042348423,226.56036787337672L1311.4039594816209,231.64435614498382L1312.5728224140166,236.22824838173838L1316.2240128110884,234.0801701434236L1316.6939680107116,238.40197151846007L1318.6942901424409,216.5526206554086L1319.6221504083633,251.9046978129494L1319.8993034748078,222.32779022887738L1321.8514250732421,230.42898286172652L1323.1407893388748,250.84093716907347L1323.5263936052322,236.22724310172086L1323.8517472049714,239.5184272995824L1323.9601984048843,217.8028812584586L1324.815757870865,218.82260448279024L1325.5749162702562,238.26311978052598L1325.7195178701402,247.30939872538343L1326.7196789360046,214.16991211258974L1327.6716394685745,235.71703271893668L1328.8887029342652,233.7627068170654L1329.1297056007386,233.37985925772904L1329.8406634668352,240.33342217095245L1330.0455157333374,257.0170903740319L1330.7323733327864,215.96202890305796L1330.864924799347,242.73944705540282L1332.6242442646026,253.50488818374066L1333.1785503974916,258.6191733383256L1335.9741813285827,240.40938236003356L1336.2151839950561,222.4685396892936L1340.517081591606,263.03914338446356L1340.6014325248718,242.91659175563805L1342.6258549232482,240.25831339249845L1343.035559456253,234.89487779193146L1343.4211637226106,241.76157630527112L1344.0718709220887,259.52923897706955L1345.156382921219,245.14451794963247L1347.5061589193344,235.06524198102792L1347.8797130523683,242.75223873072815L1348.54247038517,266.373759782267L1348.9642250514983,250.4576792913626L1349.0847263847352,226.90909745987258L1351.4345023828507,258.57721315555233L1352.7720671817779,236.73203728196148L1354.51933651371,263.9424131251297L1355.1820938465119,259.5883607258568L1357.7367221111297,255.11821900047562L1359.4478410430909,255.19246611034316L1360.3636511756897,226.14599760491868L1362.1832213075638,259.83675721182556L1364.328145039177,244.13859168064366L1365.0270527719497,251.84882270830053L1369.4856021017074,227.39121129196218L1370.7388159673692,258.40428960559484L1370.9075178339006,210.70515298435117L1371.1364703670502,248.33313281182595L1371.6305258333205,262.3234506887046L1371.799227699852,239.53995875628482L1371.979979699707,260.2638986396903L1372.1366314329148,249.36775059315232L1372.606586632538,233.19670339330725L1373.0885919654845,248.11580768476685L1373.1970431653976,261.310487459593L1373.8839007648469,225.51175823547956L1374.173103964615,232.47024496919707L1376.2216266296386,239.63411656527543L1376.245726896286,251.76869778771814L1378.2821994279861,239.35626947797616L1380.4030228929519,239.45230449353016L1381.5116351587294,245.21182042101142L1382.0659412916184,234.19154080822491L1382.3792447580338,250.79464299846939L1382.5479466245652,248.90987631903687L1384.8736223560334,244.31628005272512L1385.2712767557146,263.6457529403591L1387.6331028871537,248.65942824119546L1388.3199604866027,265.47630630455956L1389.802126885414,269.69300462796537L1391.9229503503798,249.6854395946165L1393.127963682747,240.6796693312825L1394.369127415085,242.61701831040847L1398.3938719451903,243.6782760121999L1399.9965396772384,259.5708093573871L1405.081695939827,258.06215075798957" fill="none"></path></g></g></g></g></g><g><g opacity="0.402809"><span fill="rgb(0, 0, 0)" stroke="none" stroke-width="1px">Alt + Scroll to Zoom</span></g></g></g><g transform="translate(49, 378)" clip-path="url(#clip_1)"><clipPath id="clip_1"><rect width="1446" height="21"></rect></clipPath><g><g><line x1="0" y1="0" x2="0" y2="5" style="visibility: inherit;" fill="rgb(0, 0, 0)" stroke="rgb(204, 204, 204)" stroke-width="1px"></line><line x1="120.50133323669434" y1="0" x2="120.50133323669434" y2="5" style="visibility: inherit;" fill="rgb(0, 0, 0)" stroke="rgb(204, 204, 204)" stroke-width="1px"></line><line x1="241.00266647338867" y1="0" x2="241.00266647338867" y2="5" style="visibility: inherit;" fill="rgb(0, 0, 0)" stroke="rgb(204, 204, 204)" stroke-width="1px"></line><line x1="361.503999710083" y1="0" x2="361.503999710083" y2="5" style="visibility: inherit;" fill="rgb(0, 0, 0)" stroke="rgb(204, 204, 204)" stroke-width="1px"></line><line x1="482.00533294677734" y1="0" x2="482.00533294677734" y2="5" style="visibility: inherit;" fill="rgb(0, 0, 0)" stroke="rgb(204, 204, 204)" stroke-width="1px"></line><line x1="602.5066661834717" y1="0" x2="602.5066661834717" y2="5" style="visibility: inherit;" fill="rgb(0, 0, 0)" stroke="rgb(204, 204, 204)" stroke-width="1px"></line><line x1="723.007999420166" y1="0" x2="723.007999420166" y2="5" style="visibility: inherit;" fill="rgb(0, 0, 0)" stroke="rgb(204, 204, 204)" stroke-width="1px"></line><line x1="843.5093326568604" y1="0" x2="843.5093326568604" y2="5" style="visibility: inherit;" fill="rgb(0, 0, 0)" stroke="rgb(204, 204, 204)" stroke-width="1px"></line><line x1="964.0106658935547" y1="0" x2="964.0106658935547" y2="5" style="visibility: inherit;" fill="rgb(0, 0, 0)" stroke="rgb(204, 204, 204)" stroke-width="1px"></line><line x1="1084.511999130249" y1="0" x2="1084.511999130249" y2="5" style="visibility: inherit;" fill="rgb(0, 0, 0)" stroke="rgb(204, 204, 204)" stroke-width="1px"></line><line x1="1205.0133323669434" y1="0" x2="1205.0133323669434" y2="5" style="visibility: inherit;" fill="rgb(0, 0, 0)" stroke="rgb(204, 204, 204)" stroke-width="1px"></line><line x1="1325.5146656036377" y1="0" x2="1325.5146656036377" y2="5" style="visibility: inherit;" fill="rgb(0, 0, 0)" stroke="rgb(204, 204, 204)" stroke-width="1px"></line><line x1="1446.015998840332" y1="0" x2="1446.015998840332" y2="5" style="visibility: inherit;" fill="rgb(0, 0, 0)" stroke="rgb(204, 204, 204)" stroke-width="1px"></line></g><g transform="translate(0, 8)"><text style="text-anchor: middle; visibility: hidden; font-family: &quot;Helvetica Neue&quot;, sans-serif; font-size: 12px; font-weight: 200;" x="0" y="0" dx="0em" dy="0.95em" fill="rgb(50, 49, 63)" stroke="none" stroke-width="1px">-10k</text><text style="text-anchor: middle; visibility: inherit; font-family: &quot;Helvetica Neue&quot;, sans-serif; font-size: 12px; font-weight: 200;" x="120.50133323669434" y="0" dx="0em" dy="0.95em" fill="rgb(50, 49, 63)" stroke="none" stroke-width="1px">0</text><text style="text-anchor: middle; visibility: inherit; font-family: &quot;Helvetica Neue&quot;, sans-serif; font-size: 12px; font-weight: 200;" x="241.00266647338867" y="0" dx="0em" dy="0.95em" fill="rgb(50, 49, 63)" stroke="none" stroke-width="1px">10k</text><text style="text-anchor: middle; visibility: inherit; font-family: &quot;Helvetica Neue&quot;, sans-serif; font-size: 12px; font-weight: 200;" x="361.503999710083" y="0" dx="0em" dy="0.95em" fill="rgb(50, 49, 63)" stroke="none" stroke-width="1px">20k</text><text style="text-anchor: middle; visibility: inherit; font-family: &quot;Helvetica Neue&quot;, sans-serif; font-size: 12px; font-weight: 200;" x="482.00533294677734" y="0" dx="0em" dy="0.95em" fill="rgb(50, 49, 63)" stroke="none" stroke-width="1px">30k</text><text style="text-anchor: middle; visibility: inherit; font-family: &quot;Helvetica Neue&quot;, sans-serif; font-size: 12px; font-weight: 200;" x="602.5066661834717" y="0" dx="0em" dy="0.95em" fill="rgb(50, 49, 63)" stroke="none" stroke-width="1px">40k</text><text style="text-anchor: middle; visibility: inherit; font-family: &quot;Helvetica Neue&quot;, sans-serif; font-size: 12px; font-weight: 200;" x="723.007999420166" y="0" dx="0em" dy="0.95em" fill="rgb(50, 49, 63)" stroke="none" stroke-width="1px">50k</text><text style="text-anchor: middle; visibility: inherit; font-family: &quot;Helvetica Neue&quot;, sans-serif; font-size: 12px; font-weight: 200;" x="843.5093326568604" y="0" dx="0em" dy="0.95em" fill="rgb(50, 49, 63)" stroke="none" stroke-width="1px">60k</text><text style="text-anchor: middle; visibility: inherit; font-family: &quot;Helvetica Neue&quot;, sans-serif; font-size: 12px; font-weight: 200;" x="964.0106658935547" y="0" dx="0em" dy="0.95em" fill="rgb(50, 49, 63)" stroke="none" stroke-width="1px">70k</text><text style="text-anchor: middle; visibility: inherit; font-family: &quot;Helvetica Neue&quot;, sans-serif; font-size: 12px; font-weight: 200;" x="1084.511999130249" y="0" dx="0em" dy="0.95em" fill="rgb(50, 49, 63)" stroke="none" stroke-width="1px">80k</text><text style="text-anchor: middle; visibility: inherit; font-family: &quot;Helvetica Neue&quot;, sans-serif; font-size: 12px; font-weight: 200;" x="1205.0133323669434" y="0" dx="0em" dy="0.95em" fill="rgb(50, 49, 63)" stroke="none" stroke-width="1px">90k</text><text style="text-anchor: middle; visibility: inherit; font-family: &quot;Helvetica Neue&quot;, sans-serif; font-size: 12px; font-weight: 200;" x="1325.5146656036377" y="0" dx="0em" dy="0.95em" fill="rgb(50, 49, 63)" stroke="none" stroke-width="1px">100k</text><text style="text-anchor: middle; visibility: hidden; font-family: &quot;Helvetica Neue&quot;, sans-serif; font-size: 12px; font-weight: 200;" x="1446.015998840332" y="0" dx="0em" dy="0.95em" fill="rgb(50, 49, 63)" stroke="none" stroke-width="1px">110k</text></g><line x1="0" y1="0" x2="1446.015998840332" y2="0" fill="rgb(0, 0, 0)" stroke="rgb(204, 204, 204)" stroke-width="1px"></line></g></g></g></g></svg>