<svg viewBox="0 0 1496 400" xmlns="http://www.w3.org/2000/svg"><g><g><g><g><g><line x1="59.98000144958496" y1="378.6199998855591" x2="54.98000144958496" y2="378.6199998855591" style="visibility: inherit;" fill="rgb(0, 0, 0)" stroke="rgb(204, 204, 204)" stroke-width="1px"></line><line x1="59.98000144958496" y1="336.55111100938586" x2="54.98000144958496" y2="336.55111100938586" style="visibility: inherit;" fill="rgb(0, 0, 0)" stroke="rgb(204, 204, 204)" stroke-width="1px"></line><line x1="59.98000144958496" y1="294.48222213321264" x2="54.98000144958496" y2="294.48222213321264" style="visibility: inherit;" fill="rgb(0, 0, 0)" stroke="rgb(204, 204, 204)" stroke-width="1px"></line><line x1="59.98000144958496" y1="252.41333325703937" x2="54.98000144958496" y2="252.41333325703937" style="visibility: inherit;" fill="rgb(0, 0, 0)" stroke="rgb(204, 204, 204)" stroke-width="1px"></line><line x1="59.98000144958496" y1="210.34444438086615" x2="54.98000144958496" y2="210.34444438086615" style="visibility: inherit;" fill="rgb(0, 0, 0)" stroke="rgb(204, 204, 204)" stroke-width="1px"></line><line x1="59.98000144958496" y1="168.2755555046929" x2="54.98000144958496" y2="168.2755555046929" style="visibility: inherit;" fill="rgb(0, 0, 0)" stroke="rgb(204, 204, 204)" stroke-width="1px"></line><line x1="59.98000144958496" y1="126.20666662851971" x2="54.98000144958496" y2="126.20666662851971" style="visibility: inherit;" fill="rgb(0, 0, 0)" stroke="rgb(204, 204, 204)" stroke-width="1px"></line><line x1="59.98000144958496" y1="84.1377777523465" x2="54.98000144958496" y2="84.1377777523465" style="visibility: inherit;" fill="rgb(0, 0, 0)" stroke="rgb(204, 204, 204)" stroke-width="1px"></line><line x1="59.98000144958496" y1="42.068888876173276" x2="54.98000144958496" y2="42.068888876173276" style="visibility: inherit;" fill="rgb(0, 0, 0)" stroke="rgb(204, 204, 204)" stroke-width="1px"></line><line x1="59.98000144958496" y1="0" x2="54.98000144958496" y2="0" style="visibility: inherit;" fill="rgb(0, 0, 0)" stroke="rgb(204, 204, 204)" stroke-width="1px"></line></g><g transform="translate(49.98000144958496, 0)"><text style="text-anchor: end; visibility: hidden; font-family: &quot;Helvetica Neue&quot;, sans-serif; font-size: 12px; font-weight: 200;" x="0" y="378.6199998855591" dx="0em" dy="0.3em" fill="rgb(50, 49, 63)" stroke="none" stroke-width="1px">-0.05</text><text style="text-anchor: end; visibility: inherit; font-family: &quot;Helvetica Neue&quot;, sans-serif; font-size: 12px; font-weight: 200;" x="0" y="336.55111100938586" dx="0em" dy="0.3em" fill="rgb(50, 49, 63)" stroke="none" stroke-width="1px">0</text><text style="text-anchor: end; visibility: inherit; font-family: &quot;Helvetica Neue&quot;, sans-serif; font-size: 12px; font-weight: 200;" x="0" y="294.48222213321264" dx="0em" dy="0.3em" fill="rgb(50, 49, 63)" stroke="none" stroke-width="1px">0.05</text><text style="text-anchor: end; visibility: inherit; font-family: &quot;Helvetica Neue&quot;, sans-serif; font-size: 12px; font-weight: 200;" x="0" y="252.41333325703937" dx="0em" dy="0.3em" fill="rgb(50, 49, 63)" stroke="none" stroke-width="1px">0.1</text><text style="text-anchor: end; visibility: inherit; font-family: &quot;Helvetica Neue&quot;, sans-serif; font-size: 12px; font-weight: 200;" x="0" y="210.34444438086615" dx="0em" dy="0.3em" fill="rgb(50, 49, 63)" stroke="none" stroke-width="1px">0.15</text><text style="text-anchor: end; visibility: inherit; font-family: &quot;Helvetica Neue&quot;, sans-serif; font-size: 12px; font-weight: 200;" x="0" y="168.2755555046929" dx="0em" dy="0.3em" fill="rgb(50, 49, 63)" stroke="none" stroke-width="1px">0.2</text><text style="text-anchor: end; visibility: inherit; font-family: &quot;Helvetica Neue&quot;, sans-serif; font-size: 12px; font-weight: 200;" x="0" y="126.20666662851971" dx="0em" dy="0.3em" fill="rgb(50, 49, 63)" stroke="none" stroke-width="1px">0.25</text><text style="text-anchor: end; visibility: inherit; font-family: &quot;Helvetica Neue&quot;, sans-serif; font-size: 12px; font-weight: 200;" x="0" y="84.1377777523465" dx="0em" dy="0.3em" fill="rgb(50, 49, 63)" stroke="none" stroke-width="1px">0.3</text><text style="text-anchor: end; visibility: inherit; font-family: &quot;Helvetica Neue&quot;, sans-serif; font-size: 12px; font-weight: 200;" x="0" y="42.068888876173276" dx="0em" dy="0.3em" fill="rgb(50, 49, 63)" stroke="none" stroke-width="1px">0.35</text><text style="text-anchor: end; visibility: hidden; font-family: &quot;Helvetica Neue&quot;, sans-serif; font-size: 12px; font-weight: 200;" x="0" y="0" dx="0em" dy="0.3em" fill="rgb(50, 49, 63)" stroke="none" stroke-width="1px">0.4</text></g><line x1="59.98000144958496" y1="0" x2="59.98000144958496" y2="378.6199998855591" fill="rgb(0, 0, 0)" stroke="rgb(204, 204, 204)" stroke-width="1px"></line></g></g><g transform="translate(59, 0)" clip-path="url(#clip_0)"><clipPath id="clip_0"><rect width="1436" height="378"></rect></clipPath><g><g><g><line x1="0" y1="0" x2="0" y2="378.6199998855591" fill="rgb(0, 0, 0)" stroke="rgb(60, 60, 60)" stroke-width="1px" opacity="0.25"></line><line x1="119.66833321253458" y1="0" x2="119.66833321253458" y2="378.6199998855591" fill="rgb(0, 0, 0)" stroke="rgb(60, 60, 60)" stroke-width="1px" opacity="0.25"></line><line x1="239.33666642506915" y1="0" x2="239.33666642506915" y2="378.6199998855591" fill="rgb(0, 0, 0)" stroke="rgb(60, 60, 60)" stroke-width="1px" opacity="0.25"></line><line x1="359.00499963760376" y1="0" x2="359.00499963760376" y2="378.6199998855591" fill="rgb(0, 0, 0)" stroke="rgb(60, 60, 60)" stroke-width="1px" opacity="0.25"></line><line x1="478.6733328501383" y1="0" x2="478.6733328501383" y2="378.6199998855591" fill="rgb(0, 0, 0)" stroke="rgb(60, 60, 60)" stroke-width="1px" opacity="0.25"></line><line x1="598.341666062673" y1="0" x2="598.341666062673" y2="378.6199998855591" fill="rgb(0, 0, 0)" stroke="rgb(60, 60, 60)" stroke-width="1px" opacity="0.25"></line><line x1="718.0099992752075" y1="0" x2="718.0099992752075" y2="378.6199998855591" fill="rgb(0, 0, 0)" stroke="rgb(60, 60, 60)" stroke-width="1px" opacity="0.25"></line><line x1="837.6783324877422" y1="0" x2="837.6783324877422" y2="378.6199998855591" fill="rgb(0, 0, 0)" stroke="rgb(60, 60, 60)" stroke-width="1px" opacity="0.25"></line><line x1="957.3466657002766" y1="0" x2="957.3466657002766" y2="378.6199998855591" fill="rgb(0, 0, 0)" stroke="rgb(60, 60, 60)" stroke-width="1px" opacity="0.25"></line><line x1="1077.0149989128113" y1="0" x2="1077.0149989128113" y2="378.6199998855591" fill="rgb(0, 0, 0)" stroke="rgb(60, 60, 60)" stroke-width="1px" opacity="0.25"></line><line x1="1196.683332125346" y1="0" x2="1196.683332125346" y2="378.6199998855591" fill="rgb(0, 0, 0)" stroke="rgb(60, 60, 60)" stroke-width="1px" opacity="0.25"></line><line x1="1316.3516653378804" y1="0" x2="1316.3516653378804" y2="378.6199998855591" fill="rgb(0, 0, 0)" stroke="rgb(60, 60, 60)" stroke-width="1px" opacity="0.25"></line><line x1="1436.019998550415" y1="0" x2="1436.019998550415" y2="378.6199998855591" fill="rgb(0, 0, 0)" stroke="rgb(60, 60, 60)" stroke-width="1px" opacity="0.25"></line></g><g><line x1="0" y1="378.6199998855591" x2="1436.019998550415" y2="378.6199998855591" fill="rgb(0, 0, 0)" stroke="rgb(60, 60, 60)" stroke-width="1px" opacity="0.25"></line><line x1="0" y1="336.55111100938586" x2="1436.019998550415" y2="336.55111100938586" fill="rgb(0, 0, 0)" stroke="rgb(60, 60, 60)" stroke-width="1px" opacity="0.25"></line><line x1="0" y1="294.48222213321264" x2="1436.019998550415" y2="294.48222213321264" fill="rgb(0, 0, 0)" stroke="rgb(60, 60, 60)" stroke-width="1px" opacity="0.25"></line><line x1="0" y1="252.41333325703937" x2="1436.019998550415" y2="252.41333325703937" fill="rgb(0, 0, 0)" stroke="rgb(60, 60, 60)" stroke-width="1px" opacity="0.25"></line><line x1="0" y1="210.34444438086615" x2="1436.019998550415" y2="210.34444438086615" fill="rgb(0, 0, 0)" stroke="rgb(60, 60, 60)" stroke-width="1px" opacity="0.25"></line><line x1="0" y1="168.2755555046929" x2="1436.019998550415" y2="168.2755555046929" fill="rgb(0, 0, 0)" stroke="rgb(60, 60, 60)" stroke-width="1px" opacity="0.25"></line><line x1="0" y1="126.20666662851971" x2="1436.019998550415" y2="126.20666662851971" fill="rgb(0, 0, 0)" stroke="rgb(60, 60, 60)" stroke-width="1px" opacity="0.25"></line><line x1="0" y1="84.1377777523465" x2="1436.019998550415" y2="84.1377777523465" fill="rgb(0, 0, 0)" stroke="rgb(60, 60, 60)" stroke-width="1px" opacity="0.25"></line><line x1="0" y1="42.068888876173276" x2="1436.019998550415" y2="42.068888876173276" fill="rgb(0, 0, 0)" stroke="rgb(60, 60, 60)" stroke-width="1px" opacity="0.25"></line><line x1="0" y1="0" x2="1436.019998550415" y2="0" fill="rgb(0, 0, 0)" stroke="rgb(60, 60, 60)" stroke-width="1px" opacity="0.25"></line></g></g></g><g><g><line x1="0" y1="336.55111100938586" x2="1436.019998550415" y2="336.55111100938586" fill="rgb(0, 0, 0)" stroke="rgb(153, 153, 153)" stroke-width="1.5px"></line></g></g><g><g><line x1="119.66833321253458" y1="0" x2="119.66833321253458" y2="378.6199998855591" fill="rgb(0, 0, 0)" stroke="rgb(153, 153, 153)" stroke-width="1.5px"></line></g></g><g><g><g><g><g><path style="fill: none;" stroke="rgb(255, 112, 67)" stroke-width="2px" d="M135.66798936305045,-63.4967228485977L136.24239736247063,0.08024368548262828L136.3261651957194,-45.84568725049962L139.90424835877417,-34.673762787292105L140.41882219158808,8.357649184005197L140.45472269155184,31.214755127370495L142.13007935652732,56.91341234242452L142.60875268937747,67.99001581729078L144.03280585460664,6.6366821043746995L145.98339968597094,12.642535398619714L147.27581768466632,42.87566036924147L148.2570980170091,34.51922580362174L148.819539183108,54.50002893580398L149.40591401584945,46.69241182045829L149.4178808491707,43.16942768550496L149.56148284902574,5.3259595108189615L151.7992806801001,11.91259092865522L152.45745651276908,-31.401538103031953L156.0235728425026,-15.788653746031969L158.32120484018327,33.156472690743385L158.51267417332332,34.401842109305335L159.21871733927728,29.100178522403155L162.96433616882962,40.39587738358517L162.98826983547212,79.11664008295554L163.58661150153478,18.57447121545482L164.43625666734377,10.917741833013451L165.3098354997953,-7.397542841755808L165.39360333304404,34.661489808179226L166.67405449841817,43.23328022625782L167.00912583141326,58.96426816943614L167.96647249711353,27.236572180875896L171.32915266038577,30.634677954681706L172.3223998260498,10.248827997636795L173.4233484916051,57.882930712847724L173.62678465806644,57.81681123373022L175.62524582271575,39.06583476909964L176.96553115469615,56.15730401025451L179.15546165248554,61.00465896546814L180.77098415085476,74.14974489589275L181.10605548384981,69.32463809431954L183.63105731463432,16.74984735303019L183.7985929811319,39.55255343070024L186.07229131217002,52.42717292831907L188.15452031006814,50.865755035957136L189.17170114237467,45.81297150763697L189.8418438083649,67.57405880369134L189.92561164161364,73.88686700431464L190.35641764117878,41.773022674798426L191.3496648068428,69.94847384738034L193.86269980430603,98.46436767345L194.09006963740984,103.31188219066473L194.9277479698976,81.66381000885951L198.3382954664548,56.51426802893218L199.8341496316115,48.762845337151305L199.97775163146656,75.88011591086433L201.68900879640577,73.40877253370962L203.02929412838617,73.5792723638337L205.29102562610308,52.87812886230313L208.00749679002763,60.251175616814805L208.94090978908537,77.41231728115292L208.97681028904913,85.22995622555902L209.5512182884693,93.58653640380913L212.8660311184565,73.04342067878349L212.98569945166906,75.84449341760416L213.40453861791295,36.16081589559877L215.29529828267098,62.656890376970125L216.19281078176496,84.35392390927183L217.55702978038786,53.37688241782644L218.0476699465593,66.98080418992879L219.74696027817726,70.6579297168609L219.91449594467483,74.00933067078819L221.3624827765465,72.00929271957654L221.482151109759,92.52268552579108L222.5950666086356,73.1057260409923L225.9098794386228,72.13999280768536L226.59198893793425,56.55171399932823L227.28606527056695,80.21438282894565L230.48120976734162,86.53702622851921L232.97031109816234,94.02760179442436L233.99945876379016,102.87042558607737L234.15502759696642,109.6952041944536L235.72268276205062,75.45510248681029L237.45787359363237,81.35304257977964L238.2237509261926,-26.817912444977253L242.6395124217351,18.547219843516075L242.7232802549839,28.109829974872582L244.1114329202493,32.36740867866257L245.06877958594958,43.34163332494177L245.5833534187635,56.39840979216979L246.60053425107,81.24885007364804L248.67079641564686,96.04356858827305L250.1307500808398,64.18409724667714L250.16665058080355,77.57247016610552L250.8966274134,64.39253545584313L250.99236207997006,64.13929368445514L251.5428364127477,89.64040461367728L252.52411674509048,76.73375411963679L256.31760290792784,88.7156637567872L256.95184507395425,99.57905101455566L257.6698550732295,79.0426902840731L258.0767274061521,96.64135080688266L259.50078057138126,95.9647452740694L260.386326237154,75.9246264738913L262.89936123461723,89.56483977611259L262.9591954012235,50.66627009671322L265.2328937322617,36.1267824115215L266.74071473073957,90.31247291358443L271.3000782261372,115.04635576737826L273.7652458903153,126.29754859414271L274.50718955623313,129.22826177127163L275.64403872175217,102.15466882760501L275.96714322142606,113.57802027447616L280.04783338397345,111.24302226730418L281.77105738223395,118.32462913655826L282.38136588161785,73.1255697365865L282.6566030480067,100.93124730525011L284.93030137904486,104.87066526668247L288.1613463757833,117.63695047377308L289.84866987408003,101.40730151420195L290.7222487065315,117.1251826528192L291.2487893726667,106.86752362003102L292.5531742046833,108.20948411085186L294.8388393690427,124.91112961556163L295.1978443686803,89.74500489285055L295.4252142017841,117.05533836328078L296.52616286733945,137.9557075604595L296.88516786697704,96.31008739729305L297.65104519953724,109.61415896662214L297.8784150326411,121.82119977215342L303.0480870274226,107.11082285269697L304.83114519228934,113.14103967782876L305.23801752521194,129.40603280206201L308.026289689064,101.2717009713341L308.3134936887741,86.32053375898715L312.5258190178553,73.69576229557305L314.11740784958204,80.94693142004877L314.97901984871226,76.16064965387159L319.47854917750357,96.43062400687069L320.81883450948396,99.99201498470404L321.3932425089041,104.04387837072989L321.8958495083968,102.99102411622044L323.8943106730461,77.24513261952444L324.26528250600495,72.96931786791203L326.59881500364935,110.80008923262665L326.89798583668073,116.87966172197838L327.1612561697483,90.2415853329199L329.60249016728403,95.70369197035205L329.7700258337816,98.99017352714003L330.1170640000979,105.9552896761063L330.21279866666794,118.17441615621584L335.84917716097834,117.56577422048457L340.4683748229822,128.92028346778795L348.42631898161574,146.40903635979984L349.06056114764215,116.52773280951794L350.28117814641,92.96273998250075L353.39255480993586,117.13581967320846L354.6969396419525,106.96350386434119L354.8644753084501,104.77320035666395L355.7859214741866,130.71827919841022L357.16210730613074,144.66355498185007L358.9451654709975,137.332303714705L359.6392418036302,144.66394937818583L359.74694330352145,125.84611877831281L359.8307111367702,125.70192513295262L361.0991954688231,104.54385349022203L361.1949301353931,113.12772567738352L362.04457530120214,125.12178699860104L363.4446947997888,130.60425646642713L364.6294112985929,131.5209299028169L364.64137813191417,106.8669714334967L365.0961177981217,123.9954323774019L367.50145129569376,133.36875035432664L367.5373517956575,138.43171282701428L368.1237266283989,123.59871998824846L368.410930628109,142.2948824594596L371.10346812539103,137.25581791777006L371.8693454579512,86.97078135301012L372.64718962383273,97.76733371313372L372.9224267902215,112.32210194721006L373.9635412891706,120.93213544997428L374.82515328830084,137.05105610027707L376.4047752867063,131.43576858162632L380.29399611611365,116.89629015469478L385.0448289446513,143.4537113620668L385.6072701107502,148.75449852776316L386.0620097769578,145.23886947259263L386.3970811099529,144.12820468350057L387.7613001085758,126.88280480930092L392.1650947707971,145.42211887033469L395.73121110053063,150.44743435311563L395.85087943374316,155.593633548538L396.37742009987835,155.2088250150409L396.6885577662309,137.43733225261343L397.2270652656873,124.87742168429077L397.50230243207614,136.94619777496507L398.3998149311701,130.8889259191795L399.1896259303729,156.93824640060558L400.54187809567446,145.90853751985856L402.0975664274375,143.01726515645484L402.22920159397125,144.02182641484L402.4685382603963,158.55936405886L405.3046777575334,143.68740887995583L406.99200125583013,151.1099990438258L407.80574592167534,136.57705011080483L409.4212684200446,131.03871800504223L409.4452020866871,125.27230929412349L409.8999417528947,112.77399553297352L410.17517891928355,104.03172801242124L413.4780249159495,128.25959150615225L414.65077458143236,151.66522090736302L414.7465092480024,158.28434392654952L416.82873824590047,147.00807418749525L417.2236437455018,164.6184484364572L418.1091894112746,129.75139455469395L418.57589591080347,157.61059064817798L421.0410635749817,122.25463173573189L421.9864434073607,114.66226416498512L422.6924865733147,142.6671626583451L426.22270240308444,156.04491031084038L427.7305234015624,117.6806406964754L428.1493625678063,139.34985218389653L429.034908233579,158.21414250458972L430.77009906516076,146.3391181599483L431.06926989819215,131.6385011755484L431.83514723075234,144.47659216604254L433.6062385622978,137.8847492423374L434.8029218944232,123.68106993023233L435.60469972694716,112.67091967459464L439.517854222997,94.69954031390392L439.52982105631827,93.32065454371974L439.90079288927717,124.7211173712588L443.6464117188295,148.31797936654465L443.7900137186845,143.84456041407086L443.83788105196953,152.37653673479926L443.8498478852908,167.50933319477622L445.22603371723494,169.265949166744L447.9903722144445,166.63711165042398L449.16312187992736,155.5647497166114L449.36655804638866,152.59407956110027L449.58196104617116,141.7505912725733L451.8197588772456,155.59917922831676L452.9087407094797,140.94750479901836L453.3156130424022,163.91423826034338L453.5310160421849,163.7010677157195L457.75530820458727,159.3637028021192L459.1554277031739,168.7955693604377L459.3109965363503,158.579609070256L460.41194520190555,154.60329938235287L460.75898336822195,156.7863060901836L465.52178303008077,126.41110457513417L465.8329206964334,157.10221132288947L466.3235608626048,136.90762097506502L466.62273169563616,142.49420120511832L468.28612152729033,166.13374960050785L469.0280651932081,149.16313557220073L471.51716652402877,162.1447169983503L471.7086358571689,158.4641197627714L472.5941815229416,158.32085413622212L473.1925231890043,151.32952237242745L475.80129285303747,165.4253095136808L477.9074555175781,173.48211320027286L478.21859318393075,166.6560892614696L478.9485700165272,167.47979100837134L479.92985034886993,178.37650606667768L480.75556184803645,129.36126777302437L481.76077584702176,118.63179493908211L483.3403978454272,131.7705039220807L483.472033011961,128.74388255845423L485.17132334357893,134.56558280204277L486.29620567577683,142.25006167656693L486.4637413422743,132.9505216238327L494.6729890006542,133.0072841141697L495.1157618335406,144.10564040433042L498.1433706638177,135.2179914124838L499.48365599579813,148.6889025977782L500.2615001616796,166.02331120876622L500.34526799492835,142.24264815831046L501.0154106609185,169.70118625362406L501.1231121608098,166.83656435858165L501.8291553267638,164.45666346108084L501.98472415994013,167.53090618187227L503.86351699137686,166.95005625534546L504.25842249097826,170.21684645222788L506.986860488224,149.86995940467799L508.26731165359814,146.1477979162856L509.6434974855423,152.01528447749806L510.2298723182837,142.35555785459974L510.9000149842739,110.08731480402633L512.4796369826794,112.31548270224977L512.5753716492494,145.91205308580248L514.1549936476548,131.74290098042223L515.5670799795628,123.16146054964872L515.8901844792366,145.4936657767019L515.9141181458791,146.56005500120534L516.9911331447919,147.65129391289406L517.8288114772796,124.96348312289823L518.2356838102023,147.58316058915537L518.5707551431973,153.82667451743495L522.4599759726048,150.22134107205676L522.567677472496,155.93784309525464L522.7112794723511,170.75254689064525L522.9386493054549,168.82285062234314L523.1420854719162,156.4936386901097L523.788294471264,160.65485946892883L523.931896471119,153.02079069364603L524.2310673041502,141.02155112949882L524.6738401370367,87.32411918491357L525.918390802447,115.09422050467884L526.1457606355508,121.19972641402347L527.4022781342825,131.00793742036976L530.0469482982794,126.96635391754145L530.2982517980258,117.33326069079368L530.9564276306947,130.2426685965001L531.9975421296438,137.86685499788527L532.8830877954165,150.55986829628495L535.0849851265272,141.02548656634164L541.6667434532166,131.88106527051212L541.9180469529629,142.8877672835381L542.0137816195329,120.97449414420993L542.1932841193517,148.72526362226392L543.4617684514046,164.0020810590126L544.5387834503174,153.40477441487786L546.9082164479256,151.06732403168695L546.9919842811744,156.47229823864913L547.8416294469833,157.99476082984387L549.0861801123938,182.4031633381254L549.289616278855,182.3963288273564L550.091394111379,174.42410652394705L552.5924622755209,165.50320562883851L552.9395004418374,137.47200699653962L557.175759437561,136.52340820500388L557.5347644371986,161.05907990968285L558.827182435894,176.20648230754588L559.4494577685992,172.53909474593746L559.820429601558,162.87863056063108L560.5025391008695,177.1373765575838L563.6378494310379,170.9188384477668L564.0327549306393,167.09939136039824L567.0603637609164,157.08404777082478L567.467236093839,163.80527966048294L570.7581152571837,157.05422914005058L572.098400589164,132.93078109129863L575.8799199186802,140.3100012696756L578.8357277490298,138.73053848072803L579.0271970821699,113.03552928564613L579.1588322487037,139.03765389463388L581.2649949132442,147.6156234767784L581.959071245877,149.06525020482636L582.198407912302,151.3155811649842L583.6344279108524,159.54008920435638L585.3217514091492,168.68727063122114L585.6089554088593,177.5406460676251L588.3852607393901,179.8892512728015L589.091303905344,176.26124573037833L593.949838233773,199.96874517057634L594.284909566768,195.89096364967287L594.895218066152,185.64961198163235L596.0560008983135,186.6996292746059L596.4269727312724,177.3610035239709L596.4868068978786,168.2073016912102L597.7552912299316,169.52721405563247L599.8016197278658,168.2061905320034L602.2428537254016,150.39603853613815L604.0019782236258,162.99721608966527L604.1934475567659,153.6403638270454L604.241314890051,151.6081978416081L604.6362203896522,150.41210768124517L604.8755570560774,156.28294301907962L605.7491358885288,151.6973739691104L608.7049437188784,141.9724661492389L611.1461777164141,169.36182680494178L611.469282216088,170.76089742791817L612.3069605485757,157.5225812555801L613.1207052144209,158.53978593001725L614.6763935461839,167.43495782036734L614.8678628793239,167.22072415758745L620.348672540458,165.43249902050687L621.7966593723297,176.51326166581495L623.1130110376675,164.31941258437357L625.5781787018458,174.55450306290604L625.7935817016285,191.90358109847946L628.3066166990916,203.06214891162185L631.9325671954314,181.0002330047676L635.4867166918436,185.08012731299533L638.3587566889445,176.92218646725485L638.7775958551885,182.87534346415515L639.423804854536,174.2712683092798L639.8067435208162,168.88774686753385L640.6683555199464,172.33322399744225L640.9914600196203,171.93840991414848L641.0393273529053,161.32464910103926L641.7932378521442,160.27598615133363L643.8874336833636,177.418808292514L644.0430025165399,145.17872592648823L645.0003491822401,146.90852381846352L645.0482165155252,157.03411841137466L645.4790225150904,174.4096495838506L646.5201370140394,165.24001508025594L646.603904847288,168.29974609871186L647.1304455134233,166.08712877357053L647.7646876794497,152.32785399537323L651.1273678427219,170.23127861810372L653.724170673434,149.8145069140957L653.8917063399315,159.88075302176009L655.662797671477,172.205452087865L657.3381543364525,189.09331492060173L659.8033220006307,203.37308851776262L659.911023500522,176.36344774333597L660.5452656665484,179.77910071319755L662.1607881649177,189.10275341121516L662.5915941644827,180.93606943771474L663.9677799964269,169.31289674631793L668.455342491897,174.02238393817316L669.1374519912083,178.25730696008193L670.0828318235874,171.61499909063153L670.5136378231525,160.90337285021866L671.8658899884541,168.33969910638282L672.0573593215943,162.97202003401443L673.0027391539733,180.75798364559023L674.031886819601,155.53771653219366L682.3967033111572,180.69298591372927L682.9112771439711,167.3717510138292L683.6292871432463,195.0222993000057L683.8686238096714,191.74959560623728L685.2567764749368,184.80902487272746L685.879051807642,166.75648094551653L686.5970618069172,168.4984130288722L687.0278678064823,161.15172811795134L687.6621099725087,185.27893012195744L687.86554613897,187.49891154360242L688.0330818054676,148.9300973385814L688.4638878050328,172.2780962926266L688.9305943045616,175.90223500326329L689.0981299710592,179.2350182786002L690.5820173028945,190.25722913092116L691.3598614687761,191.44706128536046L691.6350986351649,189.96920394874266L692.9035829672177,191.3198325474614L694.1601004659494,178.95892788126366L694.7105747987271,169.68225049799824L698.2407906284968,163.1422403406324L702.0941109579404,178.43147556403554L703.7455339562733,181.08396400069455L707.2159156194369,188.79462251634067L707.8621246187846,195.5242394034324L708.1612954518159,207.14067106473917L709.6691164502938,181.56741749879558L710.6384299493154,172.32515854467493L711.3684067819119,183.44670211922514L711.5957766150157,185.03941081820992L715.9995712772369,196.03047199539012L716.5979129432997,193.86455655261318L717.7108284421762,155.6823078712852L717.9022977753162,152.66571273942034L718.261302774954,144.9290509520331L719.1348816074054,158.32417183009844L720.4991006060283,168.653506648418L723.4549084363778,159.88462538092801L723.4788421030203,170.08081270451254L725.7286067674161,173.81231175306215L727.6433000988166,183.85197212054473L729.4981592636109,180.240183536021L730.6110747624874,182.6812004643341L731.2692505951563,173.82383247396814L731.9872605944316,160.9096620657936L736.869728589503,142.4573293642116L737.444136588923,162.11956426123228L737.539871255493,175.75510416269015L739.3109625870387,186.69513074909244L739.8734037531376,202.7428571746248L740.6632147523403,194.82909503177427L742.6975764169534,191.48040454332124L743.3557522496225,202.79150290066553L744.0857290822189,200.65735035072686L745.9645219136555,197.1857390967814L746.1799249134381,188.90605990934617L748.0228172449113,174.33388096653L749.4588372434616,158.79159950294138L750.7033879088721,186.20741670399332L751.0982934084733,185.081766076078L751.8641707410336,190.15343800823436L752.9292189066251,185.8828275279469L753.1087214064439,189.2511929949339L756.7227050694624,188.82870754262012L757.4287482354164,198.0127786932509L760.2768545658747,205.9352218713405L760.3606223991236,188.93699268827615L760.4084897324086,184.13618866848094L760.4563570656935,193.10911567314042L762.1436805639902,184.09532167463328L762.6702212301254,181.33194247261193L764.6567155614534,185.4544273260133L764.8362180612723,197.57043879132465L765.0875215610187,193.93453187912064L765.2670240608375,177.1730920448633L766.6791103927453,181.54136085856487L771.2743743881066,188.56429061401536L771.5376447211742,186.75242283756265L772.0641853873094,204.5175736499969L772.3992567203045,207.67654256028922L773.4523380525749,192.4524310268973L775.0080263843378,190.9493282956638L775.5465338837942,195.1193742437666L778.0715357145787,191.78143658509407L779.3400200466315,179.17703925120594L779.3759205465952,180.7048398548778L779.6870582129479,196.76928468069545L780.0580300459067,179.3703838239438L782.2000932104111,179.1257005774549L782.2599273770173,168.04493174481246L782.3556620435874,184.00905588443203L784.2942890416303,195.73070165466874L784.9285312076569,195.48272314256135L787.3218978719076,183.61169902036076L788.8177520370642,199.9718581498987L791.3666875344912,180.38774805584953L791.7615930340925,192.0201517403619L792.8984421996117,181.079651530599L793.7959546987057,182.48079499043152L793.9634903652033,186.6946017403985L795.0046048641523,188.28301918400336L797.1466680286566,172.14913918089073L797.541573528258,185.4717543715459L799.6836366927624,186.66512572746544L803.2736866891383,171.8724894629212L803.3454876890659,190.8718905796994L805.4875508535703,196.4174237155907L808.7903968502363,200.81351080903445L815.1926526771069,183.42632887114198L815.8029611764908,179.50882371285493L816.9278435086885,165.56106247663857L818.315996173954,170.35128545951352L818.9741720066229,173.99752901183268L819.3331770062605,171.8350715303041L820.2665900053183,189.08982594378838L820.5896945049922,200.83987830802465L820.7931306714536,187.0583371787515L823.7968058350881,198.34746532093877L823.9882751682281,200.85565762821037L826.7885141654015,180.74682057743507L827.3509553315004,181.45659994133743L828.7989421633721,196.77316300256996L831.2880434941927,196.74981433761369L831.6470484938304,195.79180115532162L832.4488263263544,194.44908605532584L836.6252511554718,203.01212331499283L837.7381666543483,203.40570830782886L837.8099676542759,194.36306182606978L838.0732379873434,195.59440310820688L839.1502529862563,189.96995724421234L841.2803493174395,179.63502312217145L842.7283361493111,179.30669560182224L843.625848648405,180.98358480961724L840.0956328186353,188.21234328653108L841.0888799842994,185.1796110916242L841.9385251501084,148.13866239923155L843.0993079822699,175.58140771330244L843.242909982125,171.16945967731706L843.8771521481514,195.91424876439493L845.0259681469918,184.87936205718378L846.7731258118947,195.07428457983144L852.2659023063501,209.2356679662034L853.2232489720503,207.4701632736822L856.7773984684626,189.66985983634768L857.1483703014216,197.97388894921372L857.2441049679916,166.32429693899917L861.0615247974714,164.95910051462425L862.8565497956594,151.2172694263018L865.2020491266251,184.13427952114418L866.8534721249581,198.91826665833963L867.6911504574457,207.90700296623302L867.7031172907671,204.24953459562155L868.7083312897524,183.18713027259844L870.5990909545104,185.3996111525286L871.9154426198482,181.3640762219314L872.9206566188336,177.85139546605438L874.3925771173477,184.9196014166265L875.7089287826856,204.61177231810433L876.6064412817796,208.91871864795576L877.2287166144847,210.00168059587816L880.6512309443633,205.0375136782403L880.7708992775758,214.4924882066014L882.7573936089038,196.2694932167121L885.1746939397971,188.57819614550453L886.3713772719225,187.57029285162184L886.5030124384562,160.72617591289318L887.1492214378039,179.64995356537915L889.4348866021634,198.8227642935748L889.9973277682623,199.04149684591079L890.9905749339263,194.79877168323375L891.8880874330202,189.65140852881748L892.2590592659792,201.12074508770485L892.8095335987567,193.49918087213564L893.6950792645296,197.04496947546858L894.1976862640222,206.33595224155857L894.987497263225,198.75974636040422L897.356930260833,192.5705915149319L899.0562205924512,213.2279087675419L902.0359620894432,197.22095162641452L904.860134753259,180.95708490424786L906.2123869185607,178.88940638758706L907.8877435835362,190.54552476908387L909.8144037482579,184.04670307170753L910.1494750812531,193.56468777423405L910.6879825807096,187.25691512165457L915.7020857423147,202.0688431433417L916.1089580752373,209.88776433469468L916.5756645747662,211.5653112641787L925.5507895657063,198.78704226832414L925.5627563990274,197.28848361758477L925.7661925654888,195.78580292370722L926.9269753976504,207.82960564173746L927.5372838970343,191.31787010983118L928.5305310626983,183.0968023724456L929.4639440617561,194.95201250383758L933.520700557661,178.644861939164L934.226743723615,184.71398701535853L936.4166742214044,190.126048762569L936.4286410547256,201.21112266165954L936.5842098879019,203.32352467470017L938.2715333861986,190.6224892527211L939.8152548846405,193.6363008536208L940.0665583843867,197.84721526247006L942.2923893821398,200.58704192793815L942.9744988814513,190.7058657298744L943.9198787138303,197.2039296318312L945.3199982124171,188.03649026688777L951.8179887058577,200.57336024352065L951.8658560391427,194.17358995657366L952.2368278721015,196.32393746749662L952.6676338716667,195.3152087144354L953.2779423710506,201.1349617898693L954.1874217034657,207.05248000425846L957.2868315336705,204.0362966990751L958.256145032692,203.975117437101L961.5589910293579,209.34993844125052L962.0615980288507,201.10112250051677L963.4258170274735,189.82211260854612L964.9336380259515,163.97839497984523L965.244775692304,187.50407818258947L966.6329283575694,178.50518678441782L968.4758206890424,188.90127387327888L969.1459633550326,185.010918240333L969.7562718544165,175.07609266620543L970.0195421874841,191.10764762970928L970.4144476870854,194.45078660060574L970.7136185201168,189.33070268668388L972.6283118515173,209.19986335936315L973.5617248505752,193.71004143770972L973.8249951836427,200.318831082853L973.8489288502851,203.95234240413842L975.069545849053,208.20466321505205L975.1054463490169,215.56693241585916L975.5841196818669,222.75615594805086L976.9483386804899,193.47855234247015L978.9228661784967,206.42353030279287L980.7178911766847,207.02836152553218L981.6154036757787,208.6738721865093L982.3453805083751,218.59258433991602L984.3797421729884,212.8740942291879L986.0431320046424,211.51384508525047L991.1888703327816,212.8328779866013L991.6795104989529,201.0085628178758L991.7393446655591,198.83403706217516L992.3017858316581,190.6541445500698L993.0197958309332,209.9066248088956L993.2950329973221,202.96195178811993L994.3361474962711,187.76736341184355L996.4423101608118,181.80282522140445L996.5260779940604,200.28651691297767L1004.5558231526215,200.92409792420986L1004.9866291521868,214.11613856397636L1007.8467023159662,212.14216696622339L1008.2176741489252,218.36450116587565L1011.7837904786586,205.35474962783485L1011.9991934784413,210.456065431407L1012.9565401441415,221.51086144515418L1013.6984838100593,220.60272765453178L1014.5122284759044,194.4027452671425L1017.2765669731141,198.89632964230253L1017.3005006397566,199.50686616296332L1018.8083216382345,207.22958470003258L1019.3228954710484,195.04568626451317L1020.7469486362775,193.54344209076893L1023.2958841337045,205.55585202601364L1023.9061926330884,212.62223600091565L1025.629416631349,228.65295376803218L1026.1918577974477,213.65398660260755L1026.574796463728,210.43481276282327L1027.5919772960344,199.23216387508594L1028.9801299613,200.36959476315582L1029.0638977945487,204.64953514542853L1029.1955329610826,208.96939516250833L1030.9785911259494,188.940927404889L1032.474445291106,196.45876034920218L1033.9822662895838,210.87680037592372L1035.6097556212742,230.3803728360681L1036.4474339537621,224.8078492297152L1037.7996861190636,213.27157646846268L1039.702412617143,203.23413226854146L1040.8871291159471,209.24438155933026L1043.1847611136277,226.59668769420225L1043.6873681131203,222.80235504391067L1044.560946945572,212.5548856354972L1045.2430564448835,214.2638344554148L1051.3461414387227,189.36171178143118L1052.1598861045677,204.31199361955817L1053.0813322703043,160.81380889751833L1053.248867936802,192.27238600914316L1053.7155744363308,194.85838838149488L1054.098513102611,187.27619610554115L1057.7364304322718,183.41054090602583L1059.0408152642885,200.55256151068474L1061.182878428793,190.02839772608883L1061.4581155951817,205.70820531418306L1063.7557475928625,217.07664485774524L1064.054918425894,215.98331270716506L1065.622573590978,219.12166921370263L1065.7063414242268,203.41409596182493L1065.9815785906155,190.95758690184257L1066.376484090217,214.15841227366104L1066.424351423502,207.08389852968503L1067.2021955893833,194.03527340884963L1067.980039755265,202.79450246650867L1070.2058707530182,211.3324241375603L1070.672577252547,193.5205232347382L1070.864046585687,201.24059778734568L1072.5872705839474,200.0802144987002L1072.8984082503,215.91135106200906L1073.3411810831865,210.13234487036576L1075.8901165806135,206.76996533470063L1076.3807567467848,214.0990727275729L1077.3261365791639,186.8710847765155L1077.9244782452265,181.7633938092335L1078.1518480783302,203.31257377536676L1077.756942578729,211.07163689442922L1080.91618657554,204.67219915933345L1082.2684387408415,218.762007443221L1082.6872779070854,219.6274165248929L1087.7492484019756,223.48640279228778L1089.281003067096,220.29956465879607L1091.315364731709,219.12631204567606L1094.618210728375,208.04564859474652L1096.0781643935682,208.70565357632307L1097.1312457258382,205.452555296597L1097.538118058761,203.11017308036588L1098.2680948913576,210.92714251160223L1098.48349789114,216.01968783929996L1099.381010390234,226.6597666852364L1101.1880022217433,218.59998284226123L1101.8102775544485,222.52476498560827L1103.485634219424,199.65588755617148L1106.3935747164885,208.1576313047923L1109.4092167134445,214.96598495574162L1111.3358768781663,208.73903897366299L1111.9102848775863,199.3194344103896L1114.2318505419096,211.74288358081273L1114.6147892081897,205.12044327252917L1114.7105238747597,204.52883088072673L1116.9722553724766,218.44810727654152L1117.1517578722953,216.96184580154105L1117.941568871498,225.08924467706984L1119.449389869976,221.1008900143486L1120.4665707022828,230.6537482316738L1121.1127797016302,223.0431145913044L1122.0461927006882,222.07918612384748L1124.4634930315813,212.76978015314342L1124.8464316978614,199.0794363996338L1125.2892045307476,197.97597189683765L1126.246551196448,200.5703548844426L1128.0535430279574,209.41104992271048L1130.303307692353,200.397855881909L1130.6742795253117,180.2650951574232L1131.0691850249132,196.75503954443934L1131.8350623574734,192.6941402632373L1132.3017688570021,202.14901881390216L1132.433404023536,218.5833085079963L1133.187314522775,217.77610471970644L1136.0114871865908,231.4535698648176L1136.358525352907,235.908982655328L1141.599998347616,231.55062782498962L1143.8736966786544,225.16015565877495L1143.957464511903,231.8866097535249L1145.5251196769873,237.46162153817744L1145.6806885101635,211.79723715572914L1146.2311628429413,202.5504397052521L1146.542300509294,204.80345817847657L1147.1885095086416,216.45871196106054L1148.2535576742332,222.42022308113695L1152.8607885029157,224.50786963880418L1153.542898002227,218.81910755864376L1154.8113823342799,220.44206612562903L1155.5892265001614,227.75166986621915L1156.127733999618,226.2782343490072L1157.9347258311273,217.85604777366476L1158.0783278309823,206.3525551443589L1161.237571827793,217.61694201052458L1161.608543660752,218.49014539883947L1161.7641124939285,194.509577369157L1164.6002519910653,204.18279157601006L1165.4020298235894,207.36874343568135L1168.1903019874412,205.66062627162484L1169.2912506529967,214.07872456774882L1169.877625485738,220.25564214423707L1171.1580766511124,220.12616843886403L1173.9942161482493,201.52329620593756L1175.2267999803385,177.23775803804392L1176.243980812645,171.41308569986435L1176.4354501457851,197.6881863198444L1181.0067804745038,214.65981613845534L1181.210216640965,214.09311892891523L1182.5385351396244,214.2925995115479L1182.765904972728,215.11451356590305L1183.7352184717497,212.77550962849546L1184.4771621376674,220.93093996752032L1186.8944624685605,201.33955498008416L1187.8757428009035,209.86202343014259L1189.4433979659875,218.4484839011402L1195.0678096269767,214.42528298498664L1196.9107019584496,209.18766535924456L1197.1500386248747,200.03056735428814L1199.6152062890528,210.0390900466501L1200.7879559545358,207.26174598269506L1201.697435286951,204.27537587944755L1203.492460285139,196.27498090186128L1203.731796951564,195.32779529975952L1203.767697451528,207.0457983883336L1204.5096411174457,220.13678675993145L1204.7848782838346,225.6610435935297L1204.8207787837982,220.98502643869813L1207.22611228137,209.71117343898698L1208.0996911138218,224.9513830578094L1209.1168719461282,236.0651535115772L1209.4280096124808,227.7505420901585L1210.9358306109586,230.3332928955041L1211.6897411101977,218.39976601931167L1216.7158111051242,211.74445000065785L1217.421854271078,220.26687829948506L1217.4457879377208,218.89617043122158L1217.8167597706795,213.35321927843435L1218.6664049364883,216.1525818932153L1221.4666439336618,229.37424994990172L1222.6274267658234,231.64546357505446L1225.5952014294942,223.10587150736987L1228.0125017603873,232.8099687151382L1230.7409397576332,222.78043087046706L1232.655633089034,229.26947208702592L1236.4730529185138,233.18760824106607L1236.9995935846487,235.97269635989997L1238.3398789166292,229.46666251611924L1238.7946185828368,208.87968904010114L1241.3076535803,207.31074295845852L1242.5881047456742,215.3443739742652L1244.2514945773285,223.4350788471368L1244.5745990770022,209.90082964776704L1246.0943869088014,212.76115937492867L1247.7338430738132,216.09669645669132L1248.4039857398031,208.98372333554084L1248.7869244060835,226.11554377492166L1249.6365695718926,224.21281167028502L1250.0793424047788,224.55725802539087L1254.1839662339687,222.3211884013087L1255.2490143995603,224.03992673905918L1255.524251565949,228.46426015515502L1256.2422615652242,220.19061842274832L1259.4613397286414,217.97585325947261L1260.4186863943419,222.8249003377434L1261.423900393327,229.02429299722186L1261.9025737261773,225.66247194985206L1262.2615787258148,232.9857284302964L1263.0394228916964,218.06889669743214L1263.4223615579763,210.05676357819627L1268.0415592199802,200.4305077635923L1269.6929822183133,213.5373113523583L1270.530660550801,222.59093952674638L1271.3683388832887,216.29264729007718L1272.804358881839,218.6698681791166L1273.3308995479742,198.3990688482458L1274.9583888796647,199.7951094970052L1275.6404983789762,214.72269894811708L1276.7055465445676,224.56859307643168L1277.3517555439155,212.007305155187L1278.3091022096157,218.1375171206586L1279.6254538749536,219.90001370033306L1279.745122208166,223.47030866818443L1281.4563793731054,226.63782795541118L1282.3299582055567,237.88546641229647L1284.6275902032376,229.9180516505771L1285.4652685357253,221.85311727110243L1286.0516433684666,209.79331553240374L1286.2670463682493,216.60683319699018L1287.0329237008095,203.75347346977668L1288.8159818656763,225.35399344154953L1291.640154529492,222.2614659334621L1292.4179986953736,224.65051201691907L1294.990867859443,211.30444187132224L1297.8150405232589,221.21538815379856L1298.0663440230053,226.03623583712957L1299.0835248553117,227.48223472032572L1299.1074585219542,211.32301841419869L1302.3385035186927,219.02223492935292L1303.4992863508542,211.80713159072644L1307.125236847194,228.96940080019795L1307.591943346723,223.21461741255584L1309.5784376780512,204.7149950937929L1310.4998838437875,220.73141215419975L1310.7751210101762,228.49195770448299L1312.7137480082195,198.311215109649L1313.9941991735934,212.95857338035913L1314.3771378398735,208.20089025633698L1314.7002423395475,215.21435568111795L1314.8079438394388,216.04456505468883L1315.6575890052477,216.53348313450738L1316.4114995044868,222.3230910085222L1316.5551015043418,224.06723658567628L1317.5483486700057,203.06231224129928L1318.4937285023848,201.76918091593356L1319.7023786678315,214.38567784747215L1319.9417153342565,224.58936748076277L1320.6477585002106,213.2453812083509L1320.8511946666717,224.65476434680147L1321.533304165983,209.82113834147216L1321.664939332517,219.2539282152067L1323.41209699742,212.38762824956459L1323.9625713301978,230.38306583581297L1326.7388766607285,228.55788340487493L1326.9782133271535,217.29087977443993L1331.250372822841,229.96992250263622L1331.3341406560899,227.65779634868562L1333.3445686540604,226.26065113168033L1333.751440986983,219.58480597507346L1334.134379653263,224.94135793517094L1334.7805886526107,223.3498862720411L1335.8576036515237,232.18713137769154L1338.191136149168,235.22775249894178L1338.562107982127,232.54690282097283L1339.220283814796,237.3238475703955L1339.6391229810397,227.87979094648583L1339.7587913142522,236.18987014321758L1342.0923238118967,233.52829734232088L1343.4206423105559,221.8292984127081L1345.1558331421377,228.39993859202428L1345.8140089748065,234.6253799542715L1348.3509776389121,232.42337596089044L1350.0502679705303,222.49361109215337L1350.9597473029455,217.75523524859847L1352.7667391344548,225.2857345915264L1354.8968354656379,224.41239764279078L1355.5909117982706,226.5723144039575L1360.0186401271344,214.45764164783048L1361.2631907925447,221.78049887661425L1361.4307264590423,220.1953926011419L1361.6580962921462,222.6065619398129L1362.1487364583174,239.73849082403052L1362.316272124815,236.67802022257428L1362.4957746246337,230.5917064133228L1362.65134345781,236.90080356805123L1363.118049957339,223.92609640756643L1363.5967232901892,235.98183004369534L1363.7044247900806,234.3683697657372L1364.3865342893919,222.998617034181L1364.673738289102,208.39000132846755L1366.708099953715,222.4101415478583L1366.7320336203575,224.2108352371859L1368.7544284516493,219.56107966980895L1370.8605911161899,205.38355516656372L1371.9615397817452,217.17463060666552L1372.512014114523,213.2996300586108L1372.8231517808756,218.48957565390782L1372.9906874473731,221.93153921011793L1375.3002862783749,232.1946113036964L1378.040691108942,227.35206695389857L1378.7228006082535,233.5416407927137L1380.1947211067677,243.34008243846677L1382.3008837713082,242.40746029704945L1383.4975671034335,215.92726309199023L1384.7301509355227,216.19519050107303L1388.7270732648212,229.24016752964351L1390.318662096548,232.33591025492376L1396.6371500901698,233.69258784492385L1397.1158234230202,239.41777868278874L1397.5107289226214,213.0100885808847L1399.712626253732,204.84303691023925L1400.693906586075,211.6880868586099" fill="none"></path></g></g></g></g><g opacity="0.2"><g><g><g><path style="fill: none;" stroke="rgb(255, 112, 67)" stroke-width="2px" d="M125.34061220680873,-234.38052820856717L126.08255587272645,28.144589402116026L126.59712970554034,37.25241040428364L126.68089753878911,-122.90504985803159L127.25530553820927,0.4379049906467003L127.41087437138557,19.239173895000988L128.21265220390956,-86.2122334765416L135.66798936305045,-118.39671319084994L136.24239736247063,95.41878984507684L136.3261651957194,-114.72292306558364L136.85270586185456,66.42405222871866L139.90424835877417,-85.27874093815967L140.41882219158808,72.90240719605009L140.45472269155184,65.49966191961124L142.13007935652732,95.46089078984801L142.60875268937747,84.60478981666228L144.03280585460664,-85.39288239176221L145.98339968597094,21.65128972776631L147.27581768466632,88.22527046689362L148.2570980170091,21.984586784287558L148.819539183108,84.47121522893366L149.40591401584945,34.980990462591194L149.4178808491707,37.88495265133486L149.56148284902574,-51.43923522162669L151.7992806801001,21.79253726909826L152.45745651276908,-96.37272854806059L156.0235728425026,7.630672118476639L158.32120484018327,106.57416108380437L158.51267417332332,36.269896217880444L159.21871733927728,21.14768319126523L162.96433616882962,57.33942561244345L162.98826983547212,137.1977840026112L163.58661150153478,-72.23878196440182L165.3098354997953,-34.870469840689054L165.39360333304404,97.75003876486585L166.67405449841817,56.09096585114827L167.00912583141326,82.56075008175094L167.96647249711353,-20.354971798996246L171.32915266038577,35.731836615199654L172.3223998260498,-20.32994693724413L173.4233484916051,129.3340847847016L173.62678465806644,57.71763201505479L175.62524582271575,10.939370072290217L176.96553115469615,81.79450787191223L179.15546165248554,68.2756913982758L180.77098415085476,93.8673737915089L181.10605548384981,62.086977891964295L183.63105731463432,-62.11233875887416L183.7985929811319,73.75661254719756L186.07229131217002,71.7391021747448L188.15452031006814,48.52362819741444L189.17170114237467,38.23379621515693L189.8418438083649,100.21568974777205L189.92561164161364,83.3560793052493L190.35641764117878,-6.397743819475238L191.3496648068428,112.21165060625293L193.86269980430603,141.23820841255434L194.09006963740984,110.58315396648675L194.9277479698976,49.19170173615163L198.3382954664548,18.789955059041176L199.8341496316115,37.13571129948002L199.97775163146656,116.55602177143396L201.68900879640577,69.70175746797759L203.02929412838617,73.83502210901986L205.29102562610308,21.82641361000708L208.00749679002763,71.31074574858229L208.94090978908537,103.15402977766007L208.97681028904913,96.95641464216823L209.5512182884693,106.12140667118416L212.8660311184565,42.228747091245054L212.98569945166906,80.04610252583518L213.40453861791295,-23.364700387409243L215.29529828267098,102.4010020990271L216.19281078176496,116.89947420772432L217.55702978038786,6.911320180658322L218.0476699465593,87.38668684808232L219.74696027817726,76.17361800725911L219.91449594467483,79.036432101679L221.3624827765465,69.00923579275911L221.482151109759,123.29277473511294L222.5950666086356,43.98028681379401L225.9098794386228,70.69139295772504L226.59198893793425,33.16929578679253L227.28606527056695,115.70838607337168L230.48120976734162,96.02099132787959L232.97031109816234,105.26346514328213L233.99945876379016,116.13466127355684L234.15502759696642,119.93237210701807L235.72268276205062,24.09494992534536L237.45787359363237,90.19995271923364L238.2237509261926,-189.0743449821125L242.6395124217351,86.59491827625607L242.7232802549839,42.453745171907485L244.1114329202493,38.75377673434747L245.06877958594958,59.802970294360534L245.5833534187635,75.98357449301187L246.60053425107,118.5245104958654L248.67079641564686,118.23564636021052L250.1307500808398,16.394890234283253L250.16665058080355,97.65502954524811L250.8966274134,44.622633390449494L250.99236207997006,63.75943102737307L251.5428364127477,127.89207100751057L252.52411674509048,57.37377837857599L256.31760290792784,106.68852821251284L256.95184507395425,115.87413190120839L257.6698550732295,48.23814918834927L258.0767274061521,123.03934159109698L259.50078057138126,94.94983697484963L260.386326237154,45.864448273624134L262.89936123461723,110.02515972944445L262.9591954012235,-7.681584422385811L265.2328937322617,14.31755088373393L266.74071473073957,171.59100866667885L271.3000782261372,152.14718004806898L273.7652458903153,143.1743378342894L274.50718955623313,133.624331536965L275.64403872175217,61.544279412105084L275.96714322142606,130.71304744478286L280.04783338397345,107.74052525654628L281.77105738223395,128.94703944043937L282.38136588161785,5.326980636629003L282.6566030480067,142.63976365824544L284.93030137904486,110.779792208831L288.1613463757833,136.78637828440898L289.84866987408003,77.06282807484536L290.7222487065315,140.70200436074498L291.2487893726667,91.48103507084886L292.5531742046833,110.22242484708306L294.8388393690427,149.96359787262645L295.1978443686803,36.995817808783954L295.4252142017841,158.02083856892602L296.52616286733945,169.30626135622768L296.88516786697704,33.841657152543405L297.65104519953724,129.57026632061596L297.8784150326411,140.13176098045022L303.0480870274226,85.04525747351238L304.83114519228934,122.1863649155265L305.23801752521194,153.80352248841191L308.026289689064,59.07020322524227L308.3134936887741,63.893782940466735L312.5258190178553,54.758605100451916L314.11740784958204,91.82368510676241L314.97901984871226,68.98122700460578L319.47854917750357,126.83558553636936L320.81883450948396,105.33410145145399L321.3932425089041,110.1216734497687L321.8958495083968,101.41174273445625L323.8943106730461,38.62629537448038L324.26528250600495,66.5555957404934L326.59881500364935,167.54624627969855L326.89798583668073,125.99902045600598L327.1612561697483,50.28447074933217L329.60249016728403,103.89685192650029L329.7700258337816,103.91989586232211L330.1170640000979,116.40296389955574L330.21279866666794,136.50310587638006L335.84917716097834,116.65281131688778L340.4683748229822,145.95204733874291L348.42631898161574,172.64216569781777L349.06056114764215,71.70577748409505L350.28117814641,57.61525074197499L353.39255480993586,153.39543920926997L354.6969396419525,91.70503015104026L354.8644753084501,101.48774509514811L355.7859214741866,169.63589746102966L357.16210730613074,165.58146865700988L358.9451654709975,126.3354268139874L359.6392418036302,155.6614178734071L359.74694330352145,97.61937287850321L359.8307111367702,125.48563466491242L361.0991954688231,72.80674602612618L361.1949301353931,126.00353395812559L362.04457530120214,143.11287898042738L363.4446947997888,138.82796066816633L364.6294112985929,132.89594005740156L364.64137813191417,69.88603372951644L365.0961177981217,149.68812379325976L367.50145129569376,147.42872731971372L367.5373517956575,146.0261565360457L368.1237266283989,101.34923073009969L368.410930628109,170.3391261662763L371.10346812539103,129.69722110523577L371.8693454579512,11.54322650587011L372.64718962383273,113.96216225331915L372.9224267902215,134.15425429832456L373.9635412891706,133.84718570412062L374.82515328830084,161.2294370757314L376.4047752867063,123.01283730365014L380.29399611611365,95.08707251429746L385.0448289446513,183.28984317312478L385.6072701107502,156.7056792763077L386.0620097769578,139.96542588983684L386.3970811099529,142.46220749986244L387.7613001085758,101.01470499800143L392.1650947707971,173.23108996188532L395.73121110053063,157.9854075772871L395.85087943374316,163.3129323416716L396.37742009987835,154.6316122147951L396.6885577662309,110.78009310897232L397.2270652656873,106.03755583180657L397.50230243207614,155.04936191097656L398.3998149311701,121.80301813550119L399.1896259303729,196.0122271227447L400.54187809567446,129.3639741987381L402.0975664274375,138.68035661134925L402.22920159397125,145.52866830241783L402.4685382603963,180.36567052489002L405.3046777575334,121.37947611159956L406.99200125583013,162.2438842896308L407.80574592167534,114.77762671127329L409.4212684200446,122.73121984639843L409.4452020866871,116.62269622774528L409.8999417528947,94.02652489124858L410.17517891928355,90.91832673159269L413.4780249159495,164.6013867467489L414.65077458143236,186.7736650091791L414.7465092480024,168.2130284553293L416.82873824590047,130.09366957891385L417.2236437455018,191.0340098099001L418.1091894112746,77.45081373204914L418.57589591080347,199.3993847884041L421.0410635749817,69.22069336706272L421.9864434073607,103.27371280886496L422.6924865733147,184.67451039838502L426.22270240308444,176.11153178958344L427.7305234015624,60.1342362749279L428.1493625678063,171.8536694150282L429.034908233579,186.51057798562957L430.77009906516076,128.52658164298614L431.06926989819215,109.58757569894851L431.83514723075234,163.7337286517838L433.6062385622978,127.99698485677965L434.8029218944232,102.3755509620749L435.60469972694716,96.15569429113805L439.517854222997,67.74247127286776L439.52982105631827,91.25232588844364L439.90079288927717,171.82181161256733L443.6464117188295,183.71327235947342L443.7900137186845,137.13443198536015L443.83788105196953,165.17450121589192L443.8498478852908,190.20852788474159L445.22603371723494,171.9008731246958L447.9903722144445,162.69385537594388L449.16312187992736,138.9562068158926L449.36655804638866,148.13807432783358L449.58196104617116,125.48535883978289L451.8197588772456,176.37206116193192L452.9087407094797,118.96999315507065L453.3156130424022,198.364338452331L453.5310160421849,163.38131189878365L457.75530820458727,152.85765543171874L459.1554277031739,182.94336919791547L459.3109965363503,143.25566863498352L460.41194520190555,148.6388348504981L460.75898336822195,160.06081615192969L465.52178303008077,80.84830230256011L465.8329206964334,203.1388714445224L466.3235608626048,106.61573545332828L466.62273169563616,150.87407155019835L468.28612152729033,201.59307219359218L469.0280651932081,123.70721452973999L471.51716652402877,181.61708913757474L471.7086358571689,152.94322390940295L472.5941815229416,158.10595569639827L473.1925231890043,140.8425247267354L475.80129285303747,186.56899022556078L477.9074555175781,185.56731873016102L478.21859318393075,156.41705335326472L478.9485700165272,168.71534362872396L479.92985034886993,194.72157865413706L480.75556184803645,55.83841033254447L481.76077584702176,102.5375856881688L483.3403978454272,151.47856739657857L483.472033011961,124.20395051301455L485.17132334357893,143.29813316742553L486.29620567577683,153.77677998835324L486.4637413422743,119.00121154473129L494.6729890006542,133.09242784967518L495.1157618335406,160.75317483957159L498.1433706638177,121.88651792471393L499.48365599579813,168.89526937571975L500.2615001616796,192.02492412524816L500.34526799492835,106.57165358262682L501.0154106609185,210.88899339659446L501.1231121608098,162.5396315160181L501.8291553267638,160.8868121148296L501.98472415994013,172.14227026305946L503.86351699137686,166.07878136555527L504.25842249097826,175.11703174755152L506.986860488224,119.34962883335322L508.26731165359814,140.56455568369702L509.6434974855423,160.81651431931672L510.2298723182837,127.86596792025219L510.9000149842739,61.684950228166144L512.4796369826794,115.65773454958497L512.5753716492494,196.3069086611315L514.1549936476548,110.48917282235186L515.5670799795628,110.2892999034886L515.8901844792366,178.9919736172816L515.9141181458791,148.15963883796056L516.9911331447919,149.2881522804272L517.8288114772796,90.9317669379044L518.2356838102023,181.5126767885411L518.5707551431973,163.19194540985436L522.4599759726048,144.81334090398948L522.567677472496,164.5125961300515L522.7112794723511,192.97460258373124L522.9386493054549,165.92830621988992L523.1420854719162,137.99982079175956L523.788294471264,166.89669063715758L523.931896471119,141.56968753072186L524.2310673041502,123.02269178327799L524.6738401370367,6.777971268035685L525.918390802447,156.7493724843267L526.1457606355508,130.35798527804045L527.4022781342825,145.7202539298893L530.0469482982794,120.90397866329891L530.2982517980258,102.883620850672L530.9564276306947,149.6067804550597L531.9975421296438,149.3031345999631L532.8830877954165,169.59938824388442L535.0849851265272,126.72391397142673L541.6667434532166,118.16443332676783L541.9180469529629,159.397820303077L542.0137816195329,88.10458443521765L542.1932841193517,190.3514178393448L543.4617684514046,186.9173072141356L544.5387834503174,137.5088144486757L546.9082164479256,147.5611484569006L546.9919842811744,164.57975954909242L547.8416294469833,160.27845471663596L549.0861801123938,219.01576710054772L549.289616278855,182.38607706120285L550.091394111379,162.46577306883307L552.5924622755209,152.12185428617562L552.9395004418374,95.4252090480914L557.175759437561,135.10051001770026L557.5347644371986,197.8625874667013L558.827182435894,198.92758590434036L559.4494577685992,167.03801340352484L559.820429601558,148.3879342826715L560.5025391008695,198.52549555301277L563.6378494310379,161.59103128304136L564.0327549306393,161.37022072934545L567.0603637609164,142.06103238646466L567.467236093839,173.88712749497026L570.7581152571837,146.92765335940194L572.098400589164,96.74560901817074L575.8799199186802,151.37883153724115L578.8357277490298,136.36134429730672L579.0271970821699,74.49301549302328L579.1588322487037,178.04084080811552L581.2649949132442,160.4825778499952L581.959071245877,151.23969029689835L582.198407912302,154.69107760522093L583.6344279108524,171.87685126341475L585.3217514091492,182.40804277151824L585.6089554088593,190.820709222231L588.3852607393901,183.41215908056614L589.091303905344,170.81923741674362L593.949838233773,235.5299943308734L594.284909566768,189.77429136831768L594.895218066152,170.28758447957156L596.0560008983135,188.27465521406634L596.4269727312724,163.35306489801846L596.4868068978786,154.476748942069L597.7552912299316,171.5070826022659L599.8016197278658,166.2246552465598L602.2428537254016,123.68081054234028L604.0019782236258,181.89898241995596L604.1934475567659,139.6050854331156L604.241314890051,148.5599488634521L604.6362203896522,148.61797244070084L604.8755570560774,165.08919602583134L605.7491358885288,144.8190203941567L608.7049437188784,127.38510441943157L611.1461777164141,210.4458677884961L611.469282216088,172.85950336238272L612.3069605485757,137.665106997073L613.1207052144209,160.06559294167292L614.6763935461839,180.77771565589248L614.8678628793239,166.89937366341755L620.348672540458,162.750161314886L621.7966593723297,193.1344056337771L623.1130110376675,146.0286389622115L625.5781787018458,189.9071387807048L625.7935817016285,217.92719815183963L628.3066166990916,219.80000063133542L631.9325671954314,147.9073591444863L635.4867166918436,191.1999687753369L638.3587566889445,164.68527519864412L638.7775958551885,191.8050789595056L639.423804854536,161.3651555769668L639.8067435208162,160.81246470491496L640.6683555199464,177.50143969230479L640.9914600196203,171.3461887892078L641.0393273529053,145.40400788137546L641.7932378521442,158.70299172677522L643.8874336833636,203.1330415042846L644.0430025165399,96.81860237744951L645.0003491822401,149.5032206564265L645.0482165155252,172.22251030074136L645.4790225150904,200.47294634256448L646.5201370140394,151.48556332486396L646.603904847288,172.8893426263957L647.1304455134233,162.76820278585856L647.7646876794497,131.68894182807733L651.1273678427219,197.0864155521995L653.724170673434,119.18934935808358L653.8917063399315,174.98012218325673L655.662797671477,190.69250068702237L657.3381543364525,214.4251091697068L659.8033220006307,224.79274891350394L659.911023500522,135.84898658169595L660.5452656665484,184.90258016798998L662.1607881649177,203.0882324582416L662.5915941644827,168.68604347746415L663.9677799964269,151.87813770922273L668.455342491897,181.08661472595608L669.1374519912083,184.6096914929451L670.0828318235874,161.6515372864559L670.5136378231525,144.8359334895993L671.8658899884541,179.4941884906291L672.0573593215943,154.92050142546177L673.0027391539733,207.4369290629539L674.031886819601,117.70731586209871L682.3967033111572,218.4258899860327L682.9112771439711,147.38989866397918L683.6292871432463,236.49812172927037L683.8686238096714,186.84054006558463L685.2567764749368,174.3981687724628L685.879051807642,139.67766505470007L686.5970618069172,171.11131115390577L687.0278678064823,150.13170075157004L687.6621099725087,221.46973312796652L687.86554613897,190.82888367606986L688.0330818054676,91.07687603104978L688.4638878050328,207.30009472369449L688.9305943045616,181.3384430692184L689.0981299710592,184.23419319160556L690.5820173028945,206.7905454094026L691.3598614687761,193.2318095170194L691.6350986351649,187.75241794381597L692.9035829672177,193.3457754455395L694.1601004659494,160.417570881967L694.7105747987271,155.76723442310012L698.2407906284968,153.33222510458367L702.0941109579404,201.36532839914034L703.7455339562733,185.06269665568306L707.2159156194369,200.36061028980984L707.8621246187846,205.61866473407005L708.1612954518159,224.56531855669928L709.6691164502938,143.20753714988027L710.6384299493154,158.46177011349397L711.3684067819119,200.1290174810504L711.5957766150157,187.42847386668703L715.9995712772369,212.51706376116041L716.5979129432997,190.61568338844782L717.7108284421762,98.40893484929319L717.9022977753162,148.140820041623L718.261302774954,133.32405827095224L719.1348816074054,178.41685314719652L720.4991006060283,184.1475088758973L723.4549084363778,146.73130347969314L723.4788421030203,185.37509368988933L725.7286067674161,179.40956032588647L727.6433000988166,198.91146267176865L729.4981592636109,174.82250065923535L730.6110747624874,186.34272585680372L731.2692505951563,160.5377804884192L731.9872605944316,141.5384064535318L736.869728589503,114.77883031183853L737.444136588923,191.61291660676332L737.539871255493,196.20841401487698L739.3109625870387,203.10517062869602L739.8734037531376,226.81444681292322L740.6632147523403,182.9584518174985L742.6975764169534,186.45736881064175L743.3557522496225,219.75815043668194L744.0857290822189,197.45612152581887L745.9645219136555,191.97832221586322L746.1799249134381,176.4865411281934L748.0228172449113,152.47561255230576L749.4588372434616,135.4781773075584L750.7033879088721,227.33114250557117L751.0982934084733,183.393290134205L751.8641707410336,197.76094590646895L752.9292189066251,179.47691180751573L753.1087214064439,194.3037411954144L756.7227050694624,188.19497936414936L757.4287482354164,211.78888541919707L760.2768545658747,217.81888663847494L760.3606223991236,163.43964891367958L760.4084897324086,176.93498263878817L760.4563570656935,206.56850618012967L762.1436805639902,170.5746306768727L762.6702212301254,177.1868736695799L764.6567155614534,191.63815460611548L764.8362180612723,215.7444559892916L765.0875215610187,188.48067151081463L765.2670240608375,152.0309322934773L766.6791103927453,188.09376407911716L771.2743743881066,199.09868524719113L771.5376447211742,184.03462117288356L772.0641853873094,231.16529986864825L772.3992567203045,212.41499592572782L773.4523380525749,169.61626372680936L775.0080263843378,188.69467419881346L775.5465338837942,201.37444316592075L778.0715357145787,186.77453009708537L779.3400200466315,160.27044325037366L779.3759205465952,182.9965407603856L779.6870582129479,220.86595191942192L780.0580300459067,153.27203253881635L782.2000932104111,178.75867570772144L782.2599273770173,151.4237784958489L782.3556620435874,207.9552420938614L784.2942890416303,213.31317031002382L784.9285312076569,195.1107553744002L787.3218978719076,165.80516283705998L788.8177520370642,224.5120968442056L791.3666875344912,151.01158291477574L791.7615930340925,209.46875726713054L792.8984421996117,164.66890121595466L793.7959546987057,184.58251018018035L793.9634903652033,193.0153118653489L795.0046048641523,190.6656453494107L797.1466680286566,147.94831917622173L797.541573528258,205.4556771575287L799.6836366927624,188.45518276134473L803.2736866891383,149.6835350661048L803.3454876890659,219.37099225486674L805.4875508535703,204.73572341942773L808.7903968502363,207.4076414492L815.1926526771069,157.3455559643033L815.8029611764908,173.6325659754244L816.9278435086885,144.63942062231396L818.315996173954,177.53661993382593L818.9741720066229,179.4668943403114L819.3331770062605,168.5913853080113L820.2665900053183,214.9719575640149L820.5896945049922,218.4649568543791L820.7931306714536,166.38602548484167L823.7968058350881,215.28115753421977L823.9882751682281,204.61794608911777L826.7885141654015,150.58356500127218L827.3509553315004,182.52126898719095L828.7989421633721,219.7480075944187L831.2880434941927,196.71479134017926L831.6470484938304,194.3547813818836L832.4488263263544,192.43501340533217L836.6252511554718,215.85667920449328L837.7381666543483,203.99608579708297L837.8099676542759,180.79909210343118L838.0732379873434,197.4414150314125L839.1502529862563,181.53328844822067L841.2803493174395,164.13262193910998L842.7283361493111,178.81420432129852L843.625848648405,183.4989186213097L840.0956328186353,199.05548100190177L841.0888799842994,180.63051279926384L841.9385251501084,92.57723936064264L843.0993079822699,216.74552568440876L843.242909982125,164.55153762333902L843.8771521481514,233.0314323950117L845.0259681469918,168.32703199636708L846.7731258118947,210.3666683638029L852.2659023063501,230.4777430457614L853.2232489720503,204.82190623490047L856.7773984684626,162.96940468034592L857.1483703014216,210.4299326185127L857.2441049679916,118.84990892367733L861.0615247974714,162.91130587806188L862.8565497956594,130.6045227938181L865.2020491266251,233.50979466340772L866.8534721249581,221.09424736413285L867.6911504574457,221.39010742807312L867.7031172907671,198.7633320397043L868.7083312897524,151.59352378806378L870.5990909545104,188.71833247242375L871.9154426198482,175.31077382603567L872.9206566188336,172.58237433223883L874.3925771173477,195.5219103424847L875.7089287826856,234.1500286703211L876.6064412817796,215.37913814273293L877.2287166144847,211.62612351776167L880.6512309443633,197.59126330178347L880.7708992775758,228.67494999914308L882.7573936089038,168.9350007318782L885.1746939397971,177.04125053869316L886.3713772719225,186.0584379107979L886.5030124384562,120.46000050480018L887.1492214378039,208.03562004410807L889.4348866021634,227.58198038586835L889.9973277682623,199.36959567441468L890.9905749339263,188.43468393921822L891.8880874330202,181.93036379719314L892.2590592659792,218.32474992603582L892.8095335987567,182.06683454878183L893.6950792645296,202.36365238046804L894.1976862640222,220.27242639069354L894.987497263225,187.3954375386727L897.356930260833,183.2868592467235L899.0562205924512,244.2138846464569L902.0359620894432,173.21051591472343L904.860134753259,156.56128482099797L906.2123869185607,175.78788861259582L907.8877435835362,208.02970234132903L909.8144037482579,174.298470525643L910.1494750812531,207.84166482802382L910.6879825807096,177.79525614278535L915.7020857423147,224.2867351758724L916.1089580752373,221.61614612172423L916.5756645747662,214.08163165840466L925.5507895657063,179.61963877454247L925.5627563990274,195.04064564147563L925.7661925654888,193.53178188289087L926.9269753976504,225.89530971878284L927.5372838970343,166.55026681197182L928.5305310626983,170.76520076636723L929.4639440617561,212.7348277009256L933.520700557661,154.18413609215372L934.226743723615,193.81767462965033L936.4166742214044,198.2441413833847L936.4286410547256,217.83873351029533L936.5842098879019,206.4921276942612L938.2715333861986,171.5709361197525L939.8152548846405,198.15701825497038L940.0665583843867,204.16358687574396L942.2923893821398,204.69678192614023L942.9744988814513,175.8841014327788L943.9198787138303,206.9510254847664L945.3199982124171,174.28533121947262L951.8179887058577,219.37866520847007L951.8658560391427,184.5739345261531L952.2368278721015,199.54945873388104L952.6676338716667,193.8021155848436L953.2779423710506,209.8645914030201L954.1874217034657,215.9287573258422L957.2868315336705,199.51202174130006L958.256145032692,203.88334854413986L961.5589910293579,217.41216994747478L962.0615980288507,188.72789858941613L963.4258170274735,172.90359777059012L964.9336380259515,125.21281853679395L965.244775692304,222.79260298670582L966.6329283575694,165.00684968716027L968.4758206890424,204.49540450657042L969.1459633550326,179.1753847909142L969.7562718544165,160.17385430501406L970.0195421874841,215.15498007496498L970.4144476870854,199.46549505695046L970.7136185201168,181.65057681580103L972.6283118515173,239.00360436838213L973.5617248505752,170.47530855522953L973.8249951836427,210.23201555056792L973.8489288502851,209.4026093860665L975.069545849053,214.58314443142248L975.1054463490169,226.61033621706986L975.5841196818669,233.53999124633847L976.9483386804899,149.56214693409916L978.9228661784967,225.8409972432769L980.7178911766847,207.9356083596411L981.6154036757787,211.142138177975L982.3453805083751,233.470652570026L984.3797421729884,204.29635906309574L986.0431320046424,209.47347136934434L991.1888703327816,214.8114273386275L991.6795104989529,183.27209006478765L991.7393446655591,195.5722484286242L992.3017858316581,178.38430578191176L993.0197958309332,238.78534519713438L993.2950329973221,192.54494225695638L994.3361474962711,164.975480847429L996.4423101608118,172.85601793574594L996.5260779940604,228.0120544503375L1004.5558231526215,201.88046944105818L1004.9866291521868,233.9041995236261L1007.8467023159662,209.18120956959388L1008.2176741489252,227.69800246535405L1011.7837904786586,185.84012232077365L1011.9991934784413,218.10803913676526L1012.9565401441415,238.09305546577488L1013.6984838100593,219.2405269685983L1014.5122284759044,155.10277168605856L1017.2765669731141,205.6367062050426L1017.3005006397566,200.42267094395444L1018.8083216382345,218.81366250563642L1019.3228954710484,176.76983861123406L1020.7469486362775,191.29007583015252L1023.2958841337045,223.5744669288807L1023.9061926330884,223.2218119632687L1025.629416631349,252.69903041870703L1026.1918577974477,191.15553585447054L1026.574796463728,205.60605200314694L1027.5919772960344,182.42819054347993L1028.9801299613,202.07574109526067L1029.0638977945487,211.06944571883753L1029.1955329610826,215.44918518812804L1030.9785911259494,158.89822576846L1032.474445291106,207.73550976567182L1033.9822662895838,232.5038604160061L1035.6097556212742,259.6357315262846L1036.4474339537621,216.44906382018587L1037.7996861190636,195.96716732658396L1039.702412617143,188.17796596865963L1040.8871291159471,218.25975549551347L1043.1847611136277,252.62514689651022L1043.6873681131203,217.1108560684733L1044.560946945572,197.18368152287704L1045.2430564448835,216.8272576852913L1051.3461414387227,152.0085277704558L1052.1598861045677,226.7374163767486L1053.0813322703043,95.56653181445864L1053.248867936802,239.46025167658047L1053.7155744363308,198.73739194002243L1054.098513102611,175.90290769161047L1057.7364304322718,177.6120581067528L1059.0408152642885,226.26559241767308L1061.182878428793,174.24215204919503L1061.4581155951817,229.22791669632443L1063.7557475928625,234.12930417308857L1064.054918425894,214.34331448129478L1065.622573590978,223.82920397350898L1065.7063414242268,179.8527360840084L1065.9815785906155,172.2728233118691L1066.376484090217,248.95965033138876L1066.424351423502,196.47212791372093L1067.2021955893833,174.46233572759655L1067.980039755265,215.93334605299717L1070.2058707530182,224.13930664413778L1070.672577252547,166.80267188050496L1070.864046585687,212.820709616257L1072.5872705839474,198.33963956573203L1072.8984082503,239.65805590697227L1073.3411810831865,201.46383558290077L1075.8901165806135,201.72639603120305L1076.3807567467848,225.0927338168813L1077.3261365791639,146.0291028499293L1077.9244782452265,174.10185735831058L1078.1518480783302,235.63634372456664L1077.756942578729,222.71023157302298L1080.91618657554,195.07304255668973L1082.2684387408415,239.8967198690524L1082.6872779070854,220.92553014740074L1087.7492484019756,229.2748821933801L1089.281003067096,215.5193074585585L1091.315364731709,217.36643312599608L1094.618210728375,191.42465341835214L1096.0781643935682,209.69566104868792L1097.1312457258382,200.5729078770079L1097.538118058761,199.59659975601917L1098.2680948913576,222.65259665845676L1098.48349789114,223.6585058308466L1099.381010390234,242.61988495414104L1101.1880022217433,206.5103070777985L1101.8102775544485,228.41193820062884L1103.485634219424,165.35257141201635L1106.3935747164885,220.91024692772353L1109.4092167134445,225.17851543216563L1111.3358768781663,199.39862000054492L1111.9102848775863,185.1900275654795L1114.2318505419096,230.37805733644748L1114.6147892081897,195.18678281010384L1114.7105238747597,203.64141229302302L1116.9722553724766,239.32702187026376L1117.1517578722953,214.73245358904026L1117.941568871498,237.28034299036307L1119.449389869976,215.1183580202667L1120.4665707022828,244.98303555766157L1121.1127797016302,211.62716413075034L1122.0461927006882,220.63329342266204L1124.4634930315813,198.8056711970874L1124.8464316978614,178.54392076936932L1125.2892045307476,196.3207751426434L1126.246551196448,204.46192936585L1128.0535430279574,222.6720924801123L1130.303307692353,186.8780648207068L1130.6742795253117,150.06595407069443L1131.0691850249132,221.48995612496353L1131.8350623574734,186.6027913414343L1132.3017688570021,216.33133663989943L1132.433404023536,243.2347430491375L1133.187314522775,216.56529903727164L1136.0114871865908,251.9697675824844L1136.358525352907,242.59210184109367L1141.599998347616,225.013095579482L1143.8736966786544,215.57444740945303L1143.957464511903,241.97629089564973L1145.5251196769873,245.8241392151563L1145.6806885101635,173.3006605820567L1146.2311628429413,188.68024352953663L1146.542300509294,208.18298588831325L1147.1885095086416,233.94159263493646L1148.2535576742332,231.36248976125154L1152.8607885029157,227.63933947530504L1153.542898002227,210.2859644384031L1154.8113823342799,222.87650397610693L1155.5892265001614,238.71607547710428L1156.127733999618,224.0680810731892L1157.9347258311273,205.22276791065104L1158.0783278309823,189.09731620040014L1161.237571827793,234.5135223097731L1161.608543660752,219.79995048131187L1161.7641124939285,158.53872532463328L1164.6002519910653,218.69261288628974L1165.4020298235894,212.1476712251882L1168.1903019874412,203.09845052554013L1169.2912506529967,226.70587201193487L1169.877625485738,229.52101850896938L1171.1580766511124,219.9319578808045L1173.9942161482493,173.6189878565479L1175.2267999803385,140.80945078620343L1176.243980812645,162.676077192595L1176.4354501457851,237.1008372498145L1181.0067804745038,240.1172608663717L1181.210216640965,213.24307311460515L1182.5385351396244,214.59182038549685L1182.765904972728,216.3473846474358L1183.7352184717497,209.2670037223841L1184.4771621376674,233.16408547605758L1186.8944624685605,171.95247749892997L1187.8757428009035,222.64572610523024L1189.4433979659875,231.32817460763664L1195.0678096269767,208.39048161075632L1196.9107019584496,201.33123892063142L1197.1500386248747,186.29492034685353L1199.6152062890528,225.05187408519296L1200.7879559545358,203.09572988676248L1201.697435286951,199.7958207245763L1203.492460285139,184.27438843548182L1203.731796951564,193.9070168966068L1203.767697451528,224.62280302119484L1204.5096411174457,239.7732693173282L1204.7848782838346,233.9474288439272L1204.8207787837982,213.97100070645072L1207.22611228137,192.80039393942027L1208.0996911138218,247.8116974860431L1209.1168719461282,252.73580919222888L1209.4280096124808,215.27862495803043L1210.9358306109586,234.2074191035225L1211.6897411101977,200.4994757050231L1216.7158111051242,201.7614759726771L1217.421854271078,233.0505207477259L1217.4457879377208,216.8401086288263L1217.8167597706795,205.0387925492535L1218.6664049364883,220.35162581538677L1221.4666439336618,249.20675203493136L1222.6274267658234,235.05228401278356L1225.5952014294942,210.296483405843L1228.0125017603873,247.36611452679074L1230.7409397576332,207.73612410346036L1232.655633089034,239.00303391186424L1236.4730529185138,239.06481247212636L1236.9995935846487,240.15032853815077L1238.3398789166292,219.70761175044822L1238.7946185828368,177.99922882607393L1241.3076535803,204.95732383599457L1242.5881047456742,227.3948204979753L1244.2514945773285,235.57113615644423L1244.5745990770022,189.59945584871232L1246.0943869088014,217.05165396567114L1247.7338430738132,221.10000207933535L1248.4039857398031,198.31426365381515L1248.7869244060835,251.8132744339929L1249.6365695718926,221.35871351333006L1250.0793424047788,225.0739275580496L1254.1839662339687,218.96708396518542L1255.2490143995603,226.61803424568498L1255.524251565949,235.10076027929873L1256.2422615652242,207.7801558241383L1259.4613397286414,214.65370551455902L1260.4186863943419,230.0984709551496L1261.423900393327,238.3233819864396L1261.9025737261773,220.61974037879733L1262.2615787258148,243.970613150963L1263.0394228916964,195.69364909813575L1263.4223615579763,198.03856389934245L1268.0415592199802,185.9911240416863L1269.6929822183133,233.19751673550738L1270.530660550801,236.17138178832846L1271.3683388832887,206.84520893507337L1272.804358881839,222.23569951267567L1273.3308995479742,167.99286985193956L1274.9583888796647,201.8891704701443L1275.6404983789762,237.11408312478497L1276.7055465445676,239.3374342689036L1277.3517555439155,193.16537327331997L1278.3091022096157,227.33283506886602L1279.6254538749536,222.54375856984478L1279.745122208166,228.8257511199615L1281.4563793731054,231.38910688625134L1282.3299582055567,254.75692409762436L1284.6275902032376,217.96692950799806L1285.4652685357253,209.75571570189047L1286.0516433684666,191.70361292435567L1286.2670463682493,226.82710969386991L1287.0329237008095,184.4734338789565L1288.8159818656763,257.75477339920883L1291.640154529492,217.62267467133088L1292.4179986953736,228.23408114210454L1294.990867859443,191.28533665292693L1297.8150405232589,236.08180757751308L1298.0663440230053,233.26750736212603L1299.0835248553117,229.65123304512005L1299.1074585219542,187.0841939550081L1302.3385035186927,230.57105970208428L1303.4992863508542,200.98447658278667L1307.125236847194,254.7128046144052L1307.591943346723,214.58244233109278L1309.5784376780512,176.9655616156485L1310.4998838437875,244.75603774481004L1310.7751210101762,240.13277602990786L1312.7137480082195,153.04010121739796L1313.9941991735934,234.9296107864244L1314.3771378398735,201.06436557030372L1314.7002423395475,225.73455381828947L1314.8079438394388,217.28987911504518L1315.6575890052477,217.26686025423518L1316.4114995044868,231.0075028195444L1316.5551015043418,226.6834549514075L1317.5483486700057,171.55492572473375L1318.4937285023848,199.82948392788504L1319.7023786678315,233.31042324477994L1319.9417153342565,239.89490193069867L1320.6477585002106,196.22940179973315L1320.8511946666717,241.76883905447727L1321.533304165983,187.57069933347822L1321.664939332517,233.40311302580847L1323.41209699742,202.08817830110135L1323.9625713301978,257.3762222151855L1326.7388766607285,225.82010975846782L1326.9782133271535,200.39037432878746L1331.250372822841,248.9884865949307L1331.3341406560899,224.18960711775964L1333.3445686540604,224.16493330617246L1333.751440986983,209.57103824016318L1334.134379653263,232.97618587531713L1334.7805886526107,220.9626787773463L1335.8576036515237,245.4429990361672L1338.191136149168,239.78868418081723L1338.562107982127,228.5256283040194L1339.220283814796,244.48926469452945L1339.6391229810397,213.71370601062134L1339.7587913142522,248.65498893831526L1342.0923238118967,229.53593814097584L1343.4206423105559,204.28080001828897L1345.1558331421377,238.25589886099854L1345.8140089748065,243.9635419976423L1348.3509776389121,229.12036997081887L1350.0502679705303,207.59896378904781L1350.9597473029455,210.64767148326612L1352.7667391344548,236.58148360591835L1354.8968354656379,223.1023922196874L1355.5909117982706,229.8121895457076L1360.0186401271344,196.2856325136399L1361.2631907925447,232.76478471979001L1361.4307264590423,217.81773318793327L1361.6580962921462,226.22331594781943L1362.1487364583174,265.43638415035696L1362.316272124815,232.0873143203899L1362.4957746246337,221.4622356994456L1362.65134345781,246.36444930014392L1363.118049957339,204.46403566683915L1363.5967232901892,254.0654304978887L1363.7044247900806,231.94817934880004L1364.3865342893919,205.94398793684664L1364.673738289102,186.47707776989733L1366.708099953715,243.44035187694448L1366.7320336203575,226.9118757711773L1368.7544284516493,212.5864463187435L1370.8605911161899,184.11726841169593L1371.9615397817452,234.86124376681823L1372.512014114523,207.48712923652866L1372.8231517808756,226.2744940468534L1372.9906874473731,227.09448454443307L1375.3002862783749,247.58921944406413L1378.040691108942,220.0882504292018L1378.7228006082535,242.82600155093644L1380.1947211067677,258.0377449070964L1382.3008837713082,241.00852708492351L1383.4975671034335,176.20696728440137L1384.7301509355227,216.5970816146972L1388.7270732648212,248.8076330724992L1390.318662096548,236.97952434284417L1396.6371500901698,235.72760422992394L1397.1158234230202,248.00556493958612L1397.5107289226214,173.39855342802863L1399.712626253732,192.59245940427112L1400.693906586075,221.95566178116582" fill="none"></path></g></g></g></g></g></g><g transform="translate(59, 378)" clip-path="url(#clip_1)"><clipPath id="clip_1"><rect width="1436" height="21"></rect></clipPath><g><g><line x1="0" y1="0" x2="0" y2="5" style="visibility: inherit;" fill="rgb(0, 0, 0)" stroke="rgb(204, 204, 204)" stroke-width="1px"></line><line x1="119.66833321253458" y1="0" x2="119.66833321253458" y2="5" style="visibility: inherit;" fill="rgb(0, 0, 0)" stroke="rgb(204, 204, 204)" stroke-width="1px"></line><line x1="239.33666642506915" y1="0" x2="239.33666642506915" y2="5" style="visibility: inherit;" fill="rgb(0, 0, 0)" stroke="rgb(204, 204, 204)" stroke-width="1px"></line><line x1="359.00499963760376" y1="0" x2="359.00499963760376" y2="5" style="visibility: inherit;" fill="rgb(0, 0, 0)" stroke="rgb(204, 204, 204)" stroke-width="1px"></line><line x1="478.6733328501383" y1="0" x2="478.6733328501383" y2="5" style="visibility: inherit;" fill="rgb(0, 0, 0)" stroke="rgb(204, 204, 204)" stroke-width="1px"></line><line x1="598.341666062673" y1="0" x2="598.341666062673" y2="5" style="visibility: inherit;" fill="rgb(0, 0, 0)" stroke="rgb(204, 204, 204)" stroke-width="1px"></line><line x1="718.0099992752075" y1="0" x2="718.0099992752075" y2="5" style="visibility: inherit;" fill="rgb(0, 0, 0)" stroke="rgb(204, 204, 204)" stroke-width="1px"></line><line x1="837.6783324877422" y1="0" x2="837.6783324877422" y2="5" style="visibility: inherit;" fill="rgb(0, 0, 0)" stroke="rgb(204, 204, 204)" stroke-width="1px"></line><line x1="957.3466657002766" y1="0" x2="957.3466657002766" y2="5" style="visibility: inherit;" fill="rgb(0, 0, 0)" stroke="rgb(204, 204, 204)" stroke-width="1px"></line><line x1="1077.0149989128113" y1="0" x2="1077.0149989128113" y2="5" style="visibility: inherit;" fill="rgb(0, 0, 0)" stroke="rgb(204, 204, 204)" stroke-width="1px"></line><line x1="1196.683332125346" y1="0" x2="1196.683332125346" y2="5" style="visibility: inherit;" fill="rgb(0, 0, 0)" stroke="rgb(204, 204, 204)" stroke-width="1px"></line><line x1="1316.3516653378804" y1="0" x2="1316.3516653378804" y2="5" style="visibility: inherit;" fill="rgb(0, 0, 0)" stroke="rgb(204, 204, 204)" stroke-width="1px"></line><line x1="1436.019998550415" y1="0" x2="1436.019998550415" y2="5" style="visibility: inherit;" fill="rgb(0, 0, 0)" stroke="rgb(204, 204, 204)" stroke-width="1px"></line></g><g transform="translate(0, 8)"><text style="text-anchor: middle; visibility: hidden; font-family: &quot;Helvetica Neue&quot;, sans-serif; font-size: 12px; font-weight: 200;" x="0" y="0" dx="0em" dy="0.95em" fill="rgb(50, 49, 63)" stroke="none" stroke-width="1px">-10k</text><text style="text-anchor: middle; visibility: inherit; font-family: &quot;Helvetica Neue&quot;, sans-serif; font-size: 12px; font-weight: 200;" x="119.66833321253458" y="0" dx="0em" dy="0.95em" fill="rgb(50, 49, 63)" stroke="none" stroke-width="1px">0</text><text style="text-anchor: middle; visibility: inherit; font-family: &quot;Helvetica Neue&quot;, sans-serif; font-size: 12px; font-weight: 200;" x="239.33666642506915" y="0" dx="0em" dy="0.95em" fill="rgb(50, 49, 63)" stroke="none" stroke-width="1px">10k</text><text style="text-anchor: middle; visibility: inherit; font-family: &quot;Helvetica Neue&quot;, sans-serif; font-size: 12px; font-weight: 200;" x="359.00499963760376" y="0" dx="0em" dy="0.95em" fill="rgb(50, 49, 63)" stroke="none" stroke-width="1px">20k</text><text style="text-anchor: middle; visibility: inherit; font-family: &quot;Helvetica Neue&quot;, sans-serif; font-size: 12px; font-weight: 200;" x="478.6733328501383" y="0" dx="0em" dy="0.95em" fill="rgb(50, 49, 63)" stroke="none" stroke-width="1px">30k</text><text style="text-anchor: middle; visibility: inherit; font-family: &quot;Helvetica Neue&quot;, sans-serif; font-size: 12px; font-weight: 200;" x="598.341666062673" y="0" dx="0em" dy="0.95em" fill="rgb(50, 49, 63)" stroke="none" stroke-width="1px">40k</text><text style="text-anchor: middle; visibility: inherit; font-family: &quot;Helvetica Neue&quot;, sans-serif; font-size: 12px; font-weight: 200;" x="718.0099992752075" y="0" dx="0em" dy="0.95em" fill="rgb(50, 49, 63)" stroke="none" stroke-width="1px">50k</text><text style="text-anchor: middle; visibility: inherit; font-family: &quot;Helvetica Neue&quot;, sans-serif; font-size: 12px; font-weight: 200;" x="837.6783324877422" y="0" dx="0em" dy="0.95em" fill="rgb(50, 49, 63)" stroke="none" stroke-width="1px">60k</text><text style="text-anchor: middle; visibility: inherit; font-family: &quot;Helvetica Neue&quot;, sans-serif; font-size: 12px; font-weight: 200;" x="957.3466657002766" y="0" dx="0em" dy="0.95em" fill="rgb(50, 49, 63)" stroke="none" stroke-width="1px">70k</text><text style="text-anchor: middle; visibility: inherit; font-family: &quot;Helvetica Neue&quot;, sans-serif; font-size: 12px; font-weight: 200;" x="1077.0149989128113" y="0" dx="0em" dy="0.95em" fill="rgb(50, 49, 63)" stroke="none" stroke-width="1px">80k</text><text style="text-anchor: middle; visibility: inherit; font-family: &quot;Helvetica Neue&quot;, sans-serif; font-size: 12px; font-weight: 200;" x="1196.683332125346" y="0" dx="0em" dy="0.95em" fill="rgb(50, 49, 63)" stroke="none" stroke-width="1px">90k</text><text style="text-anchor: middle; visibility: inherit; font-family: &quot;Helvetica Neue&quot;, sans-serif; font-size: 12px; font-weight: 200;" x="1316.3516653378804" y="0" dx="0em" dy="0.95em" fill="rgb(50, 49, 63)" stroke="none" stroke-width="1px">100k</text><text style="text-anchor: middle; visibility: hidden; font-family: &quot;Helvetica Neue&quot;, sans-serif; font-size: 12px; font-weight: 200;" x="1436.019998550415" y="0" dx="0em" dy="0.95em" fill="rgb(50, 49, 63)" stroke="none" stroke-width="1px">110k</text></g><line x1="0" y1="0" x2="1436.019998550415" y2="0" fill="rgb(0, 0, 0)" stroke="rgb(204, 204, 204)" stroke-width="1px"></line></g></g></g></g></svg>