<svg viewBox="0 0 1496 400" xmlns="http://www.w3.org/2000/svg"><g><g><g><g><g><line x1="49.98400115966797" y1="378.6199998855591" x2="44.98400115966797" y2="378.6199998855591" style="visibility: inherit;" fill="rgb(0, 0, 0)" stroke="rgb(204, 204, 204)" stroke-width="1px"></line><line x1="49.98400115966797" y1="347.06833322842914" x2="44.98400115966797" y2="347.06833322842914" style="visibility: inherit;" fill="rgb(0, 0, 0)" stroke="rgb(204, 204, 204)" stroke-width="1px"></line><line x1="49.98400115966797" y1="315.51666657129925" x2="44.98400115966797" y2="315.51666657129925" style="visibility: inherit;" fill="rgb(0, 0, 0)" stroke="rgb(204, 204, 204)" stroke-width="1px"></line><line x1="49.98400115966797" y1="283.9649999141693" x2="44.98400115966797" y2="283.9649999141693" style="visibility: inherit;" fill="rgb(0, 0, 0)" stroke="rgb(204, 204, 204)" stroke-width="1px"></line><line x1="49.98400115966797" y1="252.4133332570394" x2="44.98400115966797" y2="252.4133332570394" style="visibility: inherit;" fill="rgb(0, 0, 0)" stroke="rgb(204, 204, 204)" stroke-width="1px"></line><line x1="49.98400115966797" y1="220.86166659990948" x2="44.98400115966797" y2="220.86166659990948" style="visibility: inherit;" fill="rgb(0, 0, 0)" stroke="rgb(204, 204, 204)" stroke-width="1px"></line><line x1="49.98400115966797" y1="189.30999994277957" x2="44.98400115966797" y2="189.30999994277957" style="visibility: inherit;" fill="rgb(0, 0, 0)" stroke="rgb(204, 204, 204)" stroke-width="1px"></line><line x1="49.98400115966797" y1="157.75833328564966" x2="44.98400115966797" y2="157.75833328564966" style="visibility: inherit;" fill="rgb(0, 0, 0)" stroke="rgb(204, 204, 204)" stroke-width="1px"></line><line x1="49.98400115966797" y1="126.20666662851974" x2="44.98400115966797" y2="126.20666662851974" style="visibility: inherit;" fill="rgb(0, 0, 0)" stroke="rgb(204, 204, 204)" stroke-width="1px"></line><line x1="49.98400115966797" y1="94.65499997138983" x2="44.98400115966797" y2="94.65499997138983" style="visibility: inherit;" fill="rgb(0, 0, 0)" stroke="rgb(204, 204, 204)" stroke-width="1px"></line><line x1="49.98400115966797" y1="63.103333314259885" x2="44.98400115966797" y2="63.103333314259885" style="visibility: inherit;" fill="rgb(0, 0, 0)" stroke="rgb(204, 204, 204)" stroke-width="1px"></line><line x1="49.98400115966797" y1="31.551666657129942" x2="44.98400115966797" y2="31.551666657129942" style="visibility: inherit;" fill="rgb(0, 0, 0)" stroke="rgb(204, 204, 204)" stroke-width="1px"></line><line x1="49.98400115966797" y1="0" x2="44.98400115966797" y2="0" style="visibility: inherit;" fill="rgb(0, 0, 0)" stroke="rgb(204, 204, 204)" stroke-width="1px"></line></g><g transform="translate(39.98400115966797, 0)"><text style="text-anchor: end; visibility: hidden; font-family: &quot;Helvetica Neue&quot;, sans-serif; font-size: 12px; font-weight: 200;" x="0" y="378.6199998855591" dx="0em" dy="0.3em" fill="rgb(50, 49, 63)" stroke="none" stroke-width="1px">-0.1</text><text style="text-anchor: end; visibility: inherit; font-family: &quot;Helvetica Neue&quot;, sans-serif; font-size: 12px; font-weight: 200;" x="0" y="347.06833322842914" dx="0em" dy="0.3em" fill="rgb(50, 49, 63)" stroke="none" stroke-width="1px">0</text><text style="text-anchor: end; visibility: inherit; font-family: &quot;Helvetica Neue&quot;, sans-serif; font-size: 12px; font-weight: 200;" x="0" y="315.51666657129925" dx="0em" dy="0.3em" fill="rgb(50, 49, 63)" stroke="none" stroke-width="1px">0.1</text><text style="text-anchor: end; visibility: inherit; font-family: &quot;Helvetica Neue&quot;, sans-serif; font-size: 12px; font-weight: 200;" x="0" y="283.9649999141693" dx="0em" dy="0.3em" fill="rgb(50, 49, 63)" stroke="none" stroke-width="1px">0.2</text><text style="text-anchor: end; visibility: inherit; font-family: &quot;Helvetica Neue&quot;, sans-serif; font-size: 12px; font-weight: 200;" x="0" y="252.4133332570394" dx="0em" dy="0.3em" fill="rgb(50, 49, 63)" stroke="none" stroke-width="1px">0.3</text><text style="text-anchor: end; visibility: inherit; font-family: &quot;Helvetica Neue&quot;, sans-serif; font-size: 12px; font-weight: 200;" x="0" y="220.86166659990948" dx="0em" dy="0.3em" fill="rgb(50, 49, 63)" stroke="none" stroke-width="1px">0.4</text><text style="text-anchor: end; visibility: inherit; font-family: &quot;Helvetica Neue&quot;, sans-serif; font-size: 12px; font-weight: 200;" x="0" y="189.30999994277957" dx="0em" dy="0.3em" fill="rgb(50, 49, 63)" stroke="none" stroke-width="1px">0.5</text><text style="text-anchor: end; visibility: inherit; font-family: &quot;Helvetica Neue&quot;, sans-serif; font-size: 12px; font-weight: 200;" x="0" y="157.75833328564966" dx="0em" dy="0.3em" fill="rgb(50, 49, 63)" stroke="none" stroke-width="1px">0.6</text><text style="text-anchor: end; visibility: inherit; font-family: &quot;Helvetica Neue&quot;, sans-serif; font-size: 12px; font-weight: 200;" x="0" y="126.20666662851974" dx="0em" dy="0.3em" fill="rgb(50, 49, 63)" stroke="none" stroke-width="1px">0.7</text><text style="text-anchor: end; visibility: inherit; font-family: &quot;Helvetica Neue&quot;, sans-serif; font-size: 12px; font-weight: 200;" x="0" y="94.65499997138983" dx="0em" dy="0.3em" fill="rgb(50, 49, 63)" stroke="none" stroke-width="1px">0.8</text><text style="text-anchor: end; visibility: inherit; font-family: &quot;Helvetica Neue&quot;, sans-serif; font-size: 12px; font-weight: 200;" x="0" y="63.103333314259885" dx="0em" dy="0.3em" fill="rgb(50, 49, 63)" stroke="none" stroke-width="1px">0.9</text><text style="text-anchor: end; visibility: inherit; font-family: &quot;Helvetica Neue&quot;, sans-serif; font-size: 12px; font-weight: 200;" x="0" y="31.551666657129942" dx="0em" dy="0.3em" fill="rgb(50, 49, 63)" stroke="none" stroke-width="1px">1</text><text style="text-anchor: end; visibility: hidden; font-family: &quot;Helvetica Neue&quot;, sans-serif; font-size: 12px; font-weight: 200;" x="0" y="0" dx="0em" dy="0.3em" fill="rgb(50, 49, 63)" stroke="none" stroke-width="1px">1.1</text></g><line x1="49.98400115966797" y1="0" x2="49.98400115966797" y2="378.6199998855591" fill="rgb(0, 0, 0)" stroke="rgb(204, 204, 204)" stroke-width="1px"></line></g></g><g transform="translate(49, 0)" clip-path="url(#clip_0)"><clipPath id="clip_0"><rect width="1446" height="378"></rect></clipPath><g><g><g><line x1="0" y1="0" x2="0" y2="378.6199998855591" fill="rgb(0, 0, 0)" stroke="rgb(60, 60, 60)" stroke-width="1px" opacity="0.25"></line><line x1="120.50133323669434" y1="0" x2="120.50133323669434" y2="378.6199998855591" fill="rgb(0, 0, 0)" stroke="rgb(60, 60, 60)" stroke-width="1px" opacity="0.25"></line><line x1="241.00266647338867" y1="0" x2="241.00266647338867" y2="378.6199998855591" fill="rgb(0, 0, 0)" stroke="rgb(60, 60, 60)" stroke-width="1px" opacity="0.25"></line><line x1="361.503999710083" y1="0" x2="361.503999710083" y2="378.6199998855591" fill="rgb(0, 0, 0)" stroke="rgb(60, 60, 60)" stroke-width="1px" opacity="0.25"></line><line x1="482.00533294677734" y1="0" x2="482.00533294677734" y2="378.6199998855591" fill="rgb(0, 0, 0)" stroke="rgb(60, 60, 60)" stroke-width="1px" opacity="0.25"></line><line x1="602.5066661834717" y1="0" x2="602.5066661834717" y2="378.6199998855591" fill="rgb(0, 0, 0)" stroke="rgb(60, 60, 60)" stroke-width="1px" opacity="0.25"></line><line x1="723.007999420166" y1="0" x2="723.007999420166" y2="378.6199998855591" fill="rgb(0, 0, 0)" stroke="rgb(60, 60, 60)" stroke-width="1px" opacity="0.25"></line><line x1="843.5093326568604" y1="0" x2="843.5093326568604" y2="378.6199998855591" fill="rgb(0, 0, 0)" stroke="rgb(60, 60, 60)" stroke-width="1px" opacity="0.25"></line><line x1="964.0106658935547" y1="0" x2="964.0106658935547" y2="378.6199998855591" fill="rgb(0, 0, 0)" stroke="rgb(60, 60, 60)" stroke-width="1px" opacity="0.25"></line><line x1="1084.511999130249" y1="0" x2="1084.511999130249" y2="378.6199998855591" fill="rgb(0, 0, 0)" stroke="rgb(60, 60, 60)" stroke-width="1px" opacity="0.25"></line><line x1="1205.0133323669434" y1="0" x2="1205.0133323669434" y2="378.6199998855591" fill="rgb(0, 0, 0)" stroke="rgb(60, 60, 60)" stroke-width="1px" opacity="0.25"></line><line x1="1325.5146656036377" y1="0" x2="1325.5146656036377" y2="378.6199998855591" fill="rgb(0, 0, 0)" stroke="rgb(60, 60, 60)" stroke-width="1px" opacity="0.25"></line><line x1="1446.015998840332" y1="0" x2="1446.015998840332" y2="378.6199998855591" fill="rgb(0, 0, 0)" stroke="rgb(60, 60, 60)" stroke-width="1px" opacity="0.25"></line></g><g><line x1="0" y1="378.6199998855591" x2="1446.015998840332" y2="378.6199998855591" fill="rgb(0, 0, 0)" stroke="rgb(60, 60, 60)" stroke-width="1px" opacity="0.25"></line><line x1="0" y1="347.06833322842914" x2="1446.015998840332" y2="347.06833322842914" fill="rgb(0, 0, 0)" stroke="rgb(60, 60, 60)" stroke-width="1px" opacity="0.25"></line><line x1="0" y1="315.51666657129925" x2="1446.015998840332" y2="315.51666657129925" fill="rgb(0, 0, 0)" stroke="rgb(60, 60, 60)" stroke-width="1px" opacity="0.25"></line><line x1="0" y1="283.9649999141693" x2="1446.015998840332" y2="283.9649999141693" fill="rgb(0, 0, 0)" stroke="rgb(60, 60, 60)" stroke-width="1px" opacity="0.25"></line><line x1="0" y1="252.4133332570394" x2="1446.015998840332" y2="252.4133332570394" fill="rgb(0, 0, 0)" stroke="rgb(60, 60, 60)" stroke-width="1px" opacity="0.25"></line><line x1="0" y1="220.86166659990948" x2="1446.015998840332" y2="220.86166659990948" fill="rgb(0, 0, 0)" stroke="rgb(60, 60, 60)" stroke-width="1px" opacity="0.25"></line><line x1="0" y1="189.30999994277957" x2="1446.015998840332" y2="189.30999994277957" fill="rgb(0, 0, 0)" stroke="rgb(60, 60, 60)" stroke-width="1px" opacity="0.25"></line><line x1="0" y1="157.75833328564966" x2="1446.015998840332" y2="157.75833328564966" fill="rgb(0, 0, 0)" stroke="rgb(60, 60, 60)" stroke-width="1px" opacity="0.25"></line><line x1="0" y1="126.20666662851974" x2="1446.015998840332" y2="126.20666662851974" fill="rgb(0, 0, 0)" stroke="rgb(60, 60, 60)" stroke-width="1px" opacity="0.25"></line><line x1="0" y1="94.65499997138983" x2="1446.015998840332" y2="94.65499997138983" fill="rgb(0, 0, 0)" stroke="rgb(60, 60, 60)" stroke-width="1px" opacity="0.25"></line><line x1="0" y1="63.103333314259885" x2="1446.015998840332" y2="63.103333314259885" fill="rgb(0, 0, 0)" stroke="rgb(60, 60, 60)" stroke-width="1px" opacity="0.25"></line><line x1="0" y1="31.551666657129942" x2="1446.015998840332" y2="31.551666657129942" fill="rgb(0, 0, 0)" stroke="rgb(60, 60, 60)" stroke-width="1px" opacity="0.25"></line><line x1="0" y1="0" x2="1446.015998840332" y2="0" fill="rgb(0, 0, 0)" stroke="rgb(60, 60, 60)" stroke-width="1px" opacity="0.25"></line></g></g></g><g><g><line x1="0" y1="347.06833322842914" x2="1446.015998840332" y2="347.06833322842914" fill="rgb(0, 0, 0)" stroke="rgb(153, 153, 153)" stroke-width="1.5px"></line></g></g><g><g><line x1="120.50133323669434" y1="0" x2="120.50133323669434" y2="378.6199998855591" fill="rgb(0, 0, 0)" stroke="rgb(153, 153, 153)" stroke-width="1.5px"></line></g></g><g><g><g><g><g><path style="fill: none;" stroke="rgb(255, 112, 67)" stroke-width="2px" d="M140.87810868701933,-48.677879099477025L141.39626441993713,15.662487788351655L141.43241481990813,7.93651778742975L143.11943348522186,-5.5909995192644715L143.60143881816865,-13.426339287206986L145.0354046836853,0.06122370606408367L146.9995764154434,-14.215157521147319L148.3009908143997,-4.1736329239003L149.28910174694062,11.399030666391582L149.85545801315305,42.9234321317885L150.4459145460129,16.0719413520456L150.45796467933656,51.26360631327651L150.60256627922058,36.50371239747125L152.85594121074678,45.17916018244455L153.5186985435486,21.64860719771383L157.10963827400207,54.49207012210968L159.4232638721466,73.12941790498706L159.6160660053253,54.902267718514054L160.32702387142183,57.67654532591894L164.09871560173036,58.67439991668573L164.1228158683777,43.50126624694735L164.72532253456114,67.56946770529174L165.5808820005417,81.02854388388249L166.46054173316958,65.66304109690691L166.54489266643523,50.832764221591844L167.83425693206786,61.14092623711974L168.17166066513062,51.84378901419245L169.13567133102416,43.06705101614534L172.52175879497528,60.32387275760374L173.52191986083983,71.04893054144634L174.63053212661742,42.166570898302496L174.83538439311982,44.262373057529885L176.8477566581726,51.170254999088115L178.1973715904236,49.73174442952825L180.40254598865508,60.01995218962793L182.0293139873505,51.52189617846187L182.3667177204132,63.025551336046476L184.90929585170744,26.378128466540034L185.07799771823883,51.61774227884786L187.367523049736,70.85336131782435L189.4642462480545,48.46956576944672L190.48850758056642,66.85329488575042L191.1633150466919,67.90245651577106L191.2476659799576,70.35012755262494L191.68147077960967,83.52640111533293L192.68163184547424,76.44723290081157L195.21215984344482,90.15218665283726L195.44111237659453,100.21673547138437L196.2846217092514,87.39856443703297L199.7189097064972,66.08977146375906L201.22517637195585,96.44712915771436L201.3697779718399,98.42200076025762L203.09294703712462,101.65278139504869L204.44256196937562,117.43851630630473L206.72003716754912,92.97554512445589L209.4554174320221,125.1995714486307L210.3953278312683,99.37141863912456L210.4314782312393,101.31764044246523L211.00988463077545,106.67011967218843L214.34777156143187,88.84442959565217L214.4682728946686,94.81210560246433L214.89002756099703,93.02765416454133L216.7939486261368,82.27796606887767L217.69770862541196,105.05876644860842L219.0714238243103,72.88647172144005L219.56547929058078,86.3087685786L221.2765982225418,115.97423163975117L221.44530008907319,113.77641576801051L222.9033662212372,117.68606178526989L223.02386755447387,124.66611026444309L224.14452995357513,129.4086005198302L227.48241688423155,105.74453645878128L228.1692744836807,97.96860090825442L228.86818221645356,84.6178428542413L232.0855678138733,93.83184490069351L234.59199554519654,86.84205552233709L235.62830701103212,106.00465266386783L235.78495874423982,118.18918853890113L237.3635262096405,139.09727902694692L239.11079554157257,140.36098080697812L239.8820040742874,124.06254948244023L244.32850327072143,127.63360248212774L244.41285420398714,103.94863614791768L245.81066966953279,78.14024274107447L246.77468033542632,79.70652563452046L247.29283606834414,112.43091139461438L248.317097400856,120.74451354664774L250.40177046585083,143.13920639223272L251.8718867313385,122.8270998630901L251.9080371313095,148.13187319242044L252.64309526405333,137.07303275902558L252.7394963306427,130.23414698588374L253.29380246353148,105.04966135197651L254.28191339607238,115.93343980152014L258.10180565967556,112.1538073570648L258.74046272583007,146.69017732416523L259.46347072525026,157.34131540258318L259.873175258255,136.93709643135125L261.30714112377166,138.1037209732503L262.1988509897232,120.59731138840203L264.7293789876938,105.88201460223331L264.78962965431214,103.7218669024075L267.07915498580934,123.90701680291974L268.5974717845917,127.47982451352331L273.18857258090975,152.77150876802887L275.6709000455856,166.60454982552346L276.4180083116532,185.8702287597478L277.5627709774017,166.79781367262493L277.88812457714084,168.14945858161684L281.9972200405121,110.03318491389774L283.7324392391205,128.2842865246115L284.3469960386276,150.0839396983872L284.62414910507204,153.36880011280772L286.9136744365692,161.7868253566179L290.16721043395995,186.8038392893266L291.8662792325974,162.01492627119507L292.7459389652252,170.21508273597547L293.2761448314667,175.25698099204484L294.5896093637466,154.70371275541729L296.89118482856753,149.66503714097556L297.2526888282776,146.51206858637175L297.4816413614273,146.87378126938356L298.5902536272049,143.89047258876536L298.95175762691497,174.36026610131424L299.7229661596298,163.29083416378464L299.95191869277954,162.92382308043452L305.15757628860473,155.54709773961733L306.95304615383145,148.48055095760367L307.36275068683625,171.1670970547165L310.1704317512512,181.20044189992873L310.45963495101927,207.26887984084615L314.70128188095094,186.64121488306495L316.30394961299896,195.93181823863532L317.1715592123031,193.5072652868186L321.70240934200285,196.26989723876505L323.0520242742538,200.28703000301422L323.63043067379,172.00382149119716L324.1365362733841,162.96324699784736L326.1489085384369,166.31187911925736L326.52246267147063,170.69216655061084L328.8722386695862,172.74524361434962L329.1734920026779,167.80386768855632L329.4385949357986,202.086552880063L331.89682213382724,175.5739653269693L332.06552400035855,175.92156500377322L332.414977866745,189.597790766971L332.51137893333436,190.69812294558704L338.18699172878263,194.1642235929495L342.83834319171905,175.79367227264473L350.85168185195926,175.5485088240792L351.4903389181137,153.624906448371L352.719452517128,172.47777138641965L355.852487181282,180.39202685374966L357.165951713562,193.80252479942516L357.3346535800934,166.1280650918333L358.2625138460159,163.81728939990535L359.64827917823794,152.7860040528983L361.44374904346466,172.97346355329702L362.1426567762375,204.67986062388192L362.25110797615054,200.16024874987997L362.33545890941616,216.57208479120607L363.6127730417252,206.04588478339755L363.7091741083145,211.4140044281166L364.564733574295,197.62576980596972L365.97459917316434,196.75940702467037L367.16756237220767,193.763403106787L367.17961250553134,194.0480184501472L367.6375175718307,207.85046675780177L370.0595943698883,170.20992151048654L370.0957447698593,186.82777875577375L370.68620130271916,207.07589540186638L370.9754045024872,198.44699754822446L373.6866845003128,206.51263513513712L374.4578930330277,174.19059447073005L375.24115169906617,191.78590735120068L375.51830476551055,200.75938241074812L376.5666663646698,212.05400754840377L377.434275963974,195.9838486392386L379.02489356269837,206.77242153828385L382.94118689289087,227.93169250578384L387.7250898223877,219.29781692591382L388.2914460886002,198.71745995840888L388.74935115489956,185.2930162424926L389.08675488796234,207.99247332303457L390.46047008686065,226.37051470345946L394.89491914997103,211.35642576501562L398.48585888042453,224.42729508822623L398.6063602136612,220.80256119320958L399.13656607990265,230.09275344534873L399.44986954631804,207.4040670127519L399.9921255458832,214.2684751035374L400.2692786123276,214.13703710585685L401.17303861160275,198.42298170473055L401.968347410965,196.4232125264154L403.3300124765396,190.44150239254938L404.89652980861666,173.34532473407137L405.029081275177,169.1707207106996L405.2700839416504,196.10151838130153L408.12596553936004,206.2438597383955L409.8250343379974,203.80532021468142L410.64444340400695,185.98823996914274L412.27121140270236,188.73176137801667L412.2953116693497,222.04447533132088L412.75321673564906,192.82356597737038L413.0303698020935,212.0592498444051L416.35620659942623,210.00436315835356L417.5371196651459,206.8521019828772L417.63352073173525,206.622244394106L419.73024393005375,172.30941575179747L420.12789832973476,194.67251692049336L421.0196081956864,167.85939307739474L421.4895633953094,172.75346616496884L423.97189085998536,194.06296291577098L424.92385139255526,194.4476446363014L425.6348092586517,202.4150250843281L429.1895985891342,214.56681098359286L430.70791538791656,209.37787238360414L431.129670054245,197.33723457498053L432.0213799201966,208.90645787056204L433.76864925212857,162.58113681050693L434.06990258522035,175.8103196438782L434.8411111179352,207.0754475501459L436.62453084983827,209.0433410510182L437.8295441822052,201.60265997404645L438.6369031148911,220.5226117782553L442.5772967117309,172.22878775523196L442.5893468450546,218.317147012266L442.9629009780884,212.2511291171539L446.7345927083969,215.33435721973134L446.87919430828094,207.4838339520481L446.9273948415756,226.00487648122717L446.9394449748993,243.58355453841367L448.32521030712127,242.51821813117826L451.1087911048889,254.325587017556L452.28970417060856,234.55221652094082L452.49455643711093,209.1583134003893L452.7114588369369,194.23025876783467L454.9648337684631,214.1218170596835L456.0613959009171,230.75084313545756L456.4711004339218,225.3294232394008L456.6880028337479,194.28077782095045L460.94169989700316,210.0730622347131L462.3515654958725,213.78986615866242L462.50821722908023,209.48126432111917L463.61682949485777,200.64276263068186L463.9662833612442,219.59488349453085L464.4362385608673,196.67301073577136L468.7622364240646,220.74060507418494L469.07553989048006,202.76111225729773L469.5695953567505,203.26795537499814L469.87084868984226,194.3282095583187L471.5458172218323,198.42172873463048L472.29292548789977,210.0939715021993L474.799353219223,225.2134252104351L474.99215535240177,210.9345431158605L475.88386521835326,222.22286945612564L476.48637188453677,237.1414239093097L479.11330094909664,233.72269093839802L481.2341244140625,235.8507547722639L481.5474278804779,241.31904553220159L482.2824860132218,213.04859028989551L483.27059694576263,205.46125597837204L484.1020561450958,200.50640521371133L485.1142673442841,182.02343147615954L486.70488494300844,198.3884268230495L486.8374364095688,204.9558594917007L488.54855534152983,206.95299314277673L489.68126787395477,207.02651612771967L489.84996974048613,224.54692517081253L498.11636120052333,245.26691263225007L498.56221613349913,220.00559387715046L501.6108998643875,200.60456851843543L502.9605147966385,202.93218169039338L503.743773462677,210.0069158001191L503.82812439594267,220.61649008617775L504.5029318620682,237.48668491960836L504.6113830619812,214.1204967180627L505.32234092807767,216.67910275755943L505.4789926612854,216.62858281659697L507.3708635931015,215.8894178216316L507.7685179927826,218.37290614295898L510.5159483905792,243.33368219481076L511.8053126562118,233.20522344190258L513.1910779884338,237.19029405049034L513.7815345212937,221.34269937175895L514.4563419874191,235.30860380097477L516.0469595861435,246.2157979155268L516.1433606527328,234.17349384945575L517.7339782514572,240.6269114735802L519.1558939836502,203.56920462808466L519.4812475833893,234.0961132640095L519.5053478500366,231.47834411781318L520.5898598491668,219.71451732573402L521.4333691818237,221.03974301501253L521.8430737148285,232.8815770737729L522.1804774478912,252.91770122850434L526.0967707780839,237.1474883004863L526.2052219779969,189.56840259963755L526.3498235778809,200.28837448469181L526.5787761110305,232.05774428453634L526.783628377533,249.27716334869237L527.4343355770111,242.30236826169738L527.5789371768951,217.5430265486771L527.8801905099868,237.61532316852478L528.3260454429627,233.51566432442425L529.5792593086243,205.6621463201957L529.808211841774,207.80572095881766L531.0734758407593,227.06977281343228L533.7365553052902,244.8761997753524L533.9896081050873,220.53358694105592L534.6523654378891,218.55222825024353L535.7007270370483,214.63383877765762L536.5924369029999,231.2238822341164L538.809661434555,224.6790420298797L545.4372347625732,214.29835645154637L545.6902875623704,233.20208402572098L545.7866886289597,258.7931326973039L545.9674406288146,241.93354886385717L547.2447547611237,241.58459212917003L548.3292667602539,234.5399667171725L550.7151931583405,235.18108249225764L550.7995440916062,249.34021193724917L551.6551035575867,251.7019154487329L552.9083174232484,254.2830036035358L553.1131696897506,241.56400613986762L553.9205286224366,256.58248779276084L556.4390064870834,254.76805290754544L556.7884603534699,244.8590685217617L561.0542075500489,236.56447150081937L561.4157115497588,241.30482447905328L562.7171259487152,228.81670341695303L563.343732881546,232.98018696244037L563.7172870145797,221.35258765859984L564.404144614029,230.15177865732164L567.5612795448303,237.76058381792404L567.9589339445114,253.82336474805572L571.0076176753997,241.01945882036404L571.4173222084046,253.44491577604492L574.7311088724136,242.73474498431648L576.0807238046646,248.2226933342941L579.8885659349442,240.44418768004616L582.8649488658905,222.83436119440293L583.0577509990692,219.55933590691782L583.1903024656295,225.2302636203786L585.3111259305954,203.61089352653772L586.0100336633682,215.77803395576836L586.2510363298416,231.3856558233055L587.6970523286819,235.7279460590394L589.3961211273194,212.48755522042572L589.6853243270874,228.77740207437984L592.4809552581787,242.82676268206816L593.1919131242752,250.21662613089777L598.0842672536851,245.25137538245667L598.4216709867477,246.83738032350658L599.0362277862549,260.72416319081356L600.2050907186508,269.1853322361997L600.5786448516845,259.39584779080036L600.6388955183029,263.48736800337133L601.9162096506119,257.0779124180756L603.9767824489594,250.59074956391555L606.435009646988,262.36062203223156L608.2063792455673,262.0159543568513L608.3991813787461,257.64968697702597L608.4473819120407,249.60823633927473L608.8450363117217,253.26689564436515L609.0860389781952,242.38747607988654L609.9656987108231,243.66885251093467L612.9420816417694,252.79694006019656L615.400308839798,235.82405806827595L615.725662439537,218.8036030912459L616.569171772194,239.7846190519833L617.3885808382034,240.49283160359036L618.9550981702804,257.90101446014285L619.1479003034591,253.5773014110103L624.6668613656998,251.76353708429804L626.1249274978637,265.41189111817715L627.4504421634674,248.3564479977095L629.9327696281433,255.23294715417794L630.1496720279694,266.1189707764634L632.6802000259399,261.4886039380031L636.3313904230117,252.8956917117614L639.9102800201416,262.5153543178927L642.8023120178223,253.19152777056786L643.2240666841508,238.76358603376204L643.8747738836288,239.221721923421L644.2603781499863,233.13686457933886L645.1279877492905,231.61519103656258L645.4533413490295,242.51014410733836L645.5015418823242,240.08375585172723L646.2607002817155,249.958152224204L648.3694736133576,264.8591001355982L648.5261253465652,262.70949768932616L649.4901360124588,257.03308984027876L649.5383365457535,234.1074429878122L649.9721413454056,238.97519716578566L651.0205029445648,231.0281001026636L651.1048538778305,227.57154080578363L651.635059744072,238.8830615049141L652.2737168102265,233.66144421625904L655.6598042741775,222.4128660418564L658.2746832054138,252.08932867072042L658.4433850719452,248.00184737159333L660.2268048038483,251.4413331553256L661.913823469162,240.3384619173521L664.3961509338379,258.9594616908339L664.504602133751,241.8726166882442L665.1432591999054,254.1039393821169L666.7700271986008,246.48250266726984L667.2038319982528,243.77550360834846L668.5895973304748,229.15970361319762L673.1083973268509,240.70644073065355L673.7952549263,245.94770451149094L674.74721545887,242.87885605574164L675.181020258522,248.13516447043835L676.5426853240966,249.96339036550415L676.7354874572754,255.186163325098L677.6874479898453,261.3371126709413L678.7237594556808,241.99422593097006L687.1468026489258,260.89828064046L687.6649583818436,265.51589620808016L688.3879663812637,248.74495157979294L688.6289690477371,260.6956016086782L690.0267845132828,255.7205692792142L690.6533914461136,263.6168474803043L691.3763994455338,265.4010914514402L691.8102042451858,255.33097183605L692.4488613113404,237.73841183753558L692.6537135778427,243.87476955718742L692.8224154443741,227.86597984197908L693.2562202440262,242.02297823446904L693.7261754436493,264.24917083683556L693.8948773101806,261.12976535881194L695.3890938423157,248.1433146798196L696.1723525083542,245.12486769534456L696.4495055747986,260.66887713486096L697.7268197071076,248.77101299883944L698.9920837060928,213.0346736236102L699.5463898389817,229.14493682347936L703.1011791694641,259.2482135347245L706.9813220996857,247.19842539554594L708.644240498352,236.29808984083513L712.1387791622162,239.2604052405312L712.7894863616943,248.8443740751843L713.0907396947861,247.1894298808256L714.6090564935683,258.12970033448516L715.5851172927856,252.9362347201248L716.3201754255294,246.47111797250096L716.5491279586792,260.5012425674747L720.9835770217895,277.41622014285537L721.586083687973,280.9363784557128L722.7067460870743,254.800771204763L722.899548220253,251.18089122594483L723.2610522199632,248.74130127920589L724.140711952591,230.52208843755088L725.5144271514893,250.59052133872348L728.4908100824356,264.9317783583837L728.5149103490829,272.28422379457714L730.7803354139328,264.47802634682193L732.7083567457199,272.66480929547185L734.5761274108887,269.71644398641007L735.6967898099899,253.97035371088344L736.3595471427917,252.3256081586789L737.082555142212,247.98791428624904L741.9990095382691,264.7021730505317L742.5774159378051,276.659501976132L742.6738170043944,251.44465456352316L744.4572367362977,270.73673257931284L745.0235930025101,264.66757875021483L745.8189018018722,278.74629512067844L747.8674244668962,264.9955347634517L748.530181799698,258.76052274059805L749.2652399324418,270.2729617620051L751.1571108642578,272.2779663682071L751.3740132640838,276.94291364708374L753.229733795929,268.53416982297705L754.6757497947693,255.7608149292788L755.928963660431,264.87242305676494L756.326618060112,256.5322257498338L757.0978265928269,254.60664304015103L758.1702884586334,276.5126413242919L758.3510404584885,279.884545818344L761.9901807222366,280.88249540457934L762.701138588333,275.5510837976696L765.5690703193665,272.09169116241765L765.6534212526321,279.0437105170369L765.7016217859268,259.13310148062885L765.7498223192215,269.36980723315776L767.4488911178588,263.1352418043207L767.9790969841004,269.65185737402413L769.9794191158294,243.8867275512302L770.1601711156845,253.0306519189881L770.4132239154817,270.68956819855805L770.5939759153366,262.00228155338834L772.0158916475295,268.76610943486236L776.6431428438186,252.13361162766824L776.9082457769393,242.43478507265957L777.4384516431809,256.824141976187L777.7758553762436,250.73172953149327L778.8362671087266,260.5771786811481L780.4027844408035,271.36381289173784L780.9450404403686,275.28541647789694L783.4876185716629,270.73593437622736L784.7649327039719,263.8176474456981L784.8010831039428,260.1521663816244L785.1143865703583,260.1411627370812L785.4879407033919,262.96328892751797L787.6449145683288,263.86453528983134L787.7051652349472,256.0502453023199L787.8015663015366,251.47241384556935L789.7536878999709,255.80871623530135L790.3923449661255,274.0553773755827L792.8023716308594,239.42585851900026L794.308638296318,251.93329957625127L796.8753166942597,256.32088257436806L797.2729710939407,244.08586235995716L798.4177337596893,262.0844372324059L799.3214937589646,267.5654429683982L799.490195625496,275.43458155858076L800.5385572246552,277.5659745957206L802.695531089592,272.3970714131758L803.0931854892731,264.93158293043103L805.2501593542099,278.9523714949465L808.8651993513107,260.1288344919721L808.9375001512527,275.63868060585287L811.0944740161895,267.8403278373924L814.4203108135224,241.5141237054739L820.8671321416855,236.9176449594035L821.4816889411927,264.7937992979609L822.6144014736175,233.35559859886774L824.0122169391632,249.66524549322037L824.674974271965,245.7835398888745L825.036478271675,249.4282795091345L825.9763886709213,242.3912701696325L826.3017422706604,247.55502010621498L826.5065945371629,256.0256596704932L829.5311780014038,267.1484971469967L829.7239801345825,272.09774280369334L832.5437113323211,280.9942688504832L833.1100675985336,266.2109186849378L834.5681337306977,263.00723813285276L837.0745614620208,276.27060048734563L837.436065461731,289.91458118150393L838.2434243944169,262.41548602269233L842.4489209243775,260.1963622249114L843.5695833234787,252.7874573421914L843.6418841234207,267.0675006894031L843.9069870565414,267.4544712351603L844.9914990556716,259.1288842875095L847.1364227872849,274.4328668549122L848.5944889194488,277.3123575541692L849.498248918724,295.6568964956772L845.9434595882415,291.4984097709622L846.9436206541062,293.7804290664104L847.7991801200867,275.4178035741915L848.9680430524826,256.09939763441713L849.1126446523666,268.0981409280408L849.7513017185212,277.69682293040063L850.9081145175934,265.05792553554323L852.6674339828492,245.18473456463204L858.1984451784134,258.21208218644256L859.1624558443069,266.59412848703573L862.7413454414368,275.779955087517L863.1148995744705,284.51183669077153L863.2113006410599,264.9353774414565L867.0552931713105,272.3628720603411L868.8628131698608,256.9454279091999L871.2246393013,261.7633049245926L872.8875576999665,276.6597399031368L873.7310670326232,281.98745741363655L873.743117165947,284.83689993376674L874.7553283651353,272.52860202655165L876.6592494302749,244.59385500049711L877.9847640958786,248.60745720210397L878.9969752950669,258.310639668293L880.4791416938782,274.9481715296829L881.8046563594818,276.32439182049643L882.7084163587571,259.82994325867116L883.3350232915877,258.707262715721L886.7813614221573,252.89599886848183L886.901862755394,268.22879541682994L888.9021848871231,272.3406750971584L891.3363118185043,277.46710569670347L892.5413251508713,283.98136125490277L892.6738766174316,257.0063910545873L893.3245838169098,262.3551093944427L895.6261592817307,242.89656235073164L896.1925155479431,265.7056227819157L897.1926766138076,270.70387637599646L898.0964366130829,260.86267665564446L898.4699907461167,251.28557967508058L899.0242968790054,258.6698457611559L899.916006744957,251.85057096283725L900.422112344551,267.3598857699594L901.2174211439133,266.1479841325634L903.6033475419997,279.9043254167836L905.3144664739609,269.05261864258455L908.3149496715546,282.47706205693083L911.1587811359406,293.3940548044171L912.5204462015153,267.8800145097564L914.207464866829,279.4354227317384L916.1475363319396,289.59863509676825L916.4849400650024,286.64992266172504L917.0271960645676,279.9766472651856L922.0762019271851,279.9908968724001L922.4859064601899,276.44410835958934L922.955861659813,267.6171499441321L931.993461652565,268.4420284968952L932.0055117858886,264.2178145911246L932.210364052391,284.03048810567657L933.3792269847869,283.4068909542749L933.9937837842941,284.68469136484316L934.9939448501586,288.4288274056915L935.9338552494049,286.3844748957862L940.0188504461288,270.45056407557746L940.7298083122253,266.2199752776354L942.9349827104568,259.04365629706274L942.9470328437806,270.7904906353949L943.1036845769881,283.542676230867L944.8027533756256,297.8383516709421L946.357220574379,289.8965027916757L946.610273374176,288.91203636393675L948.8515981723785,286.4940143972715L949.5384557718277,295.3880267750431L950.4904163043976,292.77724114989906L951.900281903267,275.477427307452L958.4435042980194,283.6213052585187L958.4917048313141,283.74724322423464L958.8652589643478,283.0726657126372L959.299063764,288.85406879203623L959.9136205635072,277.46810443426364L960.829430696106,282.027160848811L963.9504152269363,285.39316667554033L964.9264760261535,284.9526106162506L968.2523128234862,273.1463098672731L968.7584184230805,271.9849061791224L970.1321336219788,279.0528071576704L971.6504504207612,283.3393654331908L971.9637538871765,270.4202859793183L973.3615693527222,271.0632507760102L975.2172898845672,247.58809791795343L975.8920973506927,211.15655941639702L976.5066541501998,224.51447732381325L976.7717570833207,250.48311766655044L977.1694114830017,261.0456467147329L977.4706648160934,231.46793014606672L979.3986861478805,251.99639245691714L980.3385965471267,281.1787328204796L980.6036994802474,288.91970732871783L980.6277997468948,278.96027481227304L981.8569133459091,294.4536382173897L981.8930637458802,297.4121905752295L982.3750690788269,288.43488863793146L983.7487842777252,273.04010614170915L985.7370562761307,277.8418794254803L987.544576274681,287.7805110750813L988.4483362739563,300.9116175725693L989.1833944067001,300.7233000730007L991.2319170717241,295.9520124250291L992.9068856037139,283.6453459737538L998.0884429328919,277.48550190912033L998.5824983991623,267.76687227323026L998.6427490657807,285.3221001227361L999.2091053319931,276.20307341880516L999.9321133314132,278.66516607401473L1000.2092663978576,285.149571155447L1001.2576279970168,281.4918577076114L1003.3784514619828,278.75728690284495L1003.4628023952483,286.43709367267803L1011.5484418554305,289.70171060750977L1011.9822466550827,279.72735663568693L1014.8622285194397,283.0899889896979L1015.2357826524734,281.28741167185217L1018.8267223829268,280.02856927600897L1019.0436247827531,285.5094136252163L1020.0076354486465,280.911504309913L1020.7547437147141,285.8825805701449L1021.5741527807235,279.2395285984138L1024.3577335784912,282.53463267273514L1024.3818338451385,276.59630250889234L1025.9001506439208,279.8747994597041L1026.4183063768387,267.35184821794934L1027.8522722423554,243.66327688572062L1030.4189506402968,263.2614065934076L1031.033507439804,269.2930620853065L1032.7687266384125,280.9654746449507L1033.3350829046249,276.372040791545L1033.7206871709825,280.17938737927466L1034.7449485034942,276.0706095227027L1036.1427639690398,288.0808192510326L1036.2271149023056,272.0622873876374L1036.3596663688659,286.7497752465234L1038.1551362340927,267.94678230852656L1039.6614028995514,256.26406719745074L1041.1797196983337,270.2256302248127L1042.8185378303526,278.4982666491233L1043.6620471630097,267.28057856349574L1045.0237122285841,265.7555532017401L1046.9396834270476,268.6618964348783L1048.1326466260912,273.19085288895906L1050.4462722242356,291.9229465927822L1050.9523778238295,290.3460439632931L1051.8320375564576,277.7074701565353L1052.5188951559066,268.99165875431333L1058.6644631509782,277.1669986368353L1059.4838722169875,276.42029930025603L1060.41173248291,230.5624520450559L1060.5804343494417,249.7884639539452L1061.0503895490647,254.1993443890267L1061.435993815422,246.73214122176748L1065.0992343458176,271.7260366113784L1066.4126988780977,277.77826853517314L1068.5696727430345,279.38080541231943L1068.8468258094788,282.06407814716675L1071.1604514076232,289.73709312662385L1071.461704740715,276.67571867909135L1073.0402722061158,264.6925314371286L1073.1246231393814,273.29633153078714L1073.4017762058259,262.5599940751311L1073.7994306055068,268.47840775315296L1073.8476311388015,265.29104741863466L1074.63088980484,282.13681561016995L1075.4141484708787,292.6103798463936L1077.655473269081,293.05062954812604L1078.1254284687043,281.6010020363272L1078.318230601883,283.7954661609495L1080.0534498004913,288.6426511287011L1080.3667532669067,288.86421346386504L1080.8126081998826,276.81536661671714L1083.3792865978241,270.7842541548688L1083.8733420640945,281.77266743871127L1084.8253025966644,249.66373612649414L1085.4278092628479,268.6344202753758L1085.6567617959977,263.57723053067514L1085.2591073963165,270.83859114385587L1088.4403425937653,275.40739542256705L1089.8020076593398,284.25455682157985L1090.2237623256683,273.56137343583043L1095.3209687215806,276.80137338706413L1096.8633857870102,282.1603341965205L1098.911908452034,282.69666884157664L1102.2377452493668,277.43092326086577L1103.7078615148546,275.33467459110807L1104.7682732473372,287.4135493348296L1105.1779777803422,296.9690330896956L1105.9130359130859,293.0686564625651L1106.129938312912,286.743739678142L1107.0336983121872,286.0672378050825L1108.8532684440613,266.78253834798363L1109.479875376892,266.75418791423874L1111.1668940422057,250.1664865121499L1114.0950764398576,257.16725289620825L1117.1317100374222,262.729000010924L1119.071781502533,278.237009526042L1119.650187902069,288.12065307569367L1121.987913766861,295.44228608705373L1122.3735180332185,288.8856150667516L1122.4699190998078,295.46332005164885L1124.7473942979811,297.3754330659012L1124.9281462978363,297.6636234485171L1125.7234550971984,304.39652936125594L1127.2417718959807,293.29793790346287L1128.266033228493,295.7960356554185L1128.9167404279708,294.017284979253L1129.8566508272172,294.0843096268511L1132.2907777585983,289.2806151343884L1132.6763820249557,289.9467671165272L1133.1222369579314,297.32211626512037L1134.086247623825,295.95394958518347L1135.9058177556992,289.07233021476776L1138.171242820549,282.88479353016066L1138.5447969535828,281.2652896479338L1138.9424513532638,286.61955391686524L1139.7136598859786,287.3567649882642L1140.1836150856018,273.7461203609953L1140.3161665521623,257.67795294634067L1141.0753249515533,254.4191971521975L1143.9191564159394,268.5953995975322L1144.2686102823257,276.10458493174497L1149.5465686780929,284.4228488384227L1151.8360940095902,293.6283330410081L1151.9204449428557,296.51435982593625L1153.4990124082565,293.42221752220973L1153.655664141464,266.72560944412083L1154.209970274353,272.882623438466L1154.5232737407684,254.54384400930567L1155.1739809402466,275.86588924288014L1156.2464428060532,284.03966732366314L1160.8857441356658,288.8048449624395L1161.572601735115,292.7839093941542L1162.849915867424,301.7343985743512L1163.6331745334626,299.0039007922804L1164.1754305330276,296.63193423412156L1165.9950006649017,304.8641612144859L1166.1396022647857,292.3301951666704L1169.3208374622345,287.6495794278263L1169.6943915952684,288.12487680782846L1169.851043328476,272.8230160590503L1172.7069249261856,271.76571634297306L1173.5142838588715,293.21723010643944L1176.3219649232863,301.4184465040628L1177.430577189064,290.2383953095966L1178.021033721924,284.355530572927L1179.3103979875566,296.77561141649994L1182.166279585266,274.9828319747769L1183.407443317604,274.9726527798649L1184.431704650116,265.0507816794533L1184.6245067832947,288.1019586778675L1189.2276577129364,264.8812498117103L1189.4325099794387,276.016311256579L1190.770074778366,281.57250252838105L1190.9990273115159,278.0779900579507L1191.9750881107332,281.66653874182293L1192.7221963768004,279.27426101443086L1195.1563233081818,278.4540414625028L1196.1444342407228,288.60498844949336L1197.7230017061233,279.329003924077L1203.386564368248,266.99295316056885L1205.242284900093,269.7040273090398L1205.4832875665663,289.0728113847814L1207.9656150312424,293.81118574260387L1209.146528096962,292.05316134157664L1210.062338229561,298.7740821506858L1211.8698582281113,296.3982721760644L1212.1108608945847,292.99879663615184L1212.1470112945558,306.4884124534316L1212.8941195606233,307.40997695250076L1213.1712726270675,305.79724988585104L1213.2074230270384,296.2483139797058L1215.629499825096,268.3534970842926L1216.5091595577242,267.91385508547376L1217.533420890236,274.2744805283537L1217.8467243566513,275.1748833015729L1219.3650411554336,273.61901320738923L1220.1241995548248,291.5731754414403L1225.185255550766,304.55650553979825L1225.8962134168623,300.2711862833777L1225.92031368351,304.5016205099196L1226.2938678165435,310.73509369398374L1227.1494272825241,300.16268090274934L1229.9691584802626,307.6807417382034L1231.1380214126586,311.66244910223895L1234.1264544769288,297.82170223891933L1236.5605814083099,299.8724297032464L1239.3080118061066,306.32962763828215L1241.2360331378939,298.8603740328191L1245.0800256681443,308.1450070955957L1245.6102315343858,301.1698063183583L1246.9598464666367,299.58890323061996L1247.417751532936,270.33088245967645L1249.9482795309066,287.1501395462449L1251.2376437965393,285.7272562267731L1252.9126123285293,269.6633325146578L1253.2379659282685,267.9460014897184L1254.7683328603744,280.9336114290692L1256.419201125717,282.7364347316828L1257.0940085918426,274.2242380109428L1257.4796128582002,286.7754854912227L1258.3351723241806,278.42247153139056L1258.7810272571564,286.9016206641697L1262.914222987175,302.3826194638456L1263.9866848529816,275.58018854008134L1264.263837919426,285.21249383513714L1264.986845918846,297.9530955259494L1268.2283317829133,296.5587726741744L1269.1923424488068,291.87796902781156L1270.204553647995,302.28731540978185L1270.6865589809418,281.16399986298734L1271.0480629806518,286.61308499889975L1271.8313216466904,289.2699993046659L1272.2169259130478,271.8402517454722L1276.868277375984,285.68851670509184L1278.5311957746505,297.44233753080925L1279.3747051073074,302.08143063952804L1280.2182144399644,297.532976882836L1281.6642304388047,290.8321675717592L1282.194436305046,287.1659016314599L1283.833254437065,288.254717324144L1284.5201120365143,286.6299049342991L1285.5925739023207,277.01321245769753L1286.243281101799,280.36956219886287L1287.2072917676926,282.37417578299335L1288.5328064332962,278.66590571155035L1288.6533077665329,293.1093841020561L1290.3764768318176,286.77139589334854L1291.2561365644453,296.8504955822664L1293.56976216259,286.71884441391694L1294.4132714952468,298.11540141624585L1295.0037280281067,292.2675201248838L1295.2206304279327,303.92911486146266L1295.9918389606476,289.65341434001755L1297.7873088258743,289.9144953378312L1300.6311402902604,295.6706886973986L1301.4143989562988,294.6385195846259L1304.0051776208877,280.2332016909698L1306.8490090852738,288.2092711406769L1307.102061885071,294.6859810077768L1308.1263232175827,290.9480718383489L1308.15042348423,296.5531405346419L1311.4039594816209,285.481875971979L1312.5728224140166,303.50538563115117L1316.2240128110884,291.91874344818143L1316.6939680107116,285.4601723094892L1318.6942901424409,278.5270059383057L1319.6221504083633,286.88981210456876L1319.8993034748078,273.0424279206364L1321.8514250732421,280.9178757785909L1323.1407893388748,298.4865338676219L1323.5263936052322,299.67977592829095L1323.8517472049714,294.0841958925817L1323.9601984048843,277.8756811685579L1324.815757870865,275.6485807146944L1325.5749162702562,282.9567865706956L1325.7195178701402,288.498629753853L1326.7196789360046,280.71186204794697L1327.6716394685745,288.04168123941383L1328.8887029342652,291.0088527624067L1329.1297056007386,282.84848884479305L1329.8406634668352,290.5770342886259L1330.0455157333374,292.32401569767035L1330.7323733327864,275.94500302965L1330.864924799347,280.875752508862L1332.6242442646026,300.45504633944L1333.1785503974916,295.383301000278L1335.9741813285827,294.3769264932325L1336.2151839950561,280.2660273165079L1340.517081591606,291.8238383701423L1340.6014325248718,292.3074507074904L1342.6258549232482,292.8616448195151L1343.035559456253,291.90863501615274L1343.4211637226106,295.1081366070722L1344.0718709220887,307.3520495790892L1345.156382921219,303.326588338492L1347.5061589193344,289.21910880142707L1347.8797130523683,293.53132063869043L1348.54247038517,304.6679523190535L1348.9642250514983,316.4287495873596L1349.0847263847352,290.06784124879357L1351.4345023828507,295.94682080169366L1352.7720671817779,302.73551565530425L1354.51933651371,304.75086427700273L1355.1820938465119,308.90190924998893L1357.7367221111297,300.46876375912785L1359.4478410430909,299.4146095957628L1360.3636511756897,295.5698745648521L1362.1832213075638,305.94934552429817L1364.328145039177,305.2068935388749L1365.0270527719497,302.14200010875146L1369.4856021017074,287.2975600237251L1370.7388159673692,299.751165113808L1370.9075178339006,273.1541804784814L1371.1364703670502,291.62714376447786L1371.6305258333205,296.03699515471345L1371.799227699852,292.72197075513634L1371.979979699707,296.65828169801074L1372.1366314329148,295.50484185605796L1372.606586632538,298.17985241273936L1373.0885919654845,288.92356912675075L1373.1970431653976,295.3153861956072L1373.8839007648469,281.9687473781266L1374.173103964615,292.597743082027L1376.2216266296386,289.8091627139509L1376.245726896286,299.1621165236261L1378.2821994279861,303.9542998254775L1380.4030228929519,296.8175647600963L1381.5116351587294,294.59125844127095L1382.0659412916184,294.3598552742343L1382.3792447580338,303.7450218991278L1382.5479466245652,302.87406287122565L1384.8736223560334,293.77632050933397L1385.2712767557146,303.4534731333189L1387.6331028871537,307.5214523673101L1388.3199604866027,310.6274201035208L1389.802126885414,313.8529340245188L1391.9229503503798,308.4157385051931L1393.127963682747,312.22281424848927L1394.369127415085,305.24940233255904L1398.3938719451903,298.0950608118567L1399.9965396772384,300.1618280552656L1406.3590100721358,303.1534412882411L1406.8410154050828,308.32407532922673L1407.0097172716141,312.6060491893351" fill="none"></path></g></g></g></g><g opacity="0.2"><g><g><g><path style="fill: none;" stroke="rgb(255, 112, 67)" stroke-width="2px" d="M128.29776949710845,-69.43877074447505L129.10512842979432,3.5413238530581452L130.23784096221925,-89.43309617160634L136.61236149044038,-75.32400138326648L137.1907678899765,43.11918959566003L137.27511882324217,-81.7544254655889L140.87810868701933,-57.838054759107024L141.39626441993713,112.1695095414629L141.43241481990813,-3.652182987619142L143.60143881816865,-25.179256122051527L145.0354046836853,20.292472332145564L146.9995764154434,-35.629668479719896L148.3009908143997,10.888628278461113L149.28910174694062,34.75800214412254L149.85545801315305,90.21000529145454L150.4459145460129,-24.205279977157943L150.45796467933656,104.05109208518383L150.60256627922058,14.363874460488205L152.85594121074678,58.19233082423034L153.5186985435486,-13.647220593936822L157.10963827400207,103.75726309719738L159.4232638721466,101.08543909871929L159.6160660053253,27.56154272080869L160.32702387142183,61.83796171127261L164.09871560173036,60.17118179727811L164.1228158683777,20.741565793046504L164.72532253456114,103.67176984454846L165.5808820005417,101.21715813557648L166.46054173316958,42.61478692753508L166.54489266643523,28.58734891504247L167.83425693206786,76.60316925773276L168.17166066513062,37.89808318125114L169.13567133102416,29.90194401989578L172.52175879497528,86.20910536882263L173.52191986083983,87.13651721684897L174.63053212661742,-1.1569685658295725L174.83538439311982,47.406076296345475L176.8477566581726,61.53207791137504L178.1973715904236,47.57397857519487L180.40254598865508,75.45226382975056L182.0293139873505,38.77481216172606L182.3667177204132,80.28103407241258L184.90929585170744,-28.59300583769891L185.07799771823883,89.47716299730092L187.367523049736,99.7067898762852L189.4642462480545,14.893872446883108L190.48850758056642,94.4288885602046L191.1633150466919,69.47619896080198L191.2476659799576,74.02163410790564L191.68147077960967,103.29081145939477L192.68163184547424,65.82848057902942L195.21215984344482,110.70961728087588L195.44111237659453,115.31355869920492L196.2846217092514,68.17130788550583L199.7189097064972,34.12658200384834L201.22517637195585,141.98316569864733L201.3697779718399,101.38430816407259L203.09294703712462,106.49895234723522L204.44256196937562,141.11711867318883L206.72003716754912,56.28108835168257L209.4554174320221,173.5356109348929L210.3953278312683,60.629189424865274L210.4314782312393,104.2369731474763L211.00988463077545,114.69883851677326L214.34777156143187,62.10589448084784L214.4682728946686,103.76361961268248L214.89002756099703,90.35097700765692L216.7939486261368,66.15343392538233L217.69770862541196,139.22996701820446L219.0714238243103,24.62802963068748L219.56547929058078,106.44221386434003L221.2765982225418,160.4724262314779L221.44530008907319,110.47969196039952L222.9033662212372,123.550530811159L223.02386755447387,135.13618298320284L224.14452995357513,136.52233590291078L227.48241688423155,70.24844036720799L228.1692744836807,86.3046975824642L228.86818221645356,64.59170577322169L232.0855678138733,107.65284797037174L234.59199554519654,76.35737145480249L235.62830701103212,134.7485483761639L235.78495874423982,136.46599235145104L237.3635262096405,170.4594147590156L239.11079554157257,142.2565334770249L239.8820040742874,99.61490249563349L244.32850327072143,132.990181981659L244.41285420398714,68.42118664660262L245.81066966953279,39.42765263080963L246.77468033542632,82.05594997468938L247.29283606834414,161.51749003475533L248.317097400856,133.2149167746978L250.40177046585083,176.73124566061028L251.8718867313385,92.3589400693761L251.9080371313095,186.0890331864159L252.64309526405333,120.48477210893333L252.7394963306427,119.97581832617107L253.29380246353148,67.27293290111561L254.28191339607238,132.25910747583558L258.10180565967556,106.48435869038184L258.74046272583007,198.4947322748159L259.46347072525026,173.31802252021015L259.873175258255,106.33076797450337L261.30714112377166,139.8536577860989L262.1988509897232,94.33769701112965L264.7293789876938,83.80906942298026L264.78962965431214,100.4816453526688L267.07915498580934,154.1847416536881L268.5974717845917,132.83903607942864L273.18857258090975,190.70903514978724L275.6709000455856,187.35411141176536L276.4180083116532,214.7687471610843L277.5627709774017,138.18919104194066L277.88812457714084,170.17692594510467L281.9972200405121,22.858774412319008L283.7324392391205,155.6609389406822L284.3469960386276,182.78341945905072L284.62414910507204,158.2960907344385L286.9136744365692,174.41386322233316L290.16721043395995,224.32936018838976L291.8662792325974,124.83155674399777L292.7459389652252,182.51531743314604L293.2761448314667,182.8198283761489L294.5896093637466,123.87381040047589L296.89118482856753,142.1070237193129L297.2526888282776,141.78261575446612L297.4816413614273,147.41635029390127L298.5902536272049,139.415509567838L298.95175762691497,220.06495637013757L299.7229661596298,146.68668625749024L299.95191869277954,162.3733064554094L305.15757628860473,144.4820097283915L306.95304615383145,137.88073078458314L307.36275068683625,205.19691620038572L310.1704317512512,196.250459167747L310.45963495101927,246.3715367522223L314.70128188095094,155.69971744639318L316.30394961299896,209.8677232719909L317.1715592123031,189.8704358590936L321.70240934200285,200.41384516668472L323.0520242742538,206.31272914938802L323.63043067379,129.57900872347153L324.1365362733841,149.40238525782271L326.1489085384369,171.33482730137231L326.52246267147063,177.26259769764107L328.8722386695862,175.8248592099578L329.1734920026779,160.3918037998664L329.4385949357986,253.51058066732304L331.89682213382724,135.80508399732867L332.06552400035855,176.44296451897918L332.414977866745,210.11212941176765L332.51137893333436,192.34862121351114L338.18699172878263,199.36337456399318L342.83834319171905,148.2378452921875L350.85168185195926,175.18076365123096L351.4903389181137,120.73950288480864L352.719452517128,200.75706879349264L355.852487181282,192.2634100547447L357.165951713562,213.91827171793844L357.3346535800934,124.61637553044548L358.2625138460159,160.35112586201345L359.64827917823794,136.23907603238777L361.44374904346466,203.25465280389508L362.1426567762375,252.23945622975918L362.25110797615054,193.3808309388771L362.33545890941616,241.18983885319523L363.6127730417252,190.25658477168483L363.7091741083145,219.46618389519514L364.564733574295,176.9434178727495L365.97459917316434,195.45986285272127L367.16756237220767,189.26939722996195L367.17961250553134,194.4749414651876L367.6375175718307,228.55413921928354L370.0595943698883,113.74910363951363L370.0957447698593,211.75456462370454L370.68620130271916,237.44807037100534L370.9754045024872,185.50365076776163L373.6866845003128,218.6110915155061L374.4578930330277,125.7075334741194L375.24115169906617,218.1788766719066L375.51830476551055,214.2195950000693L376.5666663646698,228.99594525488723L377.434275963974,171.87861027549084L379.02489356269837,222.95528088685177L382.94118689289087,259.67059895703386L387.7250898223877,206.34700355610877L388.2914460886002,167.8469245071515L388.74935115489956,165.1563506686182L389.08675488796234,242.04165894384758L390.46047008686065,253.93757677409673L394.89491914997103,188.83529235734986L398.48585888042453,244.03359907304215L398.6063602136612,215.36546035068463L399.13656607990265,244.02804182355737L399.44986954631804,173.37103736385671L399.9921255458832,224.56508723971567L400.2692786123276,213.93988010933606L401.17303861160275,174.85189860304106L401.968347410965,193.4235587589427L403.3300124765396,181.4689371917504L404.89652980861666,147.70105824635436L405.029081275177,162.908814675642L405.2700839416504,236.49771488720432L408.12596553936004,221.45737177403646L409.8250343379974,200.14751092911024L410.64444340400695,159.2626196008348L412.27121140270236,192.8470434913276L412.2953116693497,272.0135462612772L412.75321673564906,148.99220194644457L413.0303698020935,240.91277564495726L416.35620659942623,206.92203312927617L417.5371196651459,202.12371021966268L417.63352073173525,206.27745801094918L419.73024393005375,120.84017278833477L420.12789832973476,228.2171686735372L421.0196081956864,127.63970731274685L421.4895633953094,180.09457579632993L423.97189085998536,226.02720804197426L424.92385139255526,195.02466721709695L425.6348092586517,214.36609575636822L429.1895985891342,232.79448983249L430.70791538791656,201.59446448362104L431.129670054245,179.2762778620451L432.0213799201966,226.2602928139343L433.76864925212857,93.09315522042442L434.06990258522035,195.65409389393506L434.8411111179352,253.97313940954746L436.62453084983827,211.9951813023267L437.8295441822052,190.44163835858873L438.6369031148911,248.90253948456868L442.5772967117309,99.7880517206969L442.5893468450546,287.44968589781695L442.9629009780884,203.15210227448583L446.7345927083969,219.95919937359753L446.87919430828094,195.7080490505232L446.9273948415756,253.7864402749958L446.9394449748993,269.9515716241934L448.32521030712127,240.92021352032518L451.1087911048889,272.03664034712256L452.28970417060856,204.89216077601807L452.49455643711093,171.06745871956207L452.7114588369369,171.83817681900268L454.9648337684631,243.95915449745686L456.0613959009171,255.69438224911863L456.4711004339218,217.19729339531557L456.6880028337479,147.70780969327492L460.94169989700316,233.76148885535707L462.3515654958725,219.36507204458653L462.50821722908023,203.0183615648042L463.61682949485777,187.38501009502585L463.9662833612442,248.02306479030435L464.4362385608673,162.29020159763212L468.7622364240646,256.8419965818053L469.07553989048006,175.791873031967L469.5695953567505,204.02822005154871L469.87084868984226,180.9185908332996L471.5458172218323,204.5620074990982L472.29292548789977,227.6023356535525L474.799353219223,247.89260577278884L474.99215535240177,189.51621997399855L475.88386521835326,239.15535896652335L476.48637188453677,259.5192555890858L479.11330094909664,228.59459148203052L481.2341244140625,239.04285052306273L481.5474278804779,249.52148167210808L482.2824860132218,170.6429074264365L483.27059694576263,194.08025451108676L484.1020561450958,193.07412906672036L485.1142673442841,154.29897086983183L486.70488494300844,222.93591984338454L486.8374364095688,214.80700849467738L488.54855534152983,209.94869361939078L489.68126787395477,207.13680060513417L489.84996974048613,250.8275387354518L498.11636120052333,276.3468938244064L498.56221613349913,182.11361574450098L501.6108998643875,171.503030480363L502.9605147966385,206.4236014483303L503.743773462677,220.61901696470764L503.82812439594267,236.53085151526577L504.5029318620682,262.7919771697543L504.6113830619812,179.07121441574427L505.32234092807767,220.5170118168045L505.4789926612854,216.5528029051533L507.3708635931015,214.7806703291836L507.7685179927826,222.09813862495005L510.5159483905792,280.77484627258843L511.8053126562118,218.01253531254025L513.1910779884338,243.167899963372L513.7815345212937,197.5713073536619L514.4563419874191,256.2574604447985L516.0469595861435,262.5765890873549L516.1433606527328,216.11003775034922L517.7339782514572,250.30703790976693L519.1558939836502,147.98264435984137L519.4812475833893,279.8864762178967L519.5053478500366,227.55169039851873L520.5898598491668,202.06877713761529L521.4333691818237,223.02758154893021L521.8430737148285,250.64432816191342L522.1804774478912,282.9718874606015L526.0967707780839,213.49216890845923L526.2052219779969,118.19977404836442L526.3498235778809,216.36833231227317L526.5787761110305,279.7117989843032L526.783628377533,275.1062919449264L527.4343355770111,231.84017563120491L527.5789371768951,180.40401397914667L527.8801905099868,267.7237680982963L528.3260454429627,227.36617605827348L529.5792593086243,163.88186931385286L529.808211841774,211.02108291675066L531.0734758407593,255.96585059535414L533.7365553052902,271.5858402182326L533.9896081050873,184.0196676896112L534.6523654378891,215.58019021402495L535.7007270370483,208.75625456877873L536.5924369029999,256.1089474188046L538.809661434555,214.8617817235247L545.4372347625732,198.72732808404635L545.6902875623704,261.5576753869829L545.7866886289597,297.1797057046784L545.9674406288146,216.6441731136871L547.2447547611237,241.06115702713936L548.3292667602539,223.97302859917616L550.7151931583405,236.14275615488546L550.7995440916062,270.57890610473646L551.6551035575867,255.2444707159585L552.9083174232484,258.1546358357401L553.1131696897506,222.48550994436536L553.9205286224366,279.11021027210074L556.4390064870834,252.0464005797224L556.7884603534699,229.9955919430861L561.0542075500489,224.12257596940583L561.4157115497588,248.4153539464041L562.7171259487152,210.0845218238027L563.343732881546,239.2254122806714L563.7172870145797,203.91118870283904L564.404144614029,243.3505651554043L567.5612795448303,249.17379155882765L567.9589339445114,277.9175361432533L571.0076176753997,221.81359992882648L571.4173222084046,272.0831012095662L574.7311088724136,226.6694887967238L576.0807238046646,256.45461585926057L579.8885659349442,228.7764291986742L582.8649488658905,196.41962146593812L583.0577509990692,214.64679797569013L583.1903024656295,233.7366551905698L585.3111259305954,171.18183838577644L586.0100336633682,234.02874459961433L586.2510363298416,254.79708862461123L587.6970523286819,242.2413814126402L589.3961211273194,177.6269689625052L589.6853243270874,253.21217235531108L592.4809552581787,263.9008035936006L593.1919131242752,261.3014213041422L598.0842672536851,237.80349925979502L598.4216709867477,249.21638773508144L599.0362277862549,281.55433749177405L600.2050907186508,281.877085804279L600.5786448516845,244.71162112270136L600.6388955183029,269.62464832222787L601.9162096506119,247.463729040132L603.9767824489594,240.8600052826755L606.435009646988,280.01543073470566L608.2063792455673,261.4989528437809L608.3991813787461,251.10028590728794L608.4473819120407,237.5460603826479L608.8450363117217,258.75488460200086L609.0860389781952,226.0683467331686L609.9656987108231,245.59091715750677L612.9420816417694,266.48907138408947L615.400308839798,210.364735080395L615.725662439537,193.2729206257008L616.569171772194,271.2561429930894L617.3885808382034,241.55515043100095L618.9550981702804,284.0132887449715L619.1479003034591,247.09173183731158L624.6668613656998,249.04289059422965L626.1249274978637,285.88442216899597L627.4504421634674,222.773283317008L629.9327696281433,265.54769588888064L630.1496720279694,282.4480062098916L632.6802000259399,254.54305368031265L636.3313904230117,240.00632337239884L639.9102800201416,276.94484822708966L642.8023120178223,239.20578794958055L643.2240666841508,217.12167342855332L643.8747738836288,239.90892575790946L644.2603781499863,224.00957856321557L645.1279877492905,229.33268072239818L645.4533413490295,258.85257371350207L645.5015418823242,236.44417346831048L646.2607002817155,264.7697467829192L648.3694736133576,287.2105220026896L648.5261253465652,259.485094019918L649.4901360124588,248.51847806670776L649.5383365457535,199.71897270911234L649.9721413454056,246.27682843274587L651.0205029445648,219.10745450798052L651.1048538778305,222.38670186046363L651.635059744072,255.8503425536099L652.2737168102265,225.8290182832764L655.6598042741775,205.53999878025238L658.2746832054138,296.60402261401657L658.4433850719452,241.8706254229027L660.2268048038483,256.60056183092394L661.913823469162,223.68415506039187L664.3961509338379,286.89096135105666L664.504602133751,216.24234918435963L665.1432591999054,272.450923422926L666.7700271986008,235.0503475949992L667.2038319982528,239.71500501996644L668.5895973304748,207.23600362047137L673.1083973268509,258.02654640683744L673.7952549263,253.80960018274703L674.74721545887,238.2755833721177L675.181020258522,256.0196270924834L676.5426853240966,252.70572920810287L676.7354874572754,263.02032276448875L677.6874479898453,270.5635366897062L678.7237594556808,212.97989582101323L687.1468026489258,289.2543627046949L687.6649583818436,272.4423195595105L688.3879663812637,223.5885346373621L688.6289690477371,278.6215766520061L690.0267845132828,248.25802078501815L690.6533914461136,275.46126478193935L691.3763994455338,268.0774574081441L691.8102042451858,240.22579241296475L692.4488613113404,211.34957183976394L692.6537135778427,253.07930613666514L692.8224154443741,203.85279526916662L693.2562202440262,263.258475823204L693.7261754436493,297.5884597403853L693.8948773101806,256.4506571417765L695.3890938423157,228.66363866133113L696.1723525083542,240.59719721863195L696.4495055747986,283.98489129413565L697.7268197071076,230.92421679480708L698.9920837060928,159.43016456076637L699.5463898389817,253.3103316232831L703.1011791694641,304.40312860159224L706.9813220996857,229.123743186778L708.644240498352,219.94758650876895L712.1387791622162,243.7038783400754L712.7894863616943,263.2203273271639L713.0907396947861,244.70701358928758L714.6090564935683,274.5401060149746L715.5851172927856,245.14603629858414L716.3201754255294,236.77344285106528L716.5491279586792,281.5464294599353L720.9835770217895,302.7886865059263L721.586083687973,286.2166159249991L722.7067460870743,215.5973603283383L722.899548220253,245.7510712577175L723.2610522199632,245.08191635909748L724.140711952591,203.19326917506842L725.5144271514893,280.69317069048236L728.4908100824356,286.44366388787415L728.5149103490829,283.3128919488673L730.7803354139328,252.7687301751891L732.7083567457199,284.94498371844674L734.5761274108887,265.2938960228174L735.6967898099899,230.3512182975935L736.3595471427917,249.8584898303721L737.082555142212,241.4813734776042L741.9990095382691,289.7735611969557L742.5774159378051,294.59549536453244L742.6738170043944,213.6223834446099L744.4572367362977,299.67484960299737L745.0235930025101,255.5638480065678L745.8189018018722,299.8643696763738L747.8674244668962,244.3693942276115L748.530181799698,249.40800470631763L749.2652399324418,287.5416202941157L751.1571108642578,275.28547327751005L751.3740132640838,283.94033456539864L753.229733795929,255.92105408681704L754.6757497947693,236.60078258873145L755.928963660431,278.5398352479942L756.326618060112,244.02192978943708L757.0978265928269,251.71826897562693L758.1702884586334,309.37163875050317L758.3510404584885,284.9424025594221L761.9901807222366,282.3794197839324L762.701138588333,267.55396638730497L765.5690703193665,266.9026022095397L765.6534212526321,289.47173954896584L765.7016217859268,229.2671879260168L765.7498223192215,284.7248658619511L767.4488911178588,253.78339366106508L767.9790969841004,279.4267807285794L769.9794191158294,205.23903281703932L770.1601711156845,266.74653847062484L770.4132239154817,297.1779426179129L770.5939759153366,248.97135158563387L772.0158916475295,278.9118512570734L776.6431428438186,227.18486491687707L776.9082457769393,227.88654524014655L777.4384516431809,278.40817733147816L777.7758553762436,241.59311086445274L778.8362671087266,275.3453524056302L780.4027844408035,287.54376420762253L780.9450404403686,281.1678218571356L783.4876185716629,263.911711223723L784.7649327039719,253.44021704990425L784.8010831039428,254.65394478551377L785.1143865703583,260.12465727026637L785.4879407033919,267.19647821317324L787.6449145683288,265.21640483330145L787.7051652349472,244.3288103210527L787.8015663015366,244.60566666044357L789.7536878999709,262.31316981989926L790.3923449661255,301.42536908600476L792.8023716308594,187.4815802341266L794.308638296318,270.6944611621278L796.8753166942597,262.9022570715434L797.2729710939407,225.73333203834073L798.4177337596893,289.082299541079L799.3214937589646,275.7869515723867L799.490195625496,287.23828944385457L800.5385572246552,280.7630641514304L802.695531089592,264.64371663935856L803.0931854892731,253.73335020631393L805.2501593542099,299.9835543417197L808.8651993513107,231.89352898751045L808.9375001512527,298.9034497766741L811.0944740161895,256.14279868470163L814.4203108135224,202.0248175075962L820.8671321416855,230.02292684029797L821.4816889411927,306.60803080579694L822.6144014736175,186.19829755022806L824.0122169391632,274.1297158347493L824.674974271965,239.9609814823556L825.036478271675,254.8953889395245L825.9763886709213,231.83575616037947L826.3017422706604,255.30064501108876L826.5065945371629,268.73161901691054L829.5311780014038,283.8327533617519L829.7239801345825,279.5216112887382L832.5437113323211,294.3390579206681L833.1100675985336,244.03589343661963L834.5681337306977,258.2017173047253L837.0745614620208,296.165644019085L837.436065461731,310.38055222274136L838.2434243944169,221.166843284475L842.4489209243775,256.86767652823994L843.5695833234787,241.67410001811143L843.6418841234207,288.4875657102207L843.9069870565414,268.0349270537962L844.9914990556716,246.64050386603324L847.1364227872849,297.38884070601625L848.5944889194488,281.6315936030547L849.498248918724,323.1737049079391L845.9434595882415,285.26067968388975L846.9436206541062,297.2034580095828L847.7991801200867,247.87386533586306L848.9680430524826,227.12178872475556L849.1126446523666,286.0962558684762L849.7513017185212,292.0948459339404L850.9081145175934,246.09957944325714L852.6674339828492,215.37494810826524L858.1984451784134,277.7531036191583L859.1624558443069,279.1671979379255L862.7413454414368,289.55869498823887L863.1148995744705,297.60965909565334L863.2113006410599,235.57068856748404L867.0552931713105,283.504113988668L868.8628131698608,233.81926168248805L871.2246393013,268.99012044768165L872.8875576999665,299.00439237095327L873.7310670326232,289.97903367938613L873.743117165947,289.1110637139621L874.7553283651353,254.06615516572907L876.6592494302749,202.69173446141528L877.9847640958786,254.62786050451422L878.9969752950669,272.8654133675766L880.4791416938782,299.9044693217677L881.8046563594818,278.38872225671673L882.7084163587571,235.08827041593335L883.3350232915877,257.0232419012958L886.7813614221573,244.179103097623L886.901862755394,291.22799023935215L888.9021848871231,278.50849461765114L891.3363118185043,285.1567515960211L892.5413251508713,293.7527445922017L892.6738766174316,216.54393575411413L893.3245838169098,270.37818690422574L895.6261592817307,213.70874178516507L896.1925155479431,299.91921342869176L897.1926766138076,278.2012567671177L898.0964366130829,246.10087707511653L898.4699907461167,236.91993420423478L899.0242968790054,269.74624489026894L899.916006744957,241.62165876535926L900.422112344551,290.6238579806427L901.2174211439133,264.3301316764694L903.6033475419997,300.5388373431138L905.3144664739609,252.77505848128592L908.3149496715546,302.6137271784503L911.1587811359406,309.7695439256466L912.5204462015153,229.60895406776524L914.207464866829,296.76853506471156L916.1475363319396,304.8434536443129L916.4849400650024,282.22685400916026L917.0271960645676,269.9667341703764L922.0762019271851,280.01227128322193L922.4859064601899,271.1239255903732L922.955861659813,254.3767123209463L931.993461652565,269.6793463260399L932.0055117858886,257.8814937324685L932.210364052391,313.74949837750466L933.3792269847869,282.4714952271724L933.9937837842941,286.6013919806956L934.9939448501586,294.0450314669639L935.9338552494049,283.3179461309283L940.0188504461288,246.54969784526438L940.7298083122253,259.8740920807222L942.9349827104568,248.2791778262038L942.9470328437806,288.41074214289324L943.1036845769881,302.6709546240752L944.8027533756256,319.2818648310546L946.357220574379,277.98372947277613L946.610273374176,287.4353367223284L948.8515981723785,282.8669814472736L949.5384557718277,308.72904534170056L950.4904163043976,288.86106271218296L951.900281903267,249.52770654378136L958.4435042980194,295.8371221851188L958.4917048313141,283.93615017280854L958.8652589643478,282.0607994452411L959.299063764,297.5261734111347L959.9136205635072,260.3891578976048L960.829430696106,288.865745470632L963.9504152269363,290.4421754156344L964.9264760261535,284.29177652731596L968.2523128234862,255.43685874380677L968.7584184230805,270.24280064689634L970.1321336219788,289.6546586254923L971.6504504207612,289.7692028464715L971.9637538871765,251.04166679850954L973.3615693527222,272.02769797104804L975.2172898845672,212.3753686308683L975.8920973506927,156.50925166406242L976.5066541501998,244.55135418493762L976.7717570833207,289.4360781806562L977.1694114830017,276.8894402870068L977.4706648160934,187.10135529306734L979.3986861478805,282.7890859231927L980.3385965471267,324.95224336582334L980.6036994802474,300.5311690910752L980.6277997468948,264.02112603760577L981.8569133459091,317.6936833250648L981.8930637458802,301.85001911198924L982.3750690788269,274.96893573198435L983.7487842777252,249.94793239737567L985.7370562761307,285.044539351137L987.544576274681,302.6884585494828L988.4483362739563,320.6082773188013L989.1833944067001,300.44082382364775L991.2319170717241,288.79508095307193L992.9068856037139,265.18534629684086L998.0884429328919,268.2457358121701L998.5824983991623,253.1889278193951L998.6427490657807,311.6549418969949L999.2091053319931,262.5245333629087L999.9321133314132,282.3583050568291L1000.2092663978576,294.8761787775955L1001.2576279970168,276.00528753585803L1003.3784514619828,274.65543069569526L1003.4628023952483,297.9568038274277L1011.5484418554305,294.59863600975734L1011.9822466550827,264.76582567795276L1014.8622285194397,288.1339375207142L1015.2357826524734,278.5835456950837L1018.8267223829268,278.14030568224416L1019.0436247827531,293.7306801490274L1020.0076354486465,274.0146403369581L1020.7547437147141,293.33919496049265L1021.5741527807235,269.27495064081717L1024.3577335784912,287.4772887842172L1024.3818338451385,267.68880726312824L1025.9001506439208,284.7925448859217L1026.4183063768387,248.56742135531724L1027.8522722423554,208.1304198873775L1030.4189506402968,292.6586011549382L1031.033507439804,278.3405453231547L1032.7687266384125,298.47409348441704L1033.3350829046249,269.48189001143646L1033.7206871709825,285.89040726086915L1034.7449485034942,269.9074427378448L1036.1427639690398,306.0961338435276L1036.2271149023056,248.0344895925446L1036.3596663688659,308.7810070348525L1038.1551362340927,239.74229290153121L1039.6614028995514,238.73999453083707L1041.1797196983337,291.1679747658555L1042.8185378303526,290.9072212855893L1043.6620471630097,250.4540464350543L1045.0237122285841,263.46801515910676L1046.9396834270476,273.02141128458555L1048.1326466260912,279.98428757008037L1050.4462722242356,320.02108714851687L1050.9523778238295,287.98069001905935L1051.8320375564576,258.74960944639855L1052.5188951559066,255.91794165098042L1058.6644631509782,289.4300084606183L1059.4838722169875,275.3002502953871L1060.41173248291,161.77568116225572L1060.5804343494417,278.6274818172793L1061.0503895490647,260.81566504164886L1061.435993815422,235.5313364708787L1065.0992343458176,309.2168796957948L1066.4126988780977,286.8566164208653L1068.5696727430345,281.7846107280388L1068.8468258094788,286.08898724943776L1071.1604514076232,301.2466155958095L1071.461704740715,257.0836570077926L1073.0402722061158,246.71775057418444L1073.1246231393814,286.2020316712751L1073.4017762058259,246.455487891647L1073.7994306055068,277.3560282701859L1073.8476311388015,260.51000691685726L1074.63088980484,307.4054678974727L1075.4141484708787,308.3207262007291L1077.655473269081,293.7110041007247L1078.1254284687043,264.426560768629L1078.318230601883,287.08716234788307L1080.0534498004913,295.9134285803284L1080.3667532669067,289.196556966611L1080.8126081998826,258.74209634599526L1083.3792865978241,261.7375854620963L1083.8733420640945,298.25528736447495L1084.8253025966644,201.5003391581684L1085.4278092628479,297.09044649869844L1085.6567617959977,255.9914459136241L1085.2591073963165,281.7306320636271L1088.4403425937653,282.26060184063374L1089.8020076593398,297.5252989200991L1090.2237623256683,257.52159835720636L1095.3209687215806,281.6613733139147L1096.8633857870102,290.19877541070514L1098.911908452034,283.50117080916084L1102.2377452493668,269.53230488979955L1103.7078615148546,272.1903015864716L1104.7682732473372,305.5318614504119L1105.1779777803422,311.30225872199463L1105.9130359130859,287.2180915218693L1106.129938312912,277.2563645015073L1107.0336983121872,285.05248499549344L1108.8532684440613,237.85548916233523L1109.479875376892,266.71166226362146L1111.1668940422057,225.28493440901656L1114.0950764398576,267.66840247229584L1117.1317100374222,271.0716206829975L1119.071781502533,301.4990237987191L1119.650187902069,302.94611840017114L1121.987913766861,306.4247356040938L1122.3735180332185,279.05060853629834L1122.4699190998078,305.32987752899476L1124.7473942979811,300.2436025872797L1124.9281462978363,298.095909022441L1125.7234550971984,314.49588823036413L1127.2417718959807,276.65005071677336L1128.266033228493,299.54318228335194L1128.9167404279708,291.3491589650048L1129.8566508272172,294.1848465982482L1132.2907777585983,282.07507339569435L1132.6763820249557,290.94599508973556L1133.1222369579314,308.38513998801L1134.086247623825,293.90169956527814L1135.9058177556992,278.7499011591442L1138.171242820549,273.6034885032501L1138.5447969535828,278.8360338245934L1138.9424513532638,294.6509503202624L1139.7136598859786,288.4625815953628L1140.1836150856018,253.33015342009173L1140.3161665521623,233.57570182435873L1141.0753249515533,249.53106346098284L1143.9191564159394,289.85970326553434L1144.2686102823257,287.368362933064L1149.5465686780929,296.90024469843934L1151.8360940095902,307.43655934488623L1151.9204449428557,300.84340000332844L1153.4990124082565,288.78400406662L1153.655664141464,226.68069732698748L1154.209970274353,282.11814442998366L1154.5232737407684,227.03567486556523L1155.1739809402466,307.8489570932418L1156.2464428060532,296.30033444483763L1160.8857441356658,295.9526114206042L1161.572601735115,298.7525060417262L1162.849915867424,315.16013234464674L1163.6331745334626,294.9081541191741L1164.1754305330276,293.07398439688336L1165.9950006649017,317.2125016850323L1166.1396022647857,273.52924609494727L1169.3208374622345,280.6286558195602L1169.6943915952684,288.8378228778316L1169.851043328476,249.87022493588307L1172.7069249261856,270.17976676885723L1173.5142838588715,325.39450075163893L1176.3219649232863,313.7202711004978L1177.430577189064,273.4683185178973L1178.021033721924,275.5312334679227L1179.3103979875566,315.4057326818593L1182.166279585266,242.2936628121923L1183.407443317604,274.957383987497L1184.431704650116,250.16797502883594L1184.6245067832947,322.6787241754888L1189.2276577129364,230.05018651247454L1189.4325099794387,292.71890342388207L1190.770074778366,289.9067894360842L1190.9990273115159,272.8362213523051L1191.9750881107332,287.04936176763135L1192.7221963768004,275.6858444233428L1195.1563233081818,277.22371213461076L1196.1444342407228,303.8314089299792L1197.7230017061233,265.4150271359524L1203.386564368248,248.48887701530666L1205.242284900093,273.7706385317463L1205.4832875665663,318.1259874983937L1207.9656150312424,300.91874727933765L1209.146528096962,289.4161247400358L1210.062338229561,308.8554633643496L1211.8698582281113,292.8345572141323L1212.1108608945847,287.89958332628294L1212.1470112945558,326.7228361793512L1212.8941195606233,308.79232370110446L1213.1712726270675,303.37815928587645L1213.2074230270384,281.92491012048794L1215.629499825096,226.51127174117272L1216.5091595577242,267.25439208724544L1217.533420890236,283.8154186926738L1217.8467243566513,276.5254874614016L1219.3650411554336,271.2852080661138L1220.1241995548248,318.50441879251696L1225.185255550766,324.0315006873352L1225.8962134168623,293.84320739874687L1225.92031368351,310.84727184973235L1226.2938678165435,320.08530347008L1227.1494272825241,284.3040617158978L1229.9691584802626,318.95783299138446L1231.1380214126586,317.6350101482923L1234.1264544769288,277.0605819439399L1236.5605814083099,302.94852089973693L1239.3080118061066,316.01542454083585L1241.2360331378939,287.65649362462443L1245.0800256681443,322.07195668976055L1245.6102315343858,290.70700515250235L1246.9598464666367,297.21754859901245L1247.417751532936,226.44385130326108L1249.9482795309066,312.3790251760976L1251.2376437965393,283.5929312475654L1252.9126123285293,245.5674469464848L1253.2379659282685,265.37000495230933L1254.7683328603744,300.41502633809534L1256.419201125717,285.4406696856032L1257.0940085918426,261.4559429298328L1257.4796128582002,305.6023567116425L1258.3351723241806,265.8929505916423L1258.7810272571564,299.6203443633384L1262.914222987175,325.60411766335943L1263.9866848529816,235.37654215443501L1264.263837919426,299.66095177772075L1264.986845918846,317.0639980621678L1268.2283317829133,294.467288396512L1269.1923424488068,284.85676355826723L1270.204553647995,317.90133498273735L1270.6865589809418,249.47902654279554L1271.0480629806518,294.78671270276845L1271.8313216466904,293.25537076331506L1272.2169259130478,245.69563040668166L1276.868277375984,306.4609141445213L1278.5311957746505,315.0730687693854L1279.3747051073074,309.0400703026062L1280.2182144399644,290.7102962477979L1281.6642304388047,280.780953605144L1282.194436305046,281.666502721011L1283.833254437065,289.8879408631701L1284.5201120365143,284.19268634953175L1285.5925739023207,262.58817374279516L1286.243281101799,285.40408681061086L1287.2072917676926,285.3810961591891L1288.5328064332962,273.1035006043859L1288.6533077665329,314.7746016878146L1290.3764768318176,277.2644135802873L1291.2561365644453,311.96914511564313L1293.56976216259,271.52136766139284L1294.4132714952468,315.2102369197391L1295.0037280281067,283.4956981878408L1295.2206304279327,321.421506966331L1295.9918389606476,268.23986355784996L1297.7873088258743,290.30611683455174L1300.6311402902604,304.3049787367496L1301.4143989562988,293.0902659154669L1304.0051776208877,258.6252248504857L1306.8490090852738,300.1733753152374L1307.102061885071,304.4010458084266L1308.1263232175827,285.3412080842071L1308.15042348423,304.9607435790815L1311.4039594816209,268.8749791279846L1312.5728224140166,330.5406501199094L1316.2240128110884,274.53878017372693L1316.6939680107116,275.77231560145094L1318.6942901424409,268.1272563815304L1319.6221504083633,299.4340213539634L1319.8993034748078,252.27135164473773L1321.8514250732421,292.73104756552266L1323.1407893388748,324.83952100116846L1323.5263936052322,301.46963901929456L1323.8517472049714,285.69082583901775L1323.9601984048843,253.56290908252225L1324.815757870865,272.3079300338992L1325.5749162702562,293.91909535469745L1325.7195178701402,296.811394528589L1326.7196789360046,269.03171048908797L1327.6716394685745,299.03641002661425L1328.8887029342652,295.459610046896L1329.1297056007386,270.6079429683726L1329.8406634668352,302.1698524543752L1330.0455157333374,294.94448781123697L1330.7323733327864,251.37648402761965L1330.864924799347,288.27187672767997L1332.6242442646026,329.82398708530695L1333.1785503974916,287.77568299153506L1335.9741813285827,292.8673647326642L1336.2151839950561,259.0996785514212L1340.517081591606,309.16055495059385L1340.6014325248718,293.0328692135125L1342.6258549232482,293.6929359875522L1343.035559456253,290.4791203111092L1343.4211637226106,299.9073889934513L1344.0718709220887,325.7179190371147L1345.156382921219,297.28839647759617L1347.5061589193344,268.0578894958297L1347.8797130523683,299.99963839458553L1348.54247038517,321.3728998395981L1348.9642250514983,334.0699454898188L1349.0847263847352,250.5264787409446L1351.4345023828507,304.7652901310437L1352.7720671817779,312.9185579357202L1354.51933651371,307.77388720955037L1355.1820938465119,315.12847670946826L1357.7367221111297,287.81904552283623L1359.4478410430909,297.83337835071524L1360.3636511756897,289.80277201848605L1362.1832213075638,321.51855196346725L1364.328145039177,304.09321556073996L1365.0270527719497,297.5446599635663L1369.4856021017074,265.0308998961856L1370.7388159673692,318.43157274893235L1370.9075178339006,233.25870352549163L1371.1364703670502,319.3365886934725L1371.6305258333205,302.65177224006686L1371.799227699852,287.7494341557707L1371.979979699707,302.5627481123223L1372.1366314329148,293.77468209312883L1372.606586632538,302.19236824776146L1373.0885919654845,275.0391441977678L1373.1970431653976,304.90311179889176L1373.8839007648469,261.9487891519057L1374.173103964615,308.5412366378778L1376.2216266296386,285.6262921618368L1376.245726896286,313.19154723813875L1378.2821994279861,311.1425747782547L1380.4030228929519,286.11246216202437L1381.5116351587294,291.2517989630331L1382.0659412916184,294.0127505236793L1382.3792447580338,317.82277183646795L1382.5479466245652,301.56762432937245L1384.8736223560334,280.1297069664964L1385.2712767557146,317.9692020692962L1387.6331028871537,313.6234212182969L1388.3199604866027,315.28637170783685L1389.802126885414,318.6912049060157L1391.9229503503798,300.2599452262044L1393.127963682747,317.9334278634336L1394.369127415085,294.78928445866364L1398.3938719451903,287.3635485308031L1399.9965396772384,303.26197892037897L1406.3590100721358,307.6408611377044L1406.8410154050828,316.0800263907051L1407.0097172716141,319.02900997949774" fill="none"></path></g></g></g></g></g><g><g opacity="0.026773"><span fill="rgb(0, 0, 0)" stroke="none" stroke-width="1px">Alt + Scroll to Zoom</span></g></g></g><g transform="translate(49, 378)" clip-path="url(#clip_1)"><clipPath id="clip_1"><rect width="1446" height="21"></rect></clipPath><g><g><line x1="0" y1="0" x2="0" y2="5" style="visibility: inherit;" fill="rgb(0, 0, 0)" stroke="rgb(204, 204, 204)" stroke-width="1px"></line><line x1="120.50133323669434" y1="0" x2="120.50133323669434" y2="5" style="visibility: inherit;" fill="rgb(0, 0, 0)" stroke="rgb(204, 204, 204)" stroke-width="1px"></line><line x1="241.00266647338867" y1="0" x2="241.00266647338867" y2="5" style="visibility: inherit;" fill="rgb(0, 0, 0)" stroke="rgb(204, 204, 204)" stroke-width="1px"></line><line x1="361.503999710083" y1="0" x2="361.503999710083" y2="5" style="visibility: inherit;" fill="rgb(0, 0, 0)" stroke="rgb(204, 204, 204)" stroke-width="1px"></line><line x1="482.00533294677734" y1="0" x2="482.00533294677734" y2="5" style="visibility: inherit;" fill="rgb(0, 0, 0)" stroke="rgb(204, 204, 204)" stroke-width="1px"></line><line x1="602.5066661834717" y1="0" x2="602.5066661834717" y2="5" style="visibility: inherit;" fill="rgb(0, 0, 0)" stroke="rgb(204, 204, 204)" stroke-width="1px"></line><line x1="723.007999420166" y1="0" x2="723.007999420166" y2="5" style="visibility: inherit;" fill="rgb(0, 0, 0)" stroke="rgb(204, 204, 204)" stroke-width="1px"></line><line x1="843.5093326568604" y1="0" x2="843.5093326568604" y2="5" style="visibility: inherit;" fill="rgb(0, 0, 0)" stroke="rgb(204, 204, 204)" stroke-width="1px"></line><line x1="964.0106658935547" y1="0" x2="964.0106658935547" y2="5" style="visibility: inherit;" fill="rgb(0, 0, 0)" stroke="rgb(204, 204, 204)" stroke-width="1px"></line><line x1="1084.511999130249" y1="0" x2="1084.511999130249" y2="5" style="visibility: inherit;" fill="rgb(0, 0, 0)" stroke="rgb(204, 204, 204)" stroke-width="1px"></line><line x1="1205.0133323669434" y1="0" x2="1205.0133323669434" y2="5" style="visibility: inherit;" fill="rgb(0, 0, 0)" stroke="rgb(204, 204, 204)" stroke-width="1px"></line><line x1="1325.5146656036377" y1="0" x2="1325.5146656036377" y2="5" style="visibility: inherit;" fill="rgb(0, 0, 0)" stroke="rgb(204, 204, 204)" stroke-width="1px"></line><line x1="1446.015998840332" y1="0" x2="1446.015998840332" y2="5" style="visibility: inherit;" fill="rgb(0, 0, 0)" stroke="rgb(204, 204, 204)" stroke-width="1px"></line></g><g transform="translate(0, 8)"><text style="text-anchor: middle; visibility: hidden; font-family: &quot;Helvetica Neue&quot;, sans-serif; font-size: 12px; font-weight: 200;" x="0" y="0" dx="0em" dy="0.95em" fill="rgb(50, 49, 63)" stroke="none" stroke-width="1px">-10k</text><text style="text-anchor: middle; visibility: inherit; font-family: &quot;Helvetica Neue&quot;, sans-serif; font-size: 12px; font-weight: 200;" x="120.50133323669434" y="0" dx="0em" dy="0.95em" fill="rgb(50, 49, 63)" stroke="none" stroke-width="1px">0</text><text style="text-anchor: middle; visibility: inherit; font-family: &quot;Helvetica Neue&quot;, sans-serif; font-size: 12px; font-weight: 200;" x="241.00266647338867" y="0" dx="0em" dy="0.95em" fill="rgb(50, 49, 63)" stroke="none" stroke-width="1px">10k</text><text style="text-anchor: middle; visibility: inherit; font-family: &quot;Helvetica Neue&quot;, sans-serif; font-size: 12px; font-weight: 200;" x="361.503999710083" y="0" dx="0em" dy="0.95em" fill="rgb(50, 49, 63)" stroke="none" stroke-width="1px">20k</text><text style="text-anchor: middle; visibility: inherit; font-family: &quot;Helvetica Neue&quot;, sans-serif; font-size: 12px; font-weight: 200;" x="482.00533294677734" y="0" dx="0em" dy="0.95em" fill="rgb(50, 49, 63)" stroke="none" stroke-width="1px">30k</text><text style="text-anchor: middle; visibility: inherit; font-family: &quot;Helvetica Neue&quot;, sans-serif; font-size: 12px; font-weight: 200;" x="602.5066661834717" y="0" dx="0em" dy="0.95em" fill="rgb(50, 49, 63)" stroke="none" stroke-width="1px">40k</text><text style="text-anchor: middle; visibility: inherit; font-family: &quot;Helvetica Neue&quot;, sans-serif; font-size: 12px; font-weight: 200;" x="723.007999420166" y="0" dx="0em" dy="0.95em" fill="rgb(50, 49, 63)" stroke="none" stroke-width="1px">50k</text><text style="text-anchor: middle; visibility: inherit; font-family: &quot;Helvetica Neue&quot;, sans-serif; font-size: 12px; font-weight: 200;" x="843.5093326568604" y="0" dx="0em" dy="0.95em" fill="rgb(50, 49, 63)" stroke="none" stroke-width="1px">60k</text><text style="text-anchor: middle; visibility: inherit; font-family: &quot;Helvetica Neue&quot;, sans-serif; font-size: 12px; font-weight: 200;" x="964.0106658935547" y="0" dx="0em" dy="0.95em" fill="rgb(50, 49, 63)" stroke="none" stroke-width="1px">70k</text><text style="text-anchor: middle; visibility: inherit; font-family: &quot;Helvetica Neue&quot;, sans-serif; font-size: 12px; font-weight: 200;" x="1084.511999130249" y="0" dx="0em" dy="0.95em" fill="rgb(50, 49, 63)" stroke="none" stroke-width="1px">80k</text><text style="text-anchor: middle; visibility: inherit; font-family: &quot;Helvetica Neue&quot;, sans-serif; font-size: 12px; font-weight: 200;" x="1205.0133323669434" y="0" dx="0em" dy="0.95em" fill="rgb(50, 49, 63)" stroke="none" stroke-width="1px">90k</text><text style="text-anchor: middle; visibility: inherit; font-family: &quot;Helvetica Neue&quot;, sans-serif; font-size: 12px; font-weight: 200;" x="1325.5146656036377" y="0" dx="0em" dy="0.95em" fill="rgb(50, 49, 63)" stroke="none" stroke-width="1px">100k</text><text style="text-anchor: middle; visibility: hidden; font-family: &quot;Helvetica Neue&quot;, sans-serif; font-size: 12px; font-weight: 200;" x="1446.015998840332" y="0" dx="0em" dy="0.95em" fill="rgb(50, 49, 63)" stroke="none" stroke-width="1px">110k</text></g><line x1="0" y1="0" x2="1446.015998840332" y2="0" fill="rgb(0, 0, 0)" stroke="rgb(204, 204, 204)" stroke-width="1px"></line></g></g></g></g></svg>